<?xml version="1.0" standalone="no"?>
<!DOCTYPE svg PUBLIC "-//W3C//DTD SVG 20010904//EN"
 "http://www.w3.org/TR/2001/REC-SVG-20010904/DTD/svg10.dtd">
<svg version="1.0" xmlns="http://www.w3.org/2000/svg"
 width="474.000000pt" height="171.000000pt" viewBox="0 0 474.000000 171.000000"
 preserveAspectRatio="xMidYMid meet">

<g transform="translate(0.000000,171.000000) scale(0.100000,-0.100000)"
fill="#000000" stroke="none">
<path d="M63 1343 c5 -343 10 -382 67 -555 30 -88 112 -262 129 -272 5 -4 21
5 36 20 22 22 32 25 60 20 20 -4 44 -2 57 5 38 20 104 91 129 141 13 26 42 60
65 76 28 21 52 51 75 97 18 36 37 69 41 71 14 9 9 21 -15 31 -13 6 -38 33 -56
60 -44 64 -40 120 13 197 20 29 36 58 36 64 0 7 5 11 12 10 15 -4 28 79 22
142 l-4 45 15 -45 c9 -25 23 -83 32 -129 16 -79 16 -88 -1 -145 -10 -34 -19
-79 -22 -101 -3 -36 -3 -38 7 -13 5 14 17 29 25 32 16 6 19 -9 4 -19 -5 -3
-10 -24 -10 -45 0 -22 -7 -45 -16 -55 -15 -14 -14 -17 13 -38 69 -54 101 -90
127 -142 16 -31 41 -66 56 -78 15 -12 37 -38 49 -58 21 -36 45 -51 159 -100
24 -11 47 -19 51 -19 10 0 94 179 114 245 49 154 52 184 52 535 l0 335 -664 3
-663 2 5 -317z"/>
<path d="M4110 1624 c-7 -19 -9 -38 -6 -42 4 -3 26 13 49 36 l42 42 -37 0
c-33 0 -38 -3 -48 -36z"/>
<path d="M3528 1551 c-88 -28 -133 -87 -133 -176 0 -51 4 -67 27 -97 39 -51
88 -71 159 -66 38 3 69 11 86 24 42 31 39 48 -2 19 -56 -37 -115 -35 -149 6
-33 39 -39 65 -34 144 3 54 8 69 32 94 16 17 41 33 57 36 39 9 95 -20 111 -56
18 -41 25 -36 27 21 1 45 -11 68 -21 38 -3 -9 -11 -9 -34 0 -43 17 -95 22
-126 13z"/>
<path d="M1654 1535 c20 -10 21 -19 24 -150 3 -133 2 -141 -19 -157 -21 -18
-19 -18 55 -18 l76 0 -20 20 c-16 16 -20 33 -20 80 0 56 2 60 23 60 31 0 48
-13 63 -47 11 -25 12 -20 13 57 0 80 -1 83 -13 54 -14 -32 -33 -44 -67 -44
-18 0 -20 6 -17 68 3 62 5 67 27 70 50 7 91 -8 111 -41 l20 -32 0 48 0 48
-139 -3 c-106 -2 -134 -5 -117 -13z"/>
<path d="M1958 1539 c18 -7 20 -19 24 -136 4 -138 12 -165 58 -182 25 -10 63
-14 107 -12 13 1 37 14 54 29 l32 29 5 130 c4 121 6 132 26 141 17 8 9 10 -39
10 -58 0 -59 -1 -32 -14 27 -14 27 -16 27 -118 0 -152 -17 -186 -94 -186 -58
0 -67 25 -64 171 3 120 4 124 28 136 22 11 13 12 -63 11 -51 -1 -80 -5 -69 -9z"/>
<path d="M2328 1534 c21 -16 22 -23 22 -155 0 -131 -1 -139 -22 -153 -22 -15
-20 -16 31 -16 52 0 53 0 32 18 -20 16 -22 25 -19 136 l3 118 110 -138 110
-138 5 156 c3 86 7 158 10 161 3 2 14 9 25 15 17 10 12 11 -32 12 l-53 0 20
-20 c17 -17 20 -33 20 -105 0 -47 -2 -85 -4 -85 -2 0 -40 46 -85 103 l-80 102
-58 2 c-56 2 -57 2 -35 -13z"/>
<path d="M2688 1538 c21 -11 22 -15 22 -160 0 -145 -1 -149 -22 -158 -16 -7 8
-9 82 -7 123 3 173 22 205 77 29 52 27 136 -5 183 -37 54 -74 68 -198 72 -83
3 -102 1 -84 -7z m184 -37 c33 -29 33 -30 33 -119 0 -110 -18 -145 -78 -150
l-37 -3 0 150 0 151 25 0 c14 0 39 -13 57 -29z"/>
<path d="M3181 1529 c-40 -101 -125 -277 -143 -296 l-21 -23 54 1 c42 0 49 2
32 9 -25 10 -30 39 -13 71 9 15 22 19 71 19 59 0 60 -1 75 -35 18 -44 18 -44
-8 -55 -17 -6 -2 -9 55 -9 l78 -1 -21 28 c-11 15 -47 90 -81 167 -33 77 -63
142 -65 144 -2 2 -8 -7 -13 -20z m8 -148 c11 -27 21 -52 21 -55 0 -3 -23 -6
-51 -6 -37 0 -50 3 -46 13 31 77 40 97 47 97 4 0 17 -22 29 -49z"/>
<path d="M3760 1537 c25 -12 25 -15 28 -149 2 -125 1 -138 -17 -155 -19 -18
-17 -18 53 -18 69 -1 71 0 53 18 -16 16 -18 34 -16 143 1 142 5 161 28 167 9
3 -22 5 -69 6 -75 1 -82 -1 -60 -12z"/>
<path d="M4031 1533 c-122 -60 -108 -263 22 -312 42 -16 114 -13 154 6 79 37
114 151 71 233 -33 65 -76 90 -152 90 -36 0 -75 -7 -95 -17z m131 -4 c30 -16
48 -71 48 -150 0 -85 -19 -132 -61 -149 -58 -24 -105 20 -116 108 -16 140 47
235 129 191z"/>
<path d="M4348 1534 c21 -14 22 -22 22 -155 0 -115 -3 -141 -15 -145 -28 -11
-15 -19 28 -19 40 0 42 1 25 15 -17 13 -18 28 -16 133 l3 118 110 -136 110
-137 5 157 c4 140 7 158 24 171 18 13 15 14 -35 13 -42 0 -49 -2 -32 -9 29
-12 35 -37 31 -129 l-3 -74 -83 107 -83 106 -57 0 c-54 0 -55 -1 -34 -16z"/>
<path d="M3631 777 c-165 -370 -175 -390 -218 -414 l-38 -23 115 1 c104 0 111
2 76 12 -58 18 -65 36 -40 104 l20 58 120 3 120 3 21 -53 c39 -98 37 -105 -18
-118 -22 -5 23 -8 126 -9 l160 -1 -33 20 c-37 23 -36 21 -202 398 -56 127
-105 232 -109 232 -3 0 -48 -96 -100 -213z m87 -104 c23 -54 42 -104 42 -110
0 -10 -26 -13 -96 -13 -85 0 -95 2 -90 17 24 62 90 203 95 203 4 0 26 -44 49
-97z"/>
<path d="M1650 968 c60 -16 60 -16 60 -308 0 -293 -1 -296 -60 -310 -23 -5 23
-8 130 -8 140 0 160 1 132 11 -18 7 -37 19 -42 27 -15 23 -13 247 2 256 7 5
27 -10 51 -37 63 -71 157 -199 157 -214 0 -8 -12 -21 -27 -29 -26 -14 -14 -15
142 -15 151 0 167 1 140 13 -43 20 -156 146 -308 347 l-27 36 130 104 c72 57
147 112 168 121 37 16 37 17 -93 16 -99 0 -122 -2 -97 -9 37 -11 49 -31 36
-60 -5 -11 -70 -69 -144 -128 l-135 -109 -3 124 c-1 69 2 132 7 141 5 10 24
23 43 29 28 11 9 12 -132 12 -124 0 -156 -2 -130 -10z"/>
<path d="M2413 968 c26 -7 41 -18 48 -35 5 -13 9 -140 9 -282 0 -283 -1 -287
-60 -301 -23 -5 26 -8 135 -8 109 0 158 3 135 8 -59 14 -60 17 -60 310 0 293
1 296 60 310 23 5 -26 8 -135 8 -133 0 -162 -2 -132 -10z"/>
<path d="M2762 967 c14 -7 36 -21 47 -31 20 -18 21 -28 21 -276 0 -282 0 -284
-61 -306 -30 -11 -21 -12 81 -12 84 0 107 2 84 9 -67 19 -69 27 -72 275 -2
134 0 224 6 224 5 0 105 -119 223 -265 118 -145 217 -264 222 -265 4 0 7 133
7 296 0 186 4 303 10 315 6 11 25 26 43 33 30 13 25 14 -78 14 -109 0 -110 0
-68 -14 31 -12 44 -23 52 -46 13 -37 15 -331 2 -326 -5 2 -78 90 -162 196
l-152 192 -116 -1 c-98 0 -112 -2 -89 -12z"/>
<path d="M4109 970 c66 -16 66 -15 69 -285 2 -152 -1 -259 -8 -284 -9 -36 -15
-41 -53 -49 -30 -7 41 -10 249 -11 l291 -1 11 94 c7 52 12 102 12 110 0 31
-16 15 -33 -34 -22 -61 -61 -108 -104 -126 -38 -16 -166 -19 -194 -4 -18 10
-19 24 -19 284 0 304 -2 293 68 307 21 4 -42 7 -143 7 -110 0 -167 -3 -146 -8z"/>
</g>
</svg>
