<?xml version="1.0" standalone="no"?>
<!DOCTYPE svg PUBLIC "-//W3C//DTD SVG 20010904//EN"
 "http://www.w3.org/TR/2001/REC-SVG-20010904/DTD/svg10.dtd">
<svg version="1.0" xmlns="http://www.w3.org/2000/svg"
 width="1024.000000pt" height="683.000000pt" viewBox="0 0 1024.000000 683.000000"
 preserveAspectRatio="xMidYMid meet">

<g transform="translate(0.000000,683.000000) scale(0.100000,-0.100000)"
fill="#000000" stroke="none">
<path d="M0 3415 l0 -3415 5120 0 5120 0 0 3415 0 3415 -2270 0 c-1977 0
-2269 -2 -2264 -14 8 -20 69 -66 88 -66 20 0 23 -79 4 -81 -7 -1 1 -4 17 -8
l30 -7 -37 -5 c-20 -3 -34 -1 -32 3 11 17 -19 6 -130 -47 -63 -30 -120 -55
-128 -55 -27 0 -192 -90 -245 -134 -29 -24 -69 -64 -89 -88 -52 -63 -56 -66
-45 -35 11 29 50 88 66 99 5 4 6 10 2 14 -11 12 -112 -92 -157 -161 -68 -104
-96 -265 -64 -356 22 -60 121 -175 160 -185 26 -7 67 -51 59 -64 -5 -8 30
-361 40 -406 3 -12 29 -49 60 -83 33 -38 55 -71 55 -85 0 -13 -13 -67 -30
-121 -16 -54 -30 -103 -30 -111 0 -21 35 -34 94 -34 52 0 56 -2 62 -27 9 -38
21 -51 54 -58 20 -4 32 -15 39 -36 5 -16 26 -38 45 -50 20 -11 59 -50 87 -85
57 -72 91 -94 144 -94 48 0 87 21 168 93 37 33 71 57 74 53 4 -3 -3 -27 -15
-54 -37 -81 -79 -195 -86 -233 -5 -29 -18 -45 -65 -82 -82 -64 -171 -201 -254
-396 -27 -63 -28 -63 -61 -58 -21 3 -41 0 -54 -9 -18 -12 -27 -8 -108 52 -49
37 -133 96 -188 132 -89 59 -103 65 -147 64 -26 0 -57 -5 -67 -11 -22 -12
-158 -18 -168 -8 -4 4 3 7 15 7 13 0 82 14 154 31 73 17 179 42 237 55 200 46
236 54 405 98 154 40 203 58 100 37 -149 -31 -309 -67 -495 -111 -118 -28
-264 -62 -325 -76 -60 -14 -202 -47 -315 -74 -113 -27 -493 -115 -845 -195
-352 -80 -656 -150 -676 -155 -74 -20 -69 -42 -63 278 7 340 14 317 -116 362
-47 16 -184 63 -305 105 -251 87 -227 85 -470 40 -152 -28 -285 -51 -669 -116
-178 -30 -251 -39 -254 -31 -2 7 -10 12 -18 12 -8 0 -11 -6 -8 -15 4 -10 0
-15 -14 -15 -26 0 -39 19 -15 22 10 0 -4 4 -32 7 -27 3 -51 3 -53 -1 -2 -4
-15 -3 -29 3 -21 8 -24 7 -19 -6 8 -21 -7 -19 -27 3 -10 10 -17 35 -17 55 0
27 -4 37 -15 37 -14 0 -14 3 -2 28 19 36 28 75 36 149 6 52 4 63 -9 66 -9 3
-6 5 8 6 21 1 22 -3 22 -65 0 -37 4 -63 9 -59 5 3 7 30 4 60 -5 51 -5 54 15
50 12 -2 24 1 28 6 3 5 0 8 -8 7 -21 -5 -22 70 -2 114 22 49 34 48 34 -2 0
-22 4 -40 9 -40 11 0 24 67 16 80 -4 6 2 22 13 38 16 22 18 36 12 81 -6 45 -4
56 12 71 16 15 19 29 17 89 -3 61 -1 73 16 85 13 9 22 11 26 4 6 -9 26 15 27
32 1 10 14 45 22 62 6 11 5 18 -2 20 -11 4 27 69 45 76 4 2 7 21 7 43 0 39 6
43 56 38 12 -1 41 76 32 82 -11 7 63 39 90 39 19 0 42 18 42 32 0 4 -9 8 -20
8 -39 0 -19 18 38 34 63 17 102 40 102 60 0 7 18 19 40 26 38 13 56 40 25 40
-9 0 -12 6 -8 16 3 8 12 13 20 10 9 -4 30 9 51 32 41 42 85 72 104 72 7 0 46
22 86 49 45 30 80 47 92 44 12 -3 22 2 29 16 7 12 16 21 22 21 20 0 89 51 83
62 -4 6 -1 9 7 6 8 -3 25 3 38 13 13 11 29 19 35 19 6 0 22 7 35 16 17 13 20
19 10 25 -9 5 -4 13 20 26 18 10 43 26 55 35 l21 17 -25 1 c-22 1 -23 2 -7 11
10 6 46 18 80 26 34 8 71 23 82 33 19 17 87 41 128 45 9 1 30 11 47 23 16 12
41 22 56 22 15 0 32 7 38 16 12 15 162 56 204 55 13 -1 37 6 55 15 48 26 87
35 87 21 0 -9 2 -9 8 -1 4 6 22 15 40 19 18 4 36 13 39 21 3 8 14 14 25 14 10
0 17 4 13 9 -3 6 4 15 15 21 14 8 20 8 20 0 0 -7 6 -6 14 3 8 8 32 17 53 20
21 4 52 18 68 33 26 22 38 25 85 22 55 -3 190 27 190 43 0 4 -19 10 -42 12
-24 2 -6 4 40 5 45 1 82 6 82 11 0 5 24 11 53 14 28 2 68 10 87 17 19 7 44 16
55 20 11 5 42 18 68 29 26 12 51 20 55 17 4 -2 48 2 97 10 50 7 117 14 150 14
33 1 69 5 80 10 11 5 -941 9 -2174 9 l-2195 1 -22 -21 -23 -21 -13 21 c-7 12
-23 21 -35 21 l-23 0 0 -3415z m5907 3310 c-2 -30 -22 -39 -22 -10 0 15 -6 19
-22 17 -13 -2 -23 2 -23 7 0 6 15 11 34 11 31 0 35 -3 33 -25z m203 21 c0 -28
-16 -36 -70 -36 -33 0 -62 5 -65 10 -3 6 -15 10 -26 10 -11 0 -17 5 -14 10 6
9 175 15 175 6z m44 -4 c2 -4 -4 -9 -15 -9 -11 -1 -17 2 -14 8 7 11 22 12 29
1z m94 1 c-16 -2 -40 -2 -55 0 -16 2 -3 4 27 4 30 0 43 -2 28 -4z m62 -3 c0
-5 -2 -10 -4 -10 -3 0 -8 5 -11 10 -3 6 -1 10 4 10 6 0 11 -4 11 -10z m970
-52 c0 -29 3 -63 6 -75 8 -28 34 -30 34 -4 0 27 17 35 29 14 6 -10 11 -13 11
-7 0 10 72 30 93 25 4 0 35 -3 70 -5 34 -3 96 -16 137 -31 99 -34 155 -52 213
-66 26 -6 47 -16 47 -20 0 -5 5 -9 11 -9 6 0 17 -7 25 -15 9 -8 24 -15 35 -15
11 0 35 -7 54 -14 26 -11 35 -21 35 -39 0 -21 6 -26 38 -32 20 -3 52 -15 70
-26 18 -10 42 -19 53 -19 16 0 19 -7 19 -40 0 -33 3 -40 19 -40 11 0 22 -6 25
-12 5 -10 7 -10 12 0 3 6 15 12 26 12 19 0 20 -5 16 -50 -6 -55 4 -70 42 -70
33 0 53 -22 73 -80 l16 -45 1 43 c0 23 3 42 6 42 10 0 64 -58 64 -69 0 -6 -9
-11 -20 -11 -25 0 -25 -21 0 -62 11 -18 20 -29 20 -24 0 5 9 1 19 -8 18 -17
19 -17 23 1 3 15 11 10 46 -25 25 -25 51 -42 65 -42 18 0 29 -10 43 -40 10
-22 24 -40 29 -40 6 0 29 -18 50 -40 l39 -40 -37 0 c-26 0 -37 -4 -37 -15 0
-19 57 -49 62 -33 7 21 48 -16 58 -52 14 -48 12 -60 -5 -60 -19 0 -19 -5 1
-35 9 -14 23 -25 30 -25 8 0 14 -4 14 -10 0 -5 11 -10 25 -10 14 0 25 -4 25
-10 0 -5 -5 -10 -11 -10 -5 0 -2 -13 8 -30 9 -16 21 -30 25 -30 4 0 8 -9 8
-20 0 -10 7 -23 16 -28 8 -4 17 -25 20 -46 2 -21 9 -46 14 -56 6 -10 10 -32
10 -49 0 -22 12 -42 51 -81 46 -46 50 -55 48 -90 -2 -22 2 -45 9 -52 15 -15
16 -38 2 -38 -20 0 -9 -32 21 -62 23 -23 27 -33 18 -39 -11 -6 -10 -15 4 -43
16 -35 16 -36 -3 -36 -18 0 -20 -7 -20 -80 0 -73 2 -80 20 -80 14 0 20 -7 20
-24 0 -35 -10 -56 -26 -56 -10 0 -14 -12 -14 -40 0 -31 4 -40 18 -40 12 0 13
-3 5 -8 -7 -5 -14 -27 -15 -50 -1 -23 -5 -42 -10 -42 -4 0 -8 -9 -8 -20 0 -11
-4 -20 -10 -20 -5 0 -10 10 -10 23 0 18 -2 19 -10 7 -20 -31 -12 -50 23 -50
25 0 36 -6 50 -31 21 -38 22 -49 1 -49 -13 0 -15 -6 -9 -27 3 -16 6 -52 5 -80
-1 -32 3 -53 9 -53 15 0 14 -67 -1 -77 -18 -11 -40 -76 -28 -83 5 -3 0 -24
-11 -49 -10 -24 -19 -46 -19 -50 0 -4 17 -12 38 -18 l37 -11 -41 5 c-36 4 -44
1 -73 -28 -22 -22 -42 -32 -62 -32 -19 0 -25 -3 -17 -8 16 -10 -15 -24 -37
-15 -8 3 -14 1 -12 -5 1 -6 -25 -21 -58 -33 -33 -13 -72 -29 -87 -36 -32 -15
-58 -1 -58 32 0 10 -9 35 -19 56 -10 20 -40 111 -65 202 -101 360 -111 380
-309 586 -48 50 -112 111 -142 135 -46 36 -55 49 -55 75 0 37 -33 88 -104 164
-85 89 -91 102 -88 189 3 69 0 83 -31 147 -19 39 -48 81 -63 94 -27 21 -36 22
-117 17 l-88 -6 -20 47 c-64 153 -113 218 -185 248 -50 21 -173 18 -252 -7
-172 -53 -283 -93 -354 -129 l-77 -39 -11 37 c-14 50 -12 118 5 307 8 88 15
195 15 238 0 52 4 76 10 72 7 -4 9 2 6 17 -3 12 -8 41 -11 63 -4 21 -14 53
-22 69 -13 26 -13 30 0 38 13 7 13 13 -4 48 -10 21 -19 44 -19 50 0 6 -10 21
-23 33 -26 24 -39 52 -29 61 10 10 9 45 -1 43 -5 -1 -11 8 -13 20 -5 29 21 43
78 43 24 0 59 4 79 9 l37 8 6 -121 c4 -66 7 -155 8 -196 1 -41 4 -79 7 -85 3
-5 8 100 11 235 4 199 7 240 17 220 11 -24 12 -23 14 20 1 31 3 36 6 18 5 -32
10 -34 42 -11 13 9 35 16 49 17 16 1 26 7 28 19 5 33 46 65 87 66 l37 1 0 -52z
m-1127 25 c-7 -2 -19 -2 -25 0 -7 3 -2 5 12 5 14 0 19 -2 13 -5z m-213 -13 c0
-5 -2 -10 -4 -10 -3 0 -8 5 -11 10 -3 6 -1 10 4 10 6 0 11 -4 11 -10z m530
-50 c0 -5 -9 -6 -20 -3 -11 3 -17 9 -15 14 7 10 35 1 35 -11z m37 14 c-3 -3
-12 -4 -19 -1 -8 3 -5 6 6 6 11 1 17 -2 13 -5z m213 -124 c0 -5 -8 -10 -17
-10 -15 0 -16 2 -3 10 19 12 20 12 20 0z m27 -27 c-4 -3 -1 -16 7 -28 14 -21
13 -22 -11 -22 -15 0 -20 2 -13 7 7 4 9 16 5 29 -4 14 -2 21 6 21 7 0 9 -3 6
-7z m-1478 -145 c-2 -2 -24 -21 -49 -43 l-45 -40 44 47 c25 26 47 45 50 43 2
-3 2 -6 0 -7z m269 -731 c10 -12 9 -16 -4 -21 -9 -3 -20 -4 -25 0 -5 3 -9 0
-9 -6 0 -7 -8 -9 -19 -5 -11 3 -22 1 -26 -5 -3 -6 -11 -7 -17 -4 -7 5 -9 -2
-6 -19 4 -18 -1 -32 -15 -44 -29 -26 -53 -86 -77 -191 -11 -51 -26 -102 -33
-113 -10 -18 -8 -23 16 -45 l29 -25 17 23 c10 13 21 30 24 38 3 8 6 -2 6 -22
1 -21 6 -38 12 -38 5 0 8 4 5 8 -8 13 29 84 62 120 47 49 62 43 62 -25 0 -97
16 -50 19 55 1 20 6 32 15 32 8 0 17 7 20 16 3 8 2 12 -4 9 -6 -3 -15 -3 -21
1 -8 4 -7 9 2 15 10 6 4 8 -16 8 -16 0 -24 -3 -17 -6 24 -9 12 -26 -15 -20
-32 6 -60 -14 -107 -76 -16 -21 -31 -36 -33 -34 -8 8 34 104 64 148 22 31 49
54 90 74 32 16 60 33 61 37 2 4 10 8 18 8 8 0 14 5 14 10 0 6 -6 10 -13 10 -7
0 -28 13 -47 30 l-33 30 52 -6 c57 -5 98 -18 121 -39 27 -23 79 -29 100 -10
17 16 21 16 35 2 8 -9 15 -22 15 -30 0 -7 3 -17 8 -21 4 -4 7 -12 7 -17 0 -5
3 -9 8 -9 4 0 7 3 6 6 0 4 5 11 13 15 10 6 14 -2 18 -34 8 -68 24 -48 32 39 7
89 34 156 69 175 27 14 80 4 101 -20 15 -18 14 -19 -26 -15 -32 3 -47 0 -58
-13 -24 -28 -40 -89 -39 -149 0 -30 -4 -54 -8 -54 -5 0 -7 9 -4 20 3 11 0 20
-6 20 -6 0 -11 -6 -11 -14 0 -8 -3 -22 -7 -31 -5 -14 -2 -16 14 -11 13 4 26
-1 38 -14 10 -11 28 -20 41 -20 22 0 23 -1 10 -37 -7 -21 -11 -44 -9 -51 3 -7
2 -25 -2 -39 -5 -21 -8 -24 -16 -12 -7 12 -9 11 -9 -3 0 -34 10 -45 41 -40 20
3 33 12 39 26 4 13 20 30 34 39 14 10 33 32 42 50 16 29 18 30 25 12 8 -21 12
-9 10 30 -1 20 -1 20 8 0 4 -11 5 -33 1 -50 -19 -78 -32 -115 -41 -115 -5 0
-13 -8 -16 -17 -13 -32 -47 -63 -70 -63 -13 0 -23 -4 -23 -10 0 -5 -7 -10 -16
-10 -13 0 -12 -6 7 -36 32 -52 40 -183 14 -231 -10 -18 -22 -33 -27 -33 -4 0
-8 -6 -8 -12 0 -7 -21 -49 -46 -93 -25 -44 -48 -93 -50 -110 -10 -67 -118
-122 -185 -95 -27 12 -133 142 -134 165 0 5 -7 10 -15 11 -8 1 -22 2 -31 2
-23 3 -42 48 -29 72 15 28 74 60 111 60 28 1 31 3 17 11 -25 14 -57 3 -107
-37 -54 -42 -88 -45 -101 -6 -15 42 -25 56 -50 68 l-22 12 23 7 c23 8 39 22
39 38 0 4 -15 7 -34 5 -19 -1 -34 -6 -33 -11 3 -13 -63 -49 -78 -43 -10 4 -7
23 12 83 13 43 27 102 30 130 6 53 6 53 -52 119 l-58 66 -8 92 c-4 50 -13 159
-19 242 l-13 150 25 27 c14 15 30 27 35 27 5 0 24 16 43 35 19 19 42 35 51 35
10 0 21 5 24 11 4 6 12 8 19 6 6 -3 25 1 41 7 l30 12 20 -112 c11 -61 26 -118
33 -127z m-504 217 c3 -8 2 -12 -4 -9 -6 3 -10 10 -10 16 0 14 7 11 14 -7z
m1804 -110 c-17 -150 -17 -284 1 -318 14 -26 13 -28 -15 -51 -16 -13 -34 -24
-41 -25 -6 0 -24 -11 -40 -24 -15 -12 -35 -21 -43 -18 -8 3 -12 1 -8 -3 8 -8
-48 -65 -63 -65 -4 0 -9 11 -11 25 -6 32 17 52 59 52 31 0 73 26 73 45 0 4
-13 8 -29 8 -17 0 -33 5 -36 10 -3 6 3 10 14 10 12 0 21 4 21 8 0 4 16 14 36
21 29 10 33 15 23 27 -9 11 -9 18 -1 26 7 7 12 46 13 93 0 78 7 131 28 228 11
50 20 71 27 64 2 -2 -2 -53 -8 -113z m-661 -136 c31 -34 55 -88 50 -109 -3
-11 -2 -17 3 -14 14 9 18 -59 4 -79 -12 -17 -13 -15 -11 22 2 30 0 38 -9 31
-9 -7 -14 -5 -18 8 -6 21 -19 95 -19 103 2 13 -19 40 -26 35 -5 -3 -11 2 -15
10 -8 23 18 18 41 -7z m-637 -24 c0 -2 -12 -4 -26 -4 -14 0 -23 4 -20 9 6 8
46 4 46 -5z m1998 -40 c33 -9 27 -19 -11 -18 -52 2 -59 3 -52 14 7 11 29 13
63 4z m-1208 -175 c1 -24 -2 -56 -5 -71 -6 -22 -4 -28 8 -28 20 0 36 28 31 57
-2 12 0 32 6 45 9 23 9 23 9 -4 1 -14 4 -33 7 -42 9 -23 56 -20 83 5 12 12 25
18 28 15 4 -3 -3 -14 -14 -24 -21 -17 -21 -18 -2 -57 23 -47 23 -44 -1 -38
-17 4 -20 0 -20 -25 0 -17 5 -34 10 -37 6 -3 10 -1 10 4 0 6 8 11 18 11 15 1
15 2 -2 15 -18 14 -18 15 -2 15 19 0 46 -22 46 -38 0 -14 -159 -167 -173 -167
-7 0 -12 -7 -12 -15 -1 -25 -13 -38 -45 -42 -24 -4 -27 -2 -18 9 6 7 8 16 4
20 -11 11 -25 -11 -28 -44 -1 -17 -6 -29 -10 -27 -4 3 -6 -9 -4 -25 2 -18 -1
-29 -8 -28 -6 1 -10 -4 -8 -11 1 -8 -2 -11 -7 -7 -6 3 -13 22 -16 43 -4 20 -9
46 -12 57 -6 20 -5 20 16 1 16 -15 21 -16 22 -5 1 8 2 23 3 34 0 11 -1 22 -4
25 -3 3 -13 20 -23 37 l-18 33 30 32 c16 17 40 54 52 82 13 28 27 54 32 57 4
3 3 17 -2 31 -5 14 -8 28 -5 31 2 2 5 37 5 78 1 79 17 77 19 -2z m320 -3 c0
-3 -4 -8 -10 -11 -5 -3 -10 -1 -10 4 0 6 5 11 10 11 6 0 10 -2 10 -4z m40 -6
c0 -5 -4 -10 -9 -10 -6 0 -13 5 -16 10 -3 6 1 10 9 10 9 0 16 -4 16 -10z
m-1240 -67 c-24 -27 -45 -50 -47 -52 -2 -2 -3 0 -3 5 0 13 81 106 88 100 3 -3
-15 -27 -38 -53z m1160 -63 c0 -5 -4 -10 -10 -10 -5 0 -10 5 -10 10 0 6 5 10
10 10 6 0 10 -4 10 -10z m-33 -16 c2 -5 -6 -10 -17 -10 -20 0 -25 7 -13 20 9
8 26 3 30 -10z m2563 -51 c0 -7 -4 -13 -10 -13 -5 0 -10 12 -10 28 0 21 2 24
10 12 5 -8 10 -21 10 -27z m-2940 -144 c0 -6 -4 -7 -10 -4 -5 3 -10 11 -10 16
0 6 5 7 10 4 6 -3 10 -11 10 -16z m3 -261 c-5 -9 -33 -11 -33 -2 0 3 5 15 12
27 11 21 11 21 18 2 4 -11 6 -23 3 -27z m45 -52 c-53 -50 -78 -84 -124 -172
-80 -153 -98 -182 -102 -163 -7 36 67 190 120 253 45 53 152 146 168 145 3 0
-25 -28 -62 -63z m3057 54 c3 -5 -1 -10 -9 -10 -9 0 -16 5 -16 10 0 6 4 10 9
10 6 0 13 -4 16 -10z m-8265 -120 c0 -13 -20 -13 -40 0 -12 8 -9 10 13 10 15
0 27 -4 27 -10z m5169 -253 c-83 -61 -159 -125 -215 -182 -38 -40 -86 -81
-105 -91 -25 -13 -29 -19 -17 -22 21 -4 14 -26 -22 -68 -42 -49 -108 -174
-140 -269 -17 -47 -39 -143 -49 -213 -22 -144 -41 -210 -79 -266 l-27 -40 -3
33 c-5 53 26 241 63 375 47 172 150 378 204 406 20 10 29 19 21 20 -9 0 -21
-5 -28 -12 -16 -16 -15 -3 2 31 23 44 138 145 254 224 109 73 134 87 141 81 2
-2 2 -5 0 -7z m-5249 -33 c0 -26 -48 -84 -69 -84 -6 0 -11 -4 -11 -9 0 -5 -11
-12 -24 -15 -13 -3 -31 -9 -40 -12 -12 -4 -16 0 -16 15 0 18 6 21 40 21 22 0
40 3 40 6 0 3 -14 20 -32 37 l-32 32 44 3 c23 2 49 10 57 18 23 22 43 17 43
-12z m176 -119 l29 -15 -28 0 c-18 0 -26 4 -21 11 4 8 -1 9 -16 4 -15 -5 -20
-4 -16 4 9 15 18 14 52 -4z m-49 -21 c-3 -3 -12 -4 -19 -1 -8 3 -5 6 6 6 11 1
17 -2 13 -5z m7443 -46 c6 -24 37 -125 68 -226 l57 -183 33 6 c18 3 40 9 47
11 14 6 49 -60 42 -79 -3 -10 -132 -56 -158 -57 -9 0 -19 10 -22 23 -7 32 -71
243 -120 391 -40 124 -41 129 -22 142 10 8 29 14 42 14 18 0 24 -8 33 -42z
m-5519 15 c11 -11 14 -321 4 -332 -3 -2 -5 63 -5 146 0 122 -3 153 -15 163
-15 13 -91 0 -363 -61 -89 -20 -122 -23 -122 -11 0 4 69 22 153 39 83 18 188
41 232 51 89 20 100 21 116 5z m-1991 -25 c0 -21 -3 -29 -10 -22 -5 5 -7 19
-4 32 9 31 14 27 14 -10z m7293 -51 c27 -46 68 -123 183 -343 78 -150 79 -160
23 -166 -20 -3 -28 5 -49 50 -23 50 -27 54 -55 49 -16 -3 -43 -10 -59 -16 -29
-11 -29 -12 -22 -76 6 -57 4 -65 -13 -75 -27 -14 -61 -13 -61 3 -1 16 -27 298
-39 417 -16 152 -15 179 12 190 41 16 55 11 80 -33z m-5333 20 c0 -8 -6 -14
-12 -14 -7 0 -42 -3 -78 -6 -70 -7 -69 -3 7 17 65 18 83 19 83 3z m-1943 -79
c-2 -13 -4 -3 -4 22 0 25 2 35 4 23 2 -13 2 -33 0 -45z m1459 35 c-4 -5 -11
-8 -14 -8 -4 0 -13 -4 -20 -9 -7 -4 -16 -5 -19 -2 -3 3 -11 2 -17 -3 -6 -5
-83 -23 -171 -40 -88 -18 -173 -36 -190 -41 -16 -5 -55 -13 -85 -19 -109 -21
-296 -62 -324 -71 -32 -10 -42 -7 -32 9 10 15 54 25 368 86 156 31 328 66 383
79 111 26 132 30 121 19z m5560 -30 c8 -34 73 -247 125 -406 22 -64 39 -124
39 -132 0 -8 -14 -22 -31 -30 -38 -20 -42 -17 -126 93 -68 90 -168 196 -158
167 4 -11 14 -40 21 -65 7 -25 28 -91 45 -148 34 -113 33 -123 -21 -125 -27
-2 -34 3 -41 23 -43 141 -116 373 -139 447 -17 50 -30 94 -30 97 0 3 18 10 41
16 50 14 51 13 160 -125 107 -136 128 -159 136 -152 3 4 -1 21 -10 39 -8 18
-34 93 -58 167 -42 129 -43 134 -24 147 32 24 64 18 71 -13z m-5083 -140 c-1
-37 -3 -78 -3 -90 0 -18 -6 -23 -28 -23 -21 0 -28 5 -29 22 -1 12 -12 30 -25
40 -15 12 -17 16 -5 12 10 -4 17 -1 17 5 0 18 -47 61 -65 61 -9 0 -14 4 -10 9
3 5 20 8 37 6 39 -5 58 9 58 46 0 22 4 27 20 24 15 -3 20 2 21 18 1 12 5 3 8
-20 4 -23 6 -72 4 -110z m-70 120 c-7 -2 -19 -2 -25 0 -7 3 -2 5 12 5 14 0 19
-2 13 -5z m-1978 -53 c-3 -5 -10 -10 -16 -10 -5 0 -9 5 -9 10 0 6 7 10 16 10
8 0 12 -4 9 -10z m3912 4 c-3 -3 -12 -4 -19 -1 -8 3 -5 6 6 6 11 1 17 -2 13
-5z m384 -50 c58 -37 260 -183 282 -203 9 -9 -45 -145 -67 -170 -9 -10 -16
-31 -16 -47 0 -16 -4 -34 -8 -41 -13 -20 -61 -33 -122 -33 -64 0 -93 7 -84 21
3 5 -2 9 -11 9 -9 0 -13 -4 -10 -10 10 -16 -11 -12 -25 5 -7 8 -20 15 -29 15
-14 0 -14 2 -1 10 12 8 9 10 -14 10 -21 0 -27 4 -22 15 3 8 2 15 -2 15 -5 0
-18 9 -30 21 -26 23 -59 27 -154 15 l-67 -8 -7 28 c-7 26 -8 26 -15 7 -5 -14
-15 -20 -31 -18 -13 1 -29 3 -35 4 -8 0 -13 15 -13 35 0 36 12 46 55 46 13 0
25 4 27 9 2 5 22 12 45 16 35 5 42 4 46 -12 4 -15 5 -15 6 3 1 19 9 22 69 27
38 3 85 13 105 23 40 19 51 40 16 29 -21 -7 -21 -5 -17 53 3 51 2 58 -9 44 -7
-9 -13 -23 -13 -29 0 -7 -6 -13 -14 -13 -18 0 -33 20 -38 49 -4 31 -24 38 -31
12 -3 -13 -17 -22 -42 -27 -30 -5 -40 -3 -57 15 -12 14 -29 21 -45 19 -21 -2
-29 -13 -45 -57 -11 -29 -29 -62 -39 -72 -15 -15 -17 -24 -9 -39 15 -28 12
-40 -9 -40 -14 0 -20 -10 -25 -37 -10 -64 -7 -83 12 -84 10 0 12 -2 4 -6 -7
-3 -23 2 -36 10 -21 14 -24 27 -30 106 -7 80 -5 94 12 118 10 16 35 58 56 95
20 37 42 71 49 75 16 10 327 42 351 35 11 -2 50 -24 87 -48z m-522 -85 l-61
-114 6 -77 c4 -43 9 -84 12 -92 4 -10 -10 -19 -52 -31 -63 -18 -315 -103 -649
-220 -121 -42 -314 -108 -430 -147 -115 -39 -218 -75 -228 -80 -12 -6 -23 -6
-32 2 -11 9 -29 7 -77 -9 -74 -25 -82 -29 -96 -57 -6 -12 -29 -26 -54 -33 -50
-14 -167 -56 -219 -77 -31 -14 -37 -22 -48 -67 -6 -29 -13 -61 -14 -72 -2 -22
9 -28 203 -119 58 -27 170 -81 250 -119 80 -38 206 -98 280 -132 74 -35 215
-101 312 -149 201 -98 219 -101 325 -59 l67 27 25 -34 c15 -18 48 -57 75 -87
l49 -53 -39 -16 c-22 -9 -133 -56 -249 -106 -274 -118 -392 -168 -490 -208
-44 -19 -84 -37 -90 -42 -5 -4 -15 -8 -23 -8 -7 0 -32 -8 -55 -19 -57 -25
-426 -168 -510 -197 -37 -13 -65 -19 -62 -13 8 12 5 12 -45 -6 -24 -8 -45 -13
-47 -11 -3 2 5 7 16 11 13 4 18 11 14 22 -4 10 -2 14 4 10 6 -4 19 0 27 9 9 8
16 11 16 6 0 -13 47 -21 47 -8 1 20 14 79 19 88 3 4 12 8 20 8 8 0 14 5 14 11
0 5 -5 7 -12 3 -6 -4 -16 0 -22 9 -7 8 -23 17 -36 19 -27 3 -70 59 -70 91 0
14 5 18 20 14 11 -3 20 -1 20 5 0 10 -41 7 -70 -6 -11 -4 -16 0 -17 14 -2 19
13 26 47 21 8 -1 32 -2 52 -1 29 1 36 -3 32 -14 -3 -8 -1 -17 5 -21 6 -3 11
-1 11 4 0 14 47 14 55 1 3 -6 -1 -7 -10 -4 -8 4 -21 2 -28 -4 -6 -5 -19 -11
-28 -13 -14 -4 -14 -6 3 -23 18 -19 18 -19 18 2 0 17 5 21 25 20 16 -2 21 -6
15 -12 -18 -18 -10 -26 28 -26 24 0 32 3 24 9 -24 15 15 22 61 11 23 -5 51 -7
62 -5 11 2 24 4 29 4 5 1 6 4 3 8 -8 8 3 14 163 96 69 35 148 77 175 92 28 15
67 37 88 48 45 23 67 52 67 87 0 27 -25 70 -40 70 -5 0 -123 55 -262 123 -139
68 -282 137 -318 153 -35 16 -98 46 -139 67 -93 48 -129 49 -216 8 l-68 -32
-36 34 c-69 65 -136 92 -281 112 -69 9 -74 10 -88 19 -7 4 -19 5 -27 3 -7 -3
-16 1 -19 9 -4 9 1 14 14 14 23 0 26 10 8 28 -9 9 -9 12 0 12 7 0 12 5 12 10
0 6 -9 10 -20 10 -11 0 -20 5 -20 10 0 6 -10 10 -22 10 l-21 0 23 25 c24 25
32 69 30 158 -1 29 5 58 14 73 20 29 21 64 2 64 -9 0 -12 7 -9 20 6 23 19 26
26 8 3 -7 6 -1 6 14 1 22 -3 26 -16 22 -15 -5 -16 -4 -3 5 8 6 23 11 33 11 9
0 17 5 17 10 0 6 12 10 26 10 14 0 23 4 20 9 -4 5 4 7 16 3 16 -4 19 -2 13 8
-6 9 -4 11 4 5 7 -4 31 1 54 10 73 30 81 34 107 41 14 5 29 7 34 5 5 -1 12 2
15 7 3 4 31 15 61 24 122 35 456 141 473 149 14 8 17 25 17 114 l0 103 33 11
c17 5 88 22 157 36 69 14 440 99 825 189 385 89 701 162 702 161 2 -1 -25 -53
-58 -116z m2966 91 c4 -6 15 -38 25 -73 10 -34 38 -127 63 -207 25 -80 55
-178 65 -218 l20 -72 -28 -20 c-49 -35 -65 -27 -79 38 -7 31 -28 102 -46 157
-64 193 -115 354 -115 365 0 10 54 38 77 39 6 1 15 -4 18 -9z m-159 -77 c-7
-26 -54 -214 -60 -245 -6 -24 8 -42 124 -161 71 -74 130 -139 130 -144 0 -11
-36 -28 -81 -38 -23 -6 -36 5 -109 85 -45 50 -88 89 -94 87 -25 -8 -29 -92 -7
-171 12 -42 21 -78 21 -81 0 -9 -59 -35 -79 -35 -15 0 -22 9 -27 38 -4 20 -17
66 -30 102 -12 36 -34 106 -48 157 -14 50 -39 132 -56 181 -16 50 -30 94 -30
100 0 13 90 46 100 36 4 -5 18 -47 29 -93 21 -81 39 -127 46 -119 2 2 13 53
25 113 11 61 23 122 26 138 4 20 17 32 47 47 54 25 80 26 73 3z m-2476 -83
c35 -44 35 -44 4 -54 -17 -5 -23 -1 -28 16 l-6 23 -18 -21 c-13 -17 -24 -21
-49 -17 -31 5 -33 8 -33 43 0 41 7 47 67 49 25 1 37 -7 63 -39z m4347 -5 c2
-6 -19 -9 -53 -6 -32 1 -52 6 -46 10 16 10 95 7 99 -4z m38 5 c3 -5 2 -10 -4
-10 -5 0 -13 5 -16 10 -3 6 -2 10 4 10 5 0 13 -4 16 -10z m-3810 -40 c3 -5 -1
-10 -9 -10 -9 0 -16 5 -16 10 0 6 4 10 9 10 6 0 13 -4 16 -10z m-2588 -112
c-3 -8 -6 -5 -6 6 -1 11 2 17 5 13 3 -3 4 -12 1 -19z m1636 -109 c-6 -6 -9
-18 -6 -25 7 -18 32 -18 39 0 3 8 13 12 26 8 21 -5 21 -5 -2 -24 -18 -15 -33
-17 -74 -13 -28 3 -53 10 -56 15 -3 4 -16 10 -30 13 l-25 4 27 2 c15 0 30 -3
33 -9 9 -15 45 -12 45 4 0 8 -3 16 -7 19 -5 2 -2 2 5 1 6 -2 12 1 12 6 0 6 5
10 12 10 9 0 9 -3 1 -11z m251 -9 c38 -14 32 -27 -15 -35 -48 -8 -55 -4 -39
24 12 24 18 25 54 11z m71 -10 c3 -5 2 -10 -4 -10 -5 0 -13 5 -16 10 -3 6 -2
10 4 10 5 0 13 -4 16 -10z m-457 -15 c-7 -8 -180 -65 -192 -64 -11 1 171 67
188 68 5 1 7 -1 4 -4z m542 -36 c0 -10 -4 -20 -9 -23 -5 -4 -8 5 -6 19 1 14
-2 25 -6 25 -5 0 -9 5 -9 11 0 8 5 8 15 -1 8 -7 15 -21 15 -31z m-50 2 c0 -37
-36 -49 -82 -25 l-31 16 39 19 c57 27 74 25 74 -10z m173 -37 c73 -43 82 -46
130 -41 29 3 59 7 67 9 11 2 16 -7 18 -32 2 -24 12 -42 30 -57 33 -28 21 -29
-55 -4 -55 18 -259 91 -294 106 -14 5 -15 11 -6 36 6 16 16 29 22 29 6 0 46
-21 88 -46z m-308 6 c-6 -9 -55 0 -55 9 0 16 13 19 36 9 13 -6 21 -14 19 -18z
m-244 2 c-14 -7 -33 -11 -43 -9 -11 3 -15 0 -11 -9 6 -17 -10 -18 -53 -2 -42
15 -70 -3 -53 -33 5 -10 7 -19 4 -19 -11 0 -16 -1 -42 -15 -32 -17 -49 -10
-28 12 14 14 14 16 -1 28 -15 11 -16 12 0 18 9 4 16 2 16 -2 0 -5 7 -12 16
-15 8 -3 13 -2 10 3 -10 15 20 43 54 50 19 4 62 7 95 7 57 -1 59 -2 36 -14z
m765 3 c-11 -8 -22 -12 -25 -9 -6 6 19 24 34 24 6 -1 1 -7 -9 -15z m-617 -57
c-4 -29 -8 -62 -8 -72 -1 -11 -4 -17 -7 -13 -9 8 6 148 15 142 4 -2 4 -28 0
-57z m482 42 c5 0 9 -4 9 -9 0 -12 -38 -2 -47 12 -4 7 0 8 11 4 10 -4 22 -7
27 -7z m59 -10 c12 -8 9 -10 -12 -10 -16 0 -28 5 -28 10 0 13 20 13 40 0z
m-570 -9 c0 -18 -17 -20 -36 -6 -18 14 -18 14 9 15 15 0 27 -4 27 -9z m87 3
c29 -8 20 -24 -13 -24 -15 0 -24 6 -24 15 0 17 4 18 37 9z m114 -4 c5 0 9 -4
9 -10 0 -5 -19 -10 -42 -10 -40 1 -42 2 -23 16 11 8 26 12 33 9 8 -3 18 -5 23
-5z m-714 -6 c-3 -3 -12 -4 -19 -1 -8 3 -5 6 6 6 11 1 17 -2 13 -5z m-47 -14
c-8 -5 -19 -10 -25 -10 -5 0 -3 5 5 10 8 5 20 10 25 10 6 0 3 -5 -5 -10z m180
-10 c0 -5 -6 -10 -14 -10 -8 0 -18 5 -21 10 -3 6 3 10 14 10 12 0 21 -4 21
-10z m760 -5 c33 -19 21 -19 -21 0 -19 8 -27 14 -19 14 8 0 26 -6 40 -14z
m-995 -5 c-27 -12 -43 -12 -25 0 8 5 22 9 30 9 10 0 8 -3 -5 -9z m599 -15 c-7
-17 -20 -20 -28 -6 -7 10 3 21 20 21 8 0 11 -6 8 -15z m113 1 c-3 -6 -9 -10
-15 -9 -6 2 -9 -4 -6 -12 4 -9 -1 -13 -15 -12 -14 1 -20 6 -16 15 3 7 5 17 5
20 0 4 11 8 25 8 16 1 24 -3 22 -10z m-190 -32 c83 -33 87 -36 79 -68 l-6 -25
-75 31 -75 31 -61 -22 c-109 -40 -132 -52 -122 -62 5 -5 45 -25 88 -44 l78
-34 51 20 c28 11 64 27 80 35 20 9 33 11 39 5 14 -14 36 18 37 53 0 18 4 27
13 24 6 -3 36 -13 65 -22 28 -10 52 -21 52 -25 0 -5 -33 -22 -72 -39 -147 -62
-271 -112 -280 -112 -5 0 -28 15 -51 34 -23 19 -64 40 -90 47 -34 8 -56 22
-78 48 -26 32 -28 37 -12 44 78 33 259 106 265 107 4 0 38 -12 75 -26z m489
-21 c-3 -7 -1 -13 5 -13 6 0 7 -5 3 -12 -6 -9 -9 -9 -12 0 -2 6 -20 14 -40 18
-20 4 -41 10 -47 14 -5 4 -19 10 -30 12 -19 5 -18 6 4 15 32 13 124 -14 117
-34z m85 32 c19 -8 29 -14 23 -15 -7 0 -27 7 -45 15 -19 8 -29 14 -23 15 7 0
27 -7 45 -15z m-986 -6 c4 -5 17 -9 28 -8 47 3 51 0 33 -20 -10 -11 -15 -25
-10 -32 4 -7 -4 -6 -22 3 -16 9 -48 24 -72 34 -29 12 -39 20 -30 26 19 11 66
10 73 -3z m641 -1 c-4 7 -1 12 8 12 10 0 16 -9 16 -25 0 -29 -29 -35 -50 -10
-17 20 -3 40 18 23 12 -10 14 -10 8 0z m-431 -8 c-11 -5 -31 -8 -45 -8 -23 0
-22 1 5 8 42 11 65 11 40 0z m4021 -28 c-16 -15 -25 -20 -21 -12 13 25 38 50
44 45 3 -3 -8 -18 -23 -33z m-4416 15 c0 -2 -13 -13 -30 -25 -35 -26 -40 -22
-8 8 19 18 38 26 38 17z m145 -26 c46 -21 75 -46 125 -104 36 -41 71 -78 79
-82 10 -4 8 1 -4 15 -10 11 -16 23 -13 26 10 9 72 -22 98 -49 27 -28 81 -127
75 -138 -3 -3 -27 -9 -55 -12 -69 -8 -130 -37 -186 -89 -80 -73 -134 -176
-134 -257 0 -28 -3 -31 -32 -31 -29 0 -79 19 -53 20 6 0 4 4 -4 9 -9 6 -6 9
13 10 64 4 64 4 42 27 -19 19 -32 18 -16 -1 10 -12 9 -15 -5 -15 -9 0 -19 9
-22 20 -3 11 -12 20 -20 20 -8 0 -12 -4 -9 -9 3 -4 -6 -6 -19 -3 -26 4 -35 22
-12 23 23 1 -38 21 -71 23 -41 2 -50 -9 -26 -35 25 -28 12 -23 -32 12 -32 26
-34 30 -14 24 22 -7 23 -6 11 8 -7 9 -22 15 -33 14 -12 -1 -23 4 -25 11 -3 8
2 10 14 6 17 -5 17 -5 1 6 -10 6 -18 15 -18 20 0 14 34 12 50 -2 8 -7 6 -3 -5
10 -11 13 -25 20 -34 17 -8 -3 -12 -3 -8 1 8 8 -11 34 -24 34 -5 0 -6 -6 -3
-13 3 -8 -1 -19 -9 -25 -12 -10 -14 -7 -10 15 4 24 2 25 -7 11 -10 -17 -13
-17 -35 -2 -14 9 -22 21 -18 28 4 6 -2 4 -12 -4 -10 -8 -16 -10 -12 -4 4 7 -3
14 -18 16 -16 3 -25 1 -25 -7 0 -7 -11 -16 -25 -19 -14 -4 -24 -10 -24 -14 3
-19 -3 -22 -22 -12 -16 9 -19 18 -15 45 3 19 14 49 24 67 18 31 22 33 89 39
72 7 140 24 158 40 5 5 0 9 -13 9 -12 0 -31 9 -42 20 -12 12 -25 18 -29 16 -9
-6 -99 22 -117 36 -8 6 -18 -4 -30 -31 -11 -22 -22 -41 -26 -41 -12 0 -9 13
11 45 10 17 23 47 30 67 19 59 41 72 108 64 32 -3 90 -12 128 -20 39 -7 72
-11 74 -9 10 7 -9 14 -70 25 -35 6 -66 12 -68 14 -2 2 10 24 25 49 33 52 48
55 124 25 60 -24 61 -24 54 -6 -7 18 61 76 89 76 12 0 49 -13 82 -29z m1135 9
c22 -19 22 -20 3 -20 -22 0 -47 23 -36 33 8 9 7 10 33 -13z m156 -40 c-9 -23
-14 -45 -11 -50 6 -10 50 4 148 49 92 42 95 39 12 -10 -39 -22 -84 -51 -102
-65 -17 -13 -36 -24 -41 -24 -21 0 -61 -62 -71 -111 -17 -77 -44 -117 -133
-199 -62 -57 -86 -87 -107 -134 -54 -120 -51 -117 -44 -46 11 119 25 145 133
250 l98 95 6 76 c3 42 10 89 16 105 10 27 100 117 109 108 2 -2 -4 -22 -13
-44z m-739 8 c-3 -7 -5 -2 -5 12 0 14 2 19 5 13 2 -7 2 -19 0 -25z m210 15 c6
-17 -35 -12 -42 5 -3 9 2 12 17 10 12 -2 23 -8 25 -15z m80 -5 c41 -10 44 -12
28 -24 -15 -11 -24 -10 -56 7 -61 31 -51 37 28 17z m273 -8 c0 -4 -11 -10 -25
-12 -14 -3 -25 -1 -25 3 0 5 5 9 11 9 5 0 8 4 5 9 -4 5 3 7 14 4 11 -3 20 -9
20 -13z m78 -30 c-18 -22 -38 -40 -45 -40 -18 0 -63 22 -63 31 0 9 98 48 123
48 15 1 12 -6 -15 -39z m-5048 16 c0 -2 -9 -6 -20 -9 -11 -3 -18 -1 -14 4 5 9
34 13 34 5z m4670 -42 c0 -8 -8 -14 -17 -13 -11 0 -13 3 -6 6 10 3 10 10 1 26
-10 20 -10 21 5 8 10 -7 17 -20 17 -27z m3410 9 c0 -14 -3 -23 -7 -20 -3 4
-12 2 -20 -4 -9 -9 -13 -8 -13 0 0 6 4 11 9 11 5 0 11 9 14 20 7 28 17 25 17
-7z m-3330 -3 c0 -5 -7 -10 -15 -10 -8 0 -15 5 -15 10 0 6 7 10 15 10 8 0 15
-4 15 -10z m210 -30 c49 -25 51 -32 8 -23 -41 7 -68 21 -68 33 0 15 17 12 60
-10z m-1890 -60 c0 -16 -59 -38 -83 -32 -16 4 -11 9 24 23 52 21 59 22 59 9z
m1758 -22 c6 -6 12 -18 12 -27 -1 -14 -2 -14 -13 -1 -7 9 -23 24 -37 34 l-25
18 25 -7 c14 -4 31 -12 38 -17z m3184 -20 c-9 -9 -12 -7 -12 12 0 19 3 21 12
12 9 -9 9 -15 0 -24z m-5043 -10 c39 -18 71 -36 71 -40 0 -4 -24 -15 -54 -24
l-53 -17 -72 33 c-39 18 -71 36 -71 39 0 7 77 39 96 40 6 1 44 -13 83 -31z
m1411 -19 l0 -30 -30 18 -30 17 23 13 c33 18 37 16 37 -18z m-2613 15 c-3 -3
-12 -4 -19 -1 -8 3 -5 6 6 6 11 1 17 -2 13 -5z m3233 -23 c0 -14 -24 -28 -102
-61 -57 -23 -125 -53 -152 -67 -46 -23 -96 -26 -96 -4 0 4 30 20 68 34 37 15
112 47 167 71 55 25 103 45 108 45 4 1 7 -7 7 -18z m3001 5 c13 7 11 -14 -6
-61 -8 -22 -15 -48 -15 -57 0 -10 -4 -18 -8 -18 -5 0 -8 20 -8 44 1 24 6 44
11 43 6 -1 9 14 9 33 -1 19 1 29 3 22 3 -6 9 -10 14 -6z m-6241 -18 c0 -18 -2
-20 -9 -8 -6 8 -7 18 -5 22 9 14 14 9 14 -14z m-40 2 c-20 -13 -43 -13 -35 0
3 6 16 10 28 10 18 0 19 -2 7 -10z m1624 -1 c14 -7 23 -16 20 -20 -3 -5 -13
-5 -22 0 -14 7 -18 5 -18 -9 0 -10 4 -16 9 -13 5 3 4 -4 -2 -15 -12 -23 -41
-20 -41 4 0 13 21 64 26 64 2 0 14 -5 28 -11z m970 2 c14 -5 16 -10 7 -15 -16
-10 -63 2 -56 14 7 12 22 12 49 1z m-1105 -69 c-5 -2 -22 -1 -36 3 -19 4 -23
9 -14 14 7 5 23 3 37 -3 13 -6 19 -13 13 -14z m-440 4 c24 -13 24 -14 3 -25
-11 -6 -33 -11 -47 -11 -14 0 -36 5 -47 11 -21 11 -21 12 3 25 13 7 33 13 44
13 11 0 31 -6 44 -13z m666 4 c4 -6 -8 -10 -30 -10 -22 0 -34 4 -30 10 3 6 17
10 30 10 13 0 27 -4 30 -10z m1008 -4 c23 -18 22 -25 -9 -36 -19 -7 -33 -6
-56 6 -30 16 -31 17 -13 30 24 17 55 17 78 0z m500 -8 c-13 -12 -26 -18 -30
-14 -4 4 1 14 11 22 31 22 43 17 19 -8z m-2353 -38 c12 -8 11 -10 -7 -10 -12
0 -25 5 -28 10 -8 13 15 13 35 0z m2250 2 c0 -5 -26 -19 -57 -32 -32 -13 -73
-34 -92 -47 -19 -13 -40 -23 -47 -23 -7 0 -14 -5 -16 -10 -2 -7 -10 -6 -21 2
-15 11 -3 19 100 65 124 55 133 58 133 45z m-2340 -6 c0 -3 -4 -8 -10 -11 -5
-3 -10 -1 -10 4 0 6 5 11 10 11 6 0 10 -2 10 -4z m147 -12 c2 -5 -14 -15 -34
-22 -61 -21 -83 -25 -83 -14 0 6 10 8 22 4 16 -4 20 -2 16 10 -5 11 0 14 18
10 16 -3 26 1 30 12 7 17 25 17 31 0z m1638 -5 c58 -21 72 -39 31 -39 -29 0
-111 34 -120 49 -11 17 28 13 89 -10z m-1554 -4 c-1 -15 -24 -12 -29 3 -3 9 2
13 12 10 10 -1 17 -7 17 -13z m1772 -49 c18 -7 57 -33 87 -57 l54 -43 -33 -9
c-29 -7 -37 -5 -60 17 -14 14 -47 34 -72 45 -42 19 -55 20 -124 11 -43 -5 -81
-8 -83 -5 -10 10 127 52 176 54 12 1 37 -5 55 -13z m-1729 -2 c23 -9 20 -19
-10 -33 -21 -9 -33 -9 -55 1 l-28 12 27 12 c32 15 45 16 66 8z m288 -10 c34
-18 31 -23 -29 -49 -42 -17 -44 -17 -83 0 -22 10 -40 21 -40 24 0 9 72 39 98
40 13 1 37 -6 54 -15z m188 -65 c17 -17 30 -33 28 -34 -28 -23 -50 -24 -93 -3
-25 12 -45 25 -45 29 0 5 52 31 77 38 1 1 16 -13 33 -30z m-515 -7 c-3 -3 -11
0 -18 7 -9 10 -8 11 6 5 10 -3 15 -9 12 -12z m669 10 c3 -5 -18 -9 -47 -10
-40 0 -46 2 -27 8 34 11 68 12 74 2z m-584 -42 c8 -5 11 -10 5 -10 -5 0 -17 5
-25 10 -8 5 -10 10 -5 10 6 0 17 -5 25 -10z m265 0 c-3 -5 -15 -10 -25 -10
-13 0 -17 -5 -14 -15 4 -8 1 -15 -5 -15 -20 0 -11 30 12 40 30 12 39 12 32 0z
m1649 -16 c13 -5 8 -14 -24 -45 -45 -43 -56 -49 -40 -19 6 11 7 20 3 21 -28 4
-121 -8 -136 -18 -6 -3 -7 -1 -3 6 13 20 70 45 121 52 28 3 53 7 57 8 3 0 14
-2 22 -5z m-1789 -44 c3 -6 -1 -7 -9 -4 -18 7 -21 14 -7 14 6 0 13 -4 16 -10z
m-1281 -21 c-29 -11 -34 -10 -28 5 3 8 13 12 27 8 20 -5 20 -6 1 -13z m1342
-4 c16 -8 22 -15 14 -15 -18 1 -70 29 -54 30 7 0 25 -7 40 -15z m274 -6 c0
-11 -27 -12 -34 0 -3 4 -3 11 0 14 8 8 34 -3 34 -14z m195 1 l29 -19 -38 -16
c-40 -17 -75 -14 -108 9 -17 12 -16 14 14 29 43 22 67 21 103 -3z m-1885 6 c0
-3 -4 -8 -10 -11 -5 -3 -10 -1 -10 4 0 6 5 11 10 11 6 0 10 -2 10 -4z m37 -22
c-3 -3 -12 -4 -19 -1 -8 3 -5 6 6 6 11 1 17 -2 13 -5z m1668 -24 c0 -7 -6 -15
-12 -17 -8 -3 -13 4 -13 17 0 13 5 20 13 18 6 -3 12 -11 12 -18z m313 2 c15
-10 39 -24 55 -32 15 -7 27 -17 27 -22 0 -4 -18 3 -40 17 -22 14 -44 25 -49
25 -5 0 -14 7 -21 15 -17 20 -4 19 28 -3z m-268 -6 c0 -11 -19 -15 -25 -6 -3
5 1 10 9 10 9 0 16 -2 16 -4z m170 -16 c0 -5 -5 -10 -11 -10 -5 0 -7 5 -4 10
3 6 8 10 11 10 2 0 4 -4 4 -10z m33 -21 c-15 -14 -66 -15 -71 0 -3 9 1 11 16
7 11 -4 23 -2 26 3 4 6 14 7 22 4 8 -3 12 -9 7 -14z m-1626 -106 c9 -13 30
-31 47 -40 17 -8 41 -25 54 -36 14 -13 22 -16 22 -8 0 7 29 -22 65 -65 36 -43
65 -82 65 -86 0 -11 -54 -10 -84 2 -14 5 -26 15 -26 22 0 13 -39 44 -52 40 -4
-1 -26 5 -50 14 -24 8 -54 12 -67 9 -23 -6 -24 -5 -9 17 13 19 24 23 62 21 25
-1 46 3 46 8 0 5 -7 9 -15 9 -8 0 -15 4 -15 9 0 4 -30 39 -66 76 -46 47 -64
61 -59 44 l7 -24 -28 25 c-49 42 -50 43 -31 37 9 -4 17 -2 17 3 0 15 99 -50
117 -77z m1648 77 c3 -6 -1 -7 -9 -4 -18 7 -21 14 -7 14 6 0 13 -4 16 -10z
m-290 -18 c-3 -3 -11 0 -18 7 -9 10 -8 11 6 5 10 -3 15 -9 12 -12z m372 -17
c-7 -7 -16 -10 -22 -7 -5 3 -4 7 2 9 7 3 9 12 6 21 -6 15 -4 15 10 4 13 -11
14 -17 4 -27z m108 15 c3 -5 4 -10 1 -10 -2 0 -11 -2 -19 -5 -8 -4 -14 0 -14
10 0 17 22 21 32 5z m-435 -10 c8 -5 11 -10 5 -10 -5 0 -17 5 -25 10 -8 5 -10
10 -5 10 6 0 17 -5 25 -10z m390 0 c0 -5 -8 -10 -17 -10 -15 0 -16 2 -3 10 19
12 20 12 20 0z m-345 -28 c-3 -3 -11 0 -18 7 -9 10 -8 11 6 5 10 -3 15 -9 12
-12z m-1581 -13 c-3 -5 -10 -7 -15 -3 -5 3 -7 10 -3 15 3 5 10 7 15 3 5 -3 7
-10 3 -15z m244 -9 c7 0 12 -6 12 -14 0 -8 5 -18 12 -22 7 -4 8 -3 4 4 -4 7
-1 12 9 12 9 0 13 5 10 10 -3 6 1 10 9 10 8 0 20 -9 26 -19 15 -28 13 -33 -10
-26 -27 9 -26 -4 2 -14 12 -4 17 -10 12 -14 -6 -3 -26 4 -45 15 -19 12 -40 23
-47 24 -19 3 -28 14 -13 14 7 0 9 5 6 10 -4 6 -10 8 -15 5 -4 -3 -10 5 -13 16
-5 19 -4 20 12 5 10 -9 23 -16 29 -16z m1872 -19 c7 -2 -94 -49 -155 -72 -53
-20 -80 -25 -56 -10 12 8 12 12 2 25 -16 19 -53 16 -59 -6 -2 -10 -10 -14 -18
-11 -13 5 -12 8 2 24 21 23 67 25 84 4 18 -21 43 -19 100 10 50 25 66 39 33
29 -15 -5 -15 -4 -4 4 12 9 43 10 71 3z m2168 -31 c8 -13 9 -26 4 -37 -7 -12
-11 -9 -21 17 -13 39 -13 40 -3 40 4 0 13 -9 20 -20z m-5288 -57 c106 -59 117
-68 107 -85 -7 -10 -17 -18 -23 -18 -6 0 -56 24 -110 54 -117 63 -165 74 -220
51 -69 -30 -217 -74 -226 -69 -5 3 -15 -1 -21 -9 -19 -23 -153 -66 -183 -58
-25 6 -25 7 -6 24 11 10 28 19 40 22 11 2 34 11 52 20 17 9 38 14 46 11 8 -3
13 -2 10 3 -4 5 20 17 51 27 32 9 63 20 68 24 8 6 62 24 185 64 8 2 37 5 63 5
42 1 65 -8 167 -66z m2805 29 c-3 -3 -11 0 -18 7 -9 10 -8 11 6 5 10 -3 15 -9
12 -12z m-846 -89 c86 -42 158 -80 161 -83 3 -4 20 -13 38 -21 17 -8 32 -17
32 -20 0 -9 -59 12 -100 37 -21 12 -56 21 -84 22 -53 2 -69 8 -61 23 4 5 -10
9 -30 9 -19 0 -45 6 -56 13 -17 10 -23 10 -26 0 -7 -20 -23 -15 -23 7 0 29
-13 24 -29 -11 -7 -16 -15 -29 -16 -27 -2 2 -1 31 2 66 4 46 10 62 21 62 8 0
85 -35 171 -77z m3386 6 c19 -36 12 -52 -10 -23 -14 18 -21 54 -10 54 2 0 12
-14 20 -31z m-4560 -69 c42 -38 80 -70 84 -70 4 0 14 -12 21 -27 7 -16 15 -23
17 -16 2 7 0 20 -6 30 -5 11 -6 25 -2 31 10 17 41 4 34 -14 -3 -8 0 -14 6 -14
6 0 11 -10 11 -22 1 -29 22 -58 44 -58 21 0 21 -16 0 -24 -15 -6 -15 -8 0 -31
12 -18 13 -25 4 -25 -23 0 -39 16 -32 33 3 10 1 17 -5 17 -21 0 -24 -31 -4
-45 11 -7 28 -32 38 -55 19 -42 40 -38 29 6 -7 28 12 40 25 17 8 -13 10 5 11
70 0 51 4 87 10 87 6 0 10 -20 10 -45 0 -25 4 -45 9 -45 10 0 13 10 26 64 8
38 23 22 27 -29 l3 -40 14 30 c7 17 19 44 27 60 l13 30 -5 -40 c-18 -155 -18
-166 0 -159 9 3 19 18 22 33 3 14 12 42 19 61 8 19 19 52 25 73 11 37 34 57
47 43 4 -3 1 -12 -5 -18 -20 -20 -15 -41 9 -35 31 8 71 -13 66 -35 -3 -11 15
0 51 30 61 52 156 122 165 122 7 0 -14 -54 -42 -115 -50 -104 -69 -153 -75
-190 -13 -73 -13 -74 -59 -72 -37 2 -42 -1 -45 -22 -4 -22 -1 -23 32 -17 20 4
36 5 36 2 0 -14 -13 -36 -22 -36 -5 0 -7 4 -4 8 7 11 -110 -5 -132 -18 -14 -8
-13 -10 8 -11 14 0 45 0 69 1 40 2 43 0 28 -14 -8 -9 -25 -16 -36 -16 -12 0
-21 -5 -21 -11 0 -6 7 -9 15 -6 8 4 17 2 20 -2 3 -5 -2 -12 -11 -15 -9 -4 -14
-13 -10 -21 9 -24 -11 -65 -33 -65 -24 0 -31 18 -19 49 8 22 7 23 -24 17 -17
-3 -39 -13 -49 -22 -18 -16 -93 -23 -106 -10 -4 4 2 15 15 23 32 22 28 28 -18
28 -40 0 -53 -11 -25 -21 8 -4 15 -12 15 -20 0 -20 -60 -18 -90 3 l-25 17 19
-22 c18 -21 18 -21 -7 -27 -34 -9 -47 0 -47 32 0 18 4 24 15 19 27 -10 16 0
-37 35 -50 32 -52 34 -26 37 39 5 45 34 12 67 -14 14 -24 29 -21 32 10 10 66
-8 103 -33 20 -14 39 -23 42 -20 11 11 -61 65 -108 81 -41 14 -50 21 -50 40 0
33 19 35 49 7 42 -39 39 -2 -6 70 l-38 63 -5 -35 c-3 -19 -1 -38 5 -42 7 -5 7
-8 0 -8 -6 0 -16 5 -23 12 -9 9 -12 8 -12 -6 0 -15 -3 -16 -15 -6 -8 7 -15 19
-15 26 0 8 -8 14 -17 15 -12 0 -6 6 15 16 17 9 32 22 32 29 0 7 6 14 13 17 9
4 9 7 0 18 -10 10 -17 10 -38 -1 -14 -8 -23 -20 -21 -27 3 -7 3 -13 1 -13 -5
0 -78 151 -90 185 -18 52 -23 75 -15 75 4 0 43 -31 85 -70z m2 54 c-3 -3 -12
-4 -19 -1 -8 3 -5 6 6 6 11 1 17 -2 13 -5z m98 -27 c49 -12 65 -24 65 -48 0
-16 -4 -17 -26 -9 -28 11 -48 5 -38 -12 4 -6 1 -9 -7 -6 -8 3 -14 18 -14 33
-1 22 -7 31 -28 38 -15 5 -27 13 -27 19 0 6 8 7 18 3 9 -4 35 -12 57 -18z
m-54 -24 c13 -16 12 -17 -3 -4 -10 7 -18 15 -18 17 0 8 8 3 21 -13z m4549 2
c7 -9 8 -15 2 -15 -5 0 -12 7 -16 15 -3 8 -4 15 -2 15 2 0 9 -7 16 -15z
m-4880 -11 c0 -8 -4 -12 -10 -9 -5 3 -10 10 -10 16 0 5 5 9 10 9 6 0 10 -7 10
-16z m-1191 -13 c9 -6 4 -10 -18 -13 -35 -5 -65 7 -35 15 30 8 38 7 53 -2z
m2150 -13 c-15 -17 -145 -22 -155 -7 -4 7 0 9 12 6 11 -3 37 -2 59 3 22 4 53
8 68 9 22 1 25 -2 16 -11z m3898 -10 c-3 -8 -6 -5 -6 6 -1 11 2 17 5 13 3 -3
4 -12 1 -19z m-4768 -34 c40 -42 44 -44 61 -29 17 15 19 14 25 -16 l7 -32 18
22 17 23 17 -43 c10 -24 19 -65 21 -91 5 -67 31 -153 62 -201 20 -32 22 -39 8
-33 -42 16 -64 16 -96 2 l-34 -15 45 5 c25 3 58 0 74 -6 l29 -11 -59 -28 c-62
-29 -153 -55 -161 -47 -3 3 6 19 21 37 35 41 56 82 58 115 2 14 8 29 15 31 7
3 13 10 13 15 0 7 -5 6 -14 -1 -11 -9 -15 -1 -25 46 -13 69 -63 148 -138 222
-57 55 -67 81 -30 81 13 0 39 -18 66 -46z m4826 0 c17 -7 45 -54 45 -76 0 -9
-3 -9 -10 2 -7 12 -10 12 -10 1 0 -7 -14 2 -31 20 -17 18 -26 35 -20 37 6 2 9
8 5 13 -6 11 -2 11 21 3z m-5455 -38 c29 -13 60 -22 67 -19 7 3 13 1 13 -3 0
-16 -15 -29 -35 -31 -11 -1 -33 -5 -50 -9 -27 -6 -29 -6 -17 9 19 22 9 33 -35
42 -20 4 -46 13 -57 21 -19 13 -18 14 19 14 22 -1 65 -11 95 -24z m1050 0 c0
-8 -7 -16 -15 -20 -12 -4 -13 -2 -2 14 14 24 17 25 17 6z m395 -6 c-3 -5 -11
-10 -16 -10 -6 0 -7 5 -4 10 3 6 11 10 16 10 6 0 7 -4 4 -10z m-903 -21 c15
-8 22 -8 28 1 9 15 81 -39 98 -73 39 -80 52 -125 52 -179 0 -67 -7 -84 -63
-152 l-41 -49 -98 7 c-94 7 -195 35 -155 44 9 2 17 8 17 14 0 6 7 7 18 2 27
-11 113 -5 149 12 37 17 54 37 28 32 -31 -5 -27 19 5 31 27 9 30 13 20 31 -6
11 -23 28 -38 37 -54 35 -134 133 -108 133 4 0 43 -19 119 -56 23 -11 27 -11
27 2 0 28 -28 70 -73 108 -58 50 -48 88 15 55z m-532 -69 c0 -5 -4 -10 -10
-10 -5 0 -10 5 -10 10 0 6 5 10 10 10 6 0 10 -4 10 -10z m-24 -27 c10 -15 15
-16 25 -5 7 6 22 12 32 12 15 0 17 -3 8 -13 -16 -20 -86 -39 -116 -31 l-26 6
22 24 c27 29 38 30 55 7z m-7 -66 c-2 -2 -21 -13 -42 -25 -35 -20 -38 -20 -35
-5 2 10 19 23 38 29 30 10 52 11 39 1z m66 -43 c-9 -13 -20 -22 -25 -19 -11 7
-2 34 19 59 14 16 16 17 19 2 2 -10 -4 -28 -13 -42z m1545 -16 c0 -4 -11 -3
-25 4 -13 6 -22 15 -19 19 5 9 44 -11 44 -23z m-50 -103 c0 -16 -27 -28 -36
-14 -7 12 15 41 27 33 5 -3 9 -11 9 -19z m-590 5 c26 -16 3 -21 -31 -6 -31 13
-32 14 -9 15 14 0 32 -3 40 -9z m3798 -55 c90 -14 224 -40 265 -52 9 -2 17
-13 17 -23 0 -17 -5 -19 -42 -14 -24 3 -97 19 -162 35 -65 16 -121 29 -124 29
-3 0 -2 3 2 7 4 5 -12 13 -36 19 -62 17 -33 16 80 -1z m-3800 -27 c18 -18 16
-59 -3 -52 -8 3 -26 -4 -41 -15 -36 -28 -62 -27 -74 4 -8 22 -14 24 -37 19
-16 -4 -35 -10 -43 -14 -21 -11 -117 -24 -108 -15 3 3 41 15 82 26 42 11 91
28 109 39 36 22 97 26 115 8z m530 -56 c-2 -14 3 -27 11 -30 10 -3 12 0 7 14
-5 12 -4 15 2 9 5 -5 12 -21 16 -35 3 -14 3 -19 0 -12 -3 6 -10 12 -16 12 -5
0 -25 12 -44 26 -34 27 -45 58 -21 67 20 7 47 -24 45 -51z m-1103 10 l60 -19
-37 -8 c-21 -4 -38 -12 -38 -18 0 -5 -14 4 -30 22 -17 17 -35 31 -40 31 -6 0
-10 5 -10 11 0 6 8 8 18 5 9 -3 44 -14 77 -24z m-135 14 c0 -3 -4 -8 -10 -11
-5 -3 -10 -1 -10 4 0 6 5 11 10 11 6 0 10 -2 10 -4z m1074 -33 c-4 -16 -9 -31
-11 -35 -7 -13 -40 -9 -52 6 -9 11 -6 18 16 35 40 29 55 27 47 -6z m-704 -12
c0 -5 -13 -14 -29 -21 -17 -7 -32 -22 -35 -36 -6 -23 -39 -36 -33 -13 1 6 -4
14 -12 17 -10 3 -11 0 -5 -9 6 -11 4 -11 -12 1 -10 8 -20 14 -21 15 -1 0 -4
12 -8 28 l-7 27 81 0 c45 0 81 -4 81 -9z m620 -16 c0 -18 -20 -24 -56 -18 -35
7 -59 24 -45 32 18 11 101 0 101 -14z m-517 0 c4 -8 2 -17 -3 -20 -6 -4 -10 3
-10 14 0 25 6 27 13 6z m718 5 c24 -13 25 -52 2 -73 -10 -8 -70 -32 -133 -52
-112 -36 -522 -194 -629 -242 -80 -37 -142 -63 -148 -63 -3 0 5 9 18 21 l24
20 -27 -4 c-15 -2 -25 0 -22 4 3 5 -2 9 -10 9 -9 0 -16 -4 -16 -10 0 -5 -5
-10 -11 -10 -7 0 -17 -7 -23 -16 -7 -9 -18 -12 -29 -8 -21 8 -12 24 14 24 10
0 19 4 19 9 0 7 70 42 175 86 17 8 72 32 123 54 50 23 95 41 98 41 4 0 32 11
63 24 31 13 81 34 111 46 30 12 78 32 105 45 28 12 90 35 138 51 49 15 96 34
105 41 21 15 28 16 53 3z m33 -116 c4 -10 1 -14 -6 -12 -15 5 -23 28 -10 28 5
0 13 -7 16 -16z m-101 -39 c4 -8 -5 -15 -25 -19 -35 -7 -93 -6 -65 1 9 2 17 8
17 13 0 8 18 14 52 17 9 1 19 -4 21 -12z m3062 -9 c-22 -14 -135 -57 -135 -50
0 2 28 17 63 33 67 31 106 41 72 17z m495 -20 c82 -27 81 -32 -1 -15 -29 6
-59 18 -67 25 -17 18 -20 18 68 -10z m-3675 -6 c-3 -5 -15 -10 -26 -10 -11 0
-17 5 -14 10 3 6 15 10 26 10 11 0 17 -4 14 -10z m195 0 c12 -8 11 -10 -7 -10
-13 0 -23 5 -23 10 0 13 11 13 30 0z m60 0 c0 -5 -2 -10 -4 -10 -3 0 -8 5 -11
10 -3 6 -1 10 4 10 6 0 11 -4 11 -10z m37 4 c-3 -3 -12 -4 -19 -1 -8 3 -5 6 6
6 11 1 17 -2 13 -5z m-62 -24 c-3 -5 -12 -10 -18 -10 -7 0 -6 4 3 10 19 12 23
12 15 0z m105 6 c0 -2 -7 -7 -16 -10 -8 -3 -12 -2 -9 4 6 10 25 14 25 6z
m-430 -26 c0 -5 -6 -10 -14 -10 -8 0 -18 5 -21 10 -3 6 3 10 14 10 12 0 21 -4
21 -10z m3130 5 c0 -8 -61 -37 -67 -32 -2 3 8 12 24 20 30 16 43 20 43 12z
m785 -5 c8 -13 -25 -13 -45 0 -12 8 -9 10 12 10 15 0 30 -4 33 -10z m-3872 -7
c-7 -2 -19 -2 -25 0 -7 3 -2 5 12 5 14 0 19 -2 13 -5z m-113 -13 c0 -5 -9 -10
-21 -10 -11 0 -17 5 -14 10 3 6 13 10 21 10 8 0 14 -4 14 -10z m2692 -1 c12
-6 18 -6 18 1 0 5 14 10 30 10 17 0 30 -4 30 -10 0 -5 10 -10 23 -10 12 0 28
-4 36 -9 24 -15 -42 -18 -140 -5 -52 6 -89 12 -84 13 6 1 5 5 -2 9 -18 12 67
13 89 1z m175 5 c-3 -3 -12 -4 -19 -1 -8 3 -5 6 6 6 11 1 17 -2 13 -5z m175
-34 c-35 -35 -86 -41 -100 -12 -17 33 -3 42 65 42 l65 0 -30 -30z m-152 0 c0
-5 -4 -10 -10 -10 -5 0 -10 5 -10 10 0 6 5 10 10 10 6 0 10 -4 10 -10z m-2977
-7 c-7 -2 -19 -2 -25 0 -7 3 -2 5 12 5 14 0 19 -2 13 -5z m7739 -673 c17 -41
32 -58 81 -90 32 -22 66 -40 73 -40 30 0 11 -20 -47 -51 -33 -18 -64 -40 -69
-50 -6 -10 -16 -24 -24 -31 -7 -8 -21 -28 -30 -46 -9 -18 -20 -32 -24 -32 -4
0 -15 20 -26 45 -20 50 -81 108 -133 127 -42 15 -42 24 4 43 61 26 100 62 128
120 15 30 32 55 37 55 5 0 18 -23 30 -50z"/>
<path d="M6800 6500 c0 -5 6 -10 14 -10 8 0 18 5 21 10 3 6 -3 10 -14 10 -12
0 -21 -4 -21 -10z"/>
<path d="M6880 6500 c0 -5 5 -10 10 -10 6 0 10 5 10 10 0 6 -4 10 -10 10 -5 0
-10 -4 -10 -10z"/>
<path d="M8858 5543 c7 -3 16 -2 19 1 4 3 -2 6 -13 5 -11 0 -14 -3 -6 -6z"/>
<path d="M9167 4950 c3 -11 7 -20 9 -20 2 0 4 9 4 20 0 11 -4 20 -9 20 -5 0
-7 -9 -4 -20z"/>
<path d="M9186 4735 c4 -8 8 -15 10 -15 2 0 4 7 4 15 0 8 -4 15 -10 15 -5 0
-7 -7 -4 -15z"/>
<path d="M5420 5800 c0 -5 5 -10 11 -10 5 0 7 5 4 10 -3 6 -8 10 -11 10 -2 0
-4 -4 -4 -10z"/>
<path d="M5420 5656 c0 -8 5 -18 10 -21 6 -3 10 3 10 14 0 12 -4 21 -10 21 -5
0 -10 -6 -10 -14z"/>
<path d="M5600 5570 c0 -5 12 -10 28 -10 21 0 24 2 12 10 -20 13 -40 13 -40 0z"/>
<path d="M5601 5404 c0 -11 3 -14 6 -6 3 7 2 16 -1 19 -3 4 -6 -2 -5 -13z"/>
<path d="M5609 5237 c-30 -33 -67 -79 -83 -102 l-29 -40 56 50 c67 61 111 94
149 115 40 21 39 32 -3 36 -33 2 -40 -2 -90 -59z m71 35 c0 -5 -13 -18 -30
-30 -35 -26 -39 -18 -8 15 22 23 38 30 38 15z"/>
<path d="M5437 5184 c-7 -7 23 -74 33 -74 7 0 33 27 43 46 4 7 -2 9 -18 6 -18
-3 -25 0 -25 12 0 16 -21 22 -33 10z"/>
<path d="M5670 5077 c0 -14 5 -29 10 -32 7 -4 8 3 4 22 -9 38 -14 42 -14 10z"/>
<path d="M5741 4987 c-6 -8 -8 -17 -4 -20 12 -12 19 -7 19 13 0 24 0 24 -15 7z"/>
<path d="M6640 5280 c-12 -8 -11 -10 8 -10 12 0 22 5 22 10 0 13 -11 13 -30 0z"/>
<path d="M6382 5178 c-16 -16 -15 -28 3 -28 8 0 15 9 15 20 0 23 -2 24 -18 8z"/>
<path d="M6433 5124 c16 -14 31 -24 34 -20 7 7 -17 30 -42 39 -15 6 -13 2 8
-19z"/>
<path d="M6265 5055 c1 -16 3 -33 4 -37 3 -16 17 -7 34 22 10 16 22 29 26 27
5 -1 9 3 10 8 1 6 -17 10 -38 10 -37 1 -39 -1 -36 -30z"/>
<path d="M6385 5056 c3 -11 0 -23 -7 -28 -9 -5 -10 -8 -1 -8 19 0 25 18 13 37
-11 17 -11 16 -5 -1z"/>
<path d="M6335 5020 c-3 -6 1 -7 9 -4 18 7 21 14 7 14 -6 0 -13 -4 -16 -10z"/>
<path d="M8293 3956 c3 -8 9 -53 13 -101 4 -47 10 -88 14 -90 10 -6 70 15 70
25 0 19 -81 180 -91 180 -6 0 -9 -6 -6 -14z"/>
<path d="M2903 1633 c-15 -3 -23 -12 -23 -24 0 -18 2 -19 15 -5 15 15 38 13
62 -7 9 -6 15 -4 19 7 3 9 16 16 28 16 19 1 20 1 3 11 -13 8 -22 7 -33 -1 -10
-9 -14 -9 -14 -1 0 11 -15 12 -57 4z"/>
<path d="M2888 1524 c6 -3 10 -10 6 -15 -3 -5 -2 -9 3 -9 10 0 40 19 33 21
-32 5 -52 7 -42 3z"/>
<path d="M4860 3500 c0 -13 18 -22 24 -11 3 5 -1 11 -9 15 -8 3 -15 1 -15 -4z"/>
<path d="M4065 3211 c-10 -16 9 -19 40 -5 l30 13 -32 1 c-17 0 -34 -4 -38 -9z"/>
<path d="M4156 3177 c3 -10 9 -15 12 -12 3 3 0 11 -7 18 -10 9 -11 8 -5 -6z"/>
<path d="M4100 3127 c0 -2 15 -16 33 -33 l32 -29 -29 33 c-28 30 -36 37 -36
29z"/>
<path d="M3940 3076 c0 -2 15 -6 34 -8 19 -2 32 0 30 4 -5 8 -64 12 -64 4z"/>
<path d="M3748 3023 c7 -3 16 -2 19 1 4 3 -2 6 -13 5 -11 0 -14 -3 -6 -6z"/>
<path d="M3883 2923 c9 -2 25 -2 35 0 9 3 1 5 -18 5 -19 0 -27 -2 -17 -5z"/>
<path d="M3903 2863 c9 -2 23 -2 30 0 6 3 -1 5 -18 5 -16 0 -22 -2 -12 -5z"/>
<path d="M3628 2793 c7 -3 16 -2 19 1 4 3 -2 6 -13 5 -11 0 -14 -3 -6 -6z"/>
<path d="M3930 2712 c0 -12 14 -27 28 -29 17 -4 15 0 -8 20 -11 9 -20 13 -20
9z"/>
<path d="M4120 2560 c0 -5 5 -10 10 -10 6 0 10 5 10 10 0 6 -4 10 -10 10 -5 0
-10 -4 -10 -10z"/>
<path d="M2610 2096 c0 -2 7 -6 15 -10 8 -3 15 -1 15 4 0 6 -7 10 -15 10 -8 0
-15 -2 -15 -4z"/>
<path d="M1968 2083 c7 -3 16 -2 19 1 4 3 -2 6 -13 5 -11 0 -14 -3 -6 -6z"/>
<path d="M2631 2031 c-7 -5 -11 -15 -9 -22 3 -10 8 -7 17 9 13 24 12 26 -8 13z"/>
<path d="M2035 2020 c4 -6 11 -8 16 -5 14 9 11 15 -7 15 -8 0 -12 -5 -9 -10z"/>
<path d="M2540 2005 c0 -8 2 -15 4 -15 2 0 6 7 10 15 3 8 1 15 -4 15 -6 0 -10
-7 -10 -15z"/>
<path d="M2591 1972 c-6 -12 -11 -27 -11 -34 1 -7 8 0 16 15 9 16 13 31 11 34
-3 2 -10 -4 -16 -15z"/>
<path d="M2351 1911 c-6 -11 -11 -32 -11 -47 l0 -28 25 34 c14 19 24 39 22 44
-6 19 -26 17 -36 -3z"/>
<path d="M2427 1873 c-12 -12 -7 -22 8 -17 8 4 15 10 15 15 0 11 -14 12 -23 2z"/>
<path d="M2374 1791 c-40 -18 -65 -41 -46 -41 5 0 22 6 37 14 15 8 50 18 78
21 34 5 45 10 36 16 -22 14 -61 10 -105 -10z"/>
<path d="M6530 2102 c0 -12 19 -26 26 -19 2 2 -2 10 -11 17 -9 8 -15 8 -15 2z"/>
<path d="M2605 1739 c-4 -6 -5 -12 -2 -15 2 -3 7 2 10 11 7 17 1 20 -8 4z"/>
<path d="M5740 6680 c0 -5 5 -10 10 -10 6 0 10 5 10 10 0 6 -4 10 -10 10 -5 0
-10 -4 -10 -10z"/>
<path d="M3805 6660 c3 -5 17 -10 30 -10 13 0 27 5 30 10 4 6 -8 10 -30 10
-22 0 -34 -4 -30 -10z"/>
<path d="M5660 6630 c0 -5 7 -7 15 -4 8 4 15 8 15 10 0 2 -7 4 -15 4 -8 0 -15
-4 -15 -10z"/>
</g>
</svg>
