<?xml version="1.0" standalone="no"?>
<!DOCTYPE svg PUBLIC "-//W3C//DTD SVG 20010904//EN"
 "http://www.w3.org/TR/2001/REC-SVG-20010904/DTD/svg10.dtd">
<svg version="1.0" xmlns="http://www.w3.org/2000/svg"
 width="718.000000pt" height="486.000000pt" viewBox="0 0 718.000000 486.000000"
 preserveAspectRatio="xMidYMid meet">

<g transform="translate(0.000000,486.000000) scale(0.100000,-0.100000)"
fill="#000000" stroke="none">
<path d="M148 4840 c-49 -26 -103 -83 -128 -134 -20 -42 -20 -52 -20 -2269 0
-2218 0 -2227 20 -2270 32 -68 94 -125 144 -132 22 -3 1603 -5 3512 -3 2926 3
3474 5 3487 17 16 12 17 189 15 2390 l-3 2376 -41 22 -41 23 -1519 -2 -1519
-3 38 -25 c31 -21 37 -30 35 -55 -2 -22 -8 -29 -20 -27 -9 1 -52 -14 -95 -34
-216 -100 -245 -116 -299 -170 -54 -55 -72 -60 -33 -10 36 45 13 41 -33 -6
-79 -82 -126 -204 -111 -293 8 -51 59 -122 113 -160 l45 -32 11 -119 c17 -181
21 -196 65 -249 21 -26 39 -41 39 -34 0 7 -16 30 -36 50 l-36 37 -14 153 c-19
220 -22 200 39 247 45 34 124 68 134 59 1 -2 9 -38 17 -80 8 -43 17 -81 20
-86 3 -4 -13 -13 -34 -20 -24 -7 -40 -18 -40 -27 0 -8 -9 -27 -20 -42 -11 -15
-31 -70 -45 -121 -23 -84 -24 -96 -11 -109 13 -13 18 -13 31 -2 13 11 18 11
24 1 6 -8 12 -3 20 17 16 39 58 79 70 66 5 -5 11 -18 14 -29 3 -12 5 -6 6 16
0 19 6 40 13 47 8 8 9 15 2 22 -21 21 -126 -43 -110 -68 3 -5 -1 -9 -9 -9 -21
0 -19 12 12 69 20 36 41 58 84 83 59 36 88 72 50 62 -12 -3 -26 2 -33 11 -12
13 -8 14 27 8 21 -4 53 -15 69 -23 18 -9 42 -13 63 -10 29 5 35 2 48 -23 10
-19 20 -27 30 -24 10 4 15 0 15 -16 0 -40 17 -11 23 39 11 93 51 137 99 109
l23 -13 -28 -3 c-33 -4 -54 -33 -63 -90 -4 -23 -11 -45 -15 -48 -19 -11 -7
-31 27 -43 34 -12 35 -14 30 -54 -3 -23 -8 -52 -12 -64 -11 -40 30 -28 74 22
37 42 62 57 62 36 0 -38 -61 -141 -84 -141 -30 -1 -39 -17 -26 -54 17 -52 15
-144 -4 -165 -8 -9 -35 -58 -59 -109 -24 -51 -53 -99 -63 -107 -10 -8 -38 -15
-61 -15 -38 0 -45 4 -82 51 -23 29 -41 55 -41 59 0 5 -14 13 -31 19 -26 9 -31
15 -27 35 5 23 2 24 -22 19 -22 -4 -29 -1 -34 15 -4 10 -15 27 -26 37 -19 17
-19 19 -2 31 32 23 1 29 -38 6 -37 -21 -40 -21 -50 -5 -9 16 -10 15 -8 -7 2
-20 9 -26 33 -28 50 -4 75 -12 75 -22 0 -6 50 -60 112 -120 101 -99 115 -110
148 -110 26 0 50 10 80 32 75 57 80 61 85 57 2 -3 -11 -43 -30 -89 -19 -47
-35 -92 -35 -100 0 -9 -21 -36 -46 -60 -58 -56 -130 -165 -167 -251 -28 -66
-29 -66 -74 -73 -44 -6 -49 -4 -142 63 -145 104 -170 115 -231 102 -28 -6 -63
-11 -78 -10 l-27 1 25 8 c14 5 106 27 205 50 220 52 356 87 364 96 3 4 -3 4
-14 1 -11 -3 -90 -22 -175 -41 -85 -19 -243 -55 -350 -80 -575 -133 -857 -198
-960 -222 -63 -14 -177 -41 -253 -59 -135 -31 -138 -32 -148 -13 -7 13 -8 77
-4 186 11 243 29 220 -239 311 -235 80 -239 80 -391 52 -76 -14 -385 -68 -523
-91 -68 -11 -127 -18 -133 -14 -5 3 -16 1 -24 -6 -10 -8 -15 -8 -20 0 -4 7
-28 10 -54 9 -56 -3 -71 4 -71 36 0 13 -5 27 -10 30 -6 4 -7 13 -1 23 5 9 15
45 21 79 7 34 15 62 19 61 24 -3 30 4 25 30 -3 15 0 41 6 57 l12 30 11 -25
c10 -24 10 -24 19 15 5 22 12 63 15 90 3 28 9 54 14 60 5 5 9 33 9 62 0 47 3
55 23 62 18 7 28 24 41 70 9 33 21 63 26 66 6 4 10 17 10 30 0 17 8 26 30 34
20 6 30 17 30 30 0 22 35 51 61 51 9 0 22 7 29 15 9 10 9 15 1 15 -27 0 -7 17
39 33 27 10 50 22 50 27 0 5 13 16 30 25 16 8 27 21 25 28 -5 13 78 81 119 97
15 5 43 21 64 35 20 14 42 25 49 25 14 0 103 60 103 70 0 3 20 14 45 24 25 11
45 25 45 32 0 7 14 22 31 34 16 12 28 25 24 28 -5 5 50 29 170 72 28 10 77 30
110 45 33 14 89 33 125 40 122 26 185 47 218 72 17 13 32 21 32 17 0 -3 6 -2
13 3 6 6 26 13 42 17 17 4 37 13 45 20 8 8 46 16 84 19 38 4 79 13 92 22 13 8
62 24 109 35 47 11 102 27 123 36 20 9 75 22 122 29 71 10 -149 13 -1370 13
-1425 1 -1456 1 -1492 -18z m4052 -40 c0 -13 -11 -13 -30 0 -12 8 -11 10 8 10
12 0 22 -4 22 -10z m135 0 c-8 -13 -75 -13 -95 0 -11 7 2 10 43 10 36 0 56 -4
52 -10z m841 -37 c8 -57 14 -70 24 -53 10 16 58 24 124 23 55 -2 276 -66 322
-94 17 -10 39 -19 48 -19 10 0 29 -13 44 -29 15 -15 50 -36 79 -46 43 -15 53
-23 55 -44 2 -21 9 -27 36 -29 29 -3 32 -6 32 -37 0 -30 5 -37 34 -49 19 -8
37 -24 41 -35 7 -23 21 -27 29 -8 3 8 9 6 20 -7 11 -14 13 -23 5 -32 -21 -25
23 -86 50 -70 5 3 16 -3 25 -13 10 -11 30 -25 46 -31 16 -7 32 -20 35 -30 3
-10 22 -31 42 -46 35 -27 36 -28 14 -36 -30 -11 -22 -32 15 -38 37 -7 63 -53
43 -77 -11 -13 -9 -19 16 -39 17 -13 33 -24 38 -24 4 0 7 -9 7 -19 0 -11 4
-22 9 -26 16 -9 38 -60 52 -117 8 -32 26 -68 46 -91 21 -24 34 -49 35 -70 0
-17 2 -44 2 -58 1 -15 8 -34 15 -43 17 -20 24 -83 10 -91 -16 -10 -11 -102 6
-109 20 -7 19 -40 -1 -56 -11 -10 -14 -23 -9 -52 7 -41 -10 -102 -26 -92 -5 3
-9 -2 -9 -10 0 -9 8 -16 18 -16 33 0 42 -20 35 -81 -3 -33 -1 -71 6 -90 9 -25
8 -37 -3 -53 -12 -19 -21 -58 -29 -121 -3 -27 -27 -45 -128 -92 -131 -62 -126
-61 -148 -11 -10 24 -39 115 -65 203 -65 218 -87 256 -228 398 -77 77 -121
129 -128 153 -7 19 -36 63 -66 96 -58 65 -61 72 -67 160 -3 41 -12 70 -33 105
l-30 48 -72 3 -72 3 -34 68 c-66 129 -109 158 -220 148 -60 -6 -265 -71 -339
-109 -22 -11 -41 -17 -44 -15 -13 14 -13 102 1 291 9 115 14 212 11 216 -3 4
-9 38 -14 76 -6 38 -18 79 -30 94 -10 15 -21 47 -23 71 l-3 44 58 9 c31 5 60
6 65 2 4 -4 9 -60 12 -124 5 -113 5 -115 13 -53 4 35 7 97 7 138 0 81 7 95 54
107 15 4 40 20 54 35 52 55 79 53 88 -6z m-321 -730 c-5 -84 -3 -138 4 -156
10 -25 8 -29 -28 -51 -21 -13 -54 -33 -74 -44 -20 -10 -34 -22 -30 -26 3 -3 2
-6 -4 -6 -15 0 -22 11 -16 26 3 8 15 14 28 14 13 0 33 9 46 20 l24 19 -22 1
c-32 0 -29 15 6 29 24 10 30 20 35 58 3 25 6 62 6 81 0 41 20 162 27 162 2 0
1 -57 -2 -127z m-440 -75 c14 -29 25 -61 25 -70 0 -33 -36 15 -45 58 -4 22
-11 45 -17 52 -7 8 -7 12 1 12 7 0 23 -24 36 -52z m940 -8 c3 -5 -1 -10 -9
-10 -8 0 -18 5 -21 10 -3 6 1 10 9 10 8 0 18 -4 21 -10z m-857 -137 c-3 -39
15 -60 20 -23 4 22 18 27 25 8 3 -10 11 -10 33 -2 29 10 29 10 31 -28 0 -21
-3 -38 -8 -38 -5 0 -9 -9 -9 -21 0 -12 5 -19 13 -16 6 2 11 10 10 16 -4 16 12
14 27 -4 11 -14 7 -23 -30 -60 -24 -25 -50 -45 -57 -45 -7 0 -19 -13 -27 -29
-15 -28 -46 -49 -46 -31 0 27 -19 5 -31 -35 -13 -43 -29 -60 -29 -31 0 8 -3
21 -6 30 -4 11 -1 16 10 16 20 0 20 22 1 61 -15 28 -14 31 8 62 37 48 59 97
53 114 -6 15 3 93 11 93 3 0 3 -17 1 -37z m-96 -415 c-7 -7 -12 -8 -12 -2 0 6
3 14 7 17 3 4 9 5 12 2 2 -3 -1 -11 -7 -17z m48 -21 c0 -2 -14 -19 -31 -38
-16 -19 -51 -73 -76 -121 -65 -123 -87 -117 -26 6 26 51 133 174 133 153z
m-3770 -272 c0 -18 -70 -75 -92 -75 -10 0 -18 5 -18 10 0 6 11 10 25 10 29 0
32 12 9 31 -14 12 -12 15 22 30 42 17 54 16 54 -6z m3680 -13 c-101 -84 -184
-165 -185 -181 -1 -10 -13 -33 -27 -52 -54 -71 -100 -185 -118 -292 -20 -117
-41 -192 -61 -217 l-21 -25 6 75 c11 150 83 367 153 459 15 19 28 44 28 55 2
25 84 101 179 166 84 58 109 65 46 12z m1701 -113 c4 -13 26 -84 49 -158 l42
-133 33 5 c28 5 34 2 44 -19 6 -14 11 -27 11 -29 0 -7 -112 -45 -120 -40 -4 2
-12 24 -18 47 -6 24 -32 108 -57 188 -43 136 -45 145 -28 157 23 17 35 12 44
-18z m-3921 -6 c0 -13 -3 -14 -11 -6 -13 13 -24 12 -192 -24 -65 -13 -121 -22
-124 -20 -2 3 31 13 74 22 43 10 103 23 133 30 81 19 120 19 120 -2z m3768
-40 c44 -64 175 -332 169 -347 -11 -27 -36 -18 -54 19 -13 27 -23 35 -43 35
-43 0 -64 -22 -58 -61 7 -45 1 -59 -26 -59 -22 0 -23 5 -40 178 -18 192 -20
245 -9 255 14 15 43 5 61 -20z m-3805 10 c-7 -2 -21 -2 -30 0 -10 3 -4 5 12 5
17 0 24 -2 18 -5z m-370 -40 c-7 -2 -19 -2 -25 0 -7 3 -2 5 12 5 14 0 19 -2
13 -5z m3991 -5 c3 -7 30 -95 62 -195 31 -99 54 -188 51 -197 -4 -9 -17 -16
-30 -16 -17 0 -37 18 -75 68 -54 71 -99 118 -106 111 -2 -2 9 -44 25 -94 37
-119 37 -137 2 -133 -27 3 -30 10 -86 191 -32 104 -56 195 -53 203 9 25 51 16
82 -18 17 -18 52 -61 79 -95 44 -58 74 -82 62 -50 -30 80 -68 211 -63 222 7
18 45 20 50 3z m-4036 -3 c-2 -3 -47 -14 -99 -24 -52 -11 -168 -36 -258 -56
-182 -39 -179 -39 -165 -26 5 5 61 20 124 32 63 12 171 35 240 50 125 27 168
33 158 24z m422 -95 c0 -72 -2 -80 -19 -80 -18 0 -30 20 -37 59 -2 8 -10 18
-18 23 -24 13 -19 28 9 28 14 0 25 6 25 13 0 14 20 37 32 37 4 0 8 -36 8 -80z
m1676 -44 c135 -94 137 -98 89 -189 -14 -27 -25 -57 -25 -68 0 -10 -9 -23 -19
-29 -25 -13 -118 -13 -126 0 -3 5 -12 7 -19 4 -7 -3 -19 2 -26 11 -7 8 -19 15
-26 15 -8 0 -14 5 -14 11 0 25 -36 38 -107 39 -40 0 -73 4 -73 9 0 6 -16 7
-35 4 -32 -5 -35 -3 -35 19 0 20 8 26 48 38 26 8 54 15 62 15 40 2 118 19 140
31 14 7 19 13 13 14 -8 0 -13 14 -13 36 0 32 -2 35 -16 23 -14 -11 -18 -10
-30 6 -8 10 -14 23 -14 28 0 6 -9 2 -20 -8 -14 -12 -27 -16 -47 -11 -60 15
-65 13 -93 -42 -16 -29 -26 -61 -23 -71 3 -11 -2 -21 -11 -24 -10 -4 -16 -19
-16 -42 0 -37 -15 -48 -24 -17 -3 9 -7 42 -8 72 -2 49 3 63 36 118 20 34 42
65 48 68 16 10 112 21 194 23 l72 1 118 -84z m-416 63 c0 -6 -16 -42 -36 -80
-33 -63 -36 -74 -32 -133 l4 -65 -56 -20 c-56 -20 -266 -92 -679 -232 -128
-43 -246 -79 -262 -79 -36 0 -106 -27 -112 -44 -3 -7 -47 -27 -99 -45 -112
-40 -128 -54 -131 -111 l-2 -43 365 -174 c540 -258 522 -252 610 -217 23 9 42
15 43 13 2 -2 25 -30 51 -61 l48 -57 -54 -24 c-294 -130 -803 -339 -948 -390
-64 -22 -122 -29 -117 -14 2 7 18 13 35 15 18 2 32 7 32 12 0 5 5 21 12 37 6
15 12 33 12 38 1 6 18 10 38 10 41 0 64 14 27 17 -40 2 -63 -2 -69 -13 -10
-15 -55 9 -71 38 -11 20 -11 26 1 34 11 8 7 9 -13 4 -21 -4 -28 -2 -25 7 6 17
78 19 85 2 2 -7 12 -10 21 -7 12 4 12 1 -3 -10 -11 -8 -16 -19 -12 -23 4 -5
12 -2 18 6 8 13 11 13 20 -2 11 -20 39 -24 39 -7 0 7 18 8 55 4 34 -5 55 -4
55 2 0 6 71 47 158 92 160 84 192 108 192 144 0 20 -26 57 -40 57 -4 0 -129
58 -278 130 -161 77 -284 130 -302 130 -16 0 -50 -10 -74 -22 l-45 -21 -36 32
c-21 18 -49 37 -64 43 -24 10 -195 48 -215 48 -6 0 -5 5 2 12 20 20 14 47 -13
54 -22 5 -23 8 -11 27 13 20 27 119 29 195 0 17 4 32 9 32 4 0 8 8 8 18 0 19
155 76 470 173 74 23 138 46 142 53 4 6 8 41 8 78 l0 67 38 11 c20 5 109 26
197 46 88 19 257 58 375 86 118 27 280 65 360 83 80 18 161 38 180 43 48 14
60 14 60 1z m2089 -31 c5 -18 33 -109 61 -202 48 -159 50 -170 34 -187 -27
-30 -41 -23 -58 29 -8 26 -38 119 -66 206 -28 87 -49 160 -48 161 43 32 65 30
77 -7z m-129 -35 c0 -10 -9 -52 -20 -93 -11 -41 -20 -79 -20 -83 0 -5 28 -39
62 -75 137 -147 135 -143 77 -157 -23 -6 -35 1 -85 54 -32 34 -64 61 -71 61
-16 0 -18 -78 -2 -134 12 -42 6 -54 -31 -58 -23 -3 -27 6 -86 197 -67 212 -67
221 -15 227 21 3 25 -4 41 -60 27 -96 35 -95 54 5 19 92 27 110 61 123 30 13
35 12 35 -7z m-1766 -44 c14 -11 26 -27 26 -35 0 -17 -12 -18 -27 -3 -8 8 -16
7 -31 -2 -35 -22 -69 20 -40 49 18 18 42 15 72 -9z m3083 -15 c-3 -3 -12 -4
-19 -1 -8 3 -5 6 6 6 11 1 17 -2 13 -5z m-3317 -199 c15 5 20 4 16 -4 -4 -6
-20 -11 -36 -11 -23 0 -28 4 -23 16 4 11 8 12 13 4 5 -8 16 -9 30 -5z m166 3
c5 -8 0 -9 -14 -6 -13 4 -22 1 -22 -5 0 -6 -3 -8 -6 -4 -9 9 5 27 21 27 8 0
17 -5 21 -12z m61 -42 c-8 -20 -41 -21 -56 -2 -10 11 -6 16 16 24 31 11 49 1
40 -22z m129 -17 c46 -26 62 -31 98 -26 41 6 43 5 59 -30 9 -21 15 -38 13 -40
-4 -4 -225 74 -244 86 -13 8 -6 41 9 41 5 0 34 -14 65 -31z m-403 10 c-6 -6
-32 -14 -57 -16 -29 -4 -46 -11 -46 -19 0 -12 -29 -34 -45 -34 -16 0 3 36 25
49 48 26 145 42 123 20z m167 1 c0 -5 -2 -10 -4 -10 -3 0 -8 5 -11 10 -3 6 -1
10 4 10 6 0 11 -4 11 -10z m-10 -30 c0 -5 -4 -10 -9 -10 -6 0 -13 5 -16 10 -3
6 1 10 9 10 9 0 16 -4 16 -10z m73 -7 c-7 -2 -19 -2 -25 0 -7 3 -2 5 12 5 14
0 19 -2 13 -5z m-79 -38 c-4 -8 -10 -15 -15 -15 -5 0 -9 7 -9 15 0 8 7 15 15
15 9 0 12 -6 9 -15z m-112 -20 c41 -17 55 -32 41 -46 -6 -6 -29 -1 -60 11
l-50 21 -58 -23 c-32 -13 -60 -29 -62 -34 -2 -6 20 -21 49 -34 44 -19 59 -21
88 -12 87 26 115 40 118 61 4 25 11 26 60 5 45 -18 46 -18 -107 -80 l-105 -43
-45 26 c-40 21 -42 22 -18 3 25 -20 67 -87 67 -108 0 -5 -23 -14 -51 -20 -28
-7 -68 -24 -89 -39 -51 -37 -108 -117 -115 -161 -10 -56 -13 -62 -34 -62 -30
0 -35 19 -9 29 13 6 20 11 16 12 -29 7 -57 18 -96 37 -25 13 -36 14 -50 5 -15
-9 -22 -6 -41 13 -13 13 -21 31 -18 39 7 17 -11 31 -35 27 -10 -2 -31 5 -48
15 -28 16 -32 16 -59 0 -44 -26 -55 -22 -47 15 9 47 32 66 89 73 29 4 63 12
77 17 22 8 23 10 8 19 -10 6 -37 16 -61 23 -35 10 -45 10 -55 0 -7 -7 -11 -19
-10 -25 2 -6 -3 -14 -9 -16 -7 -3 -13 2 -13 10 0 9 -4 17 -8 19 -5 2 2 27 15
57 l24 54 77 -6 c43 -3 86 -9 97 -13 13 -5 16 -4 11 4 -4 7 -17 12 -29 12 -12
0 -28 4 -36 9 -12 8 -12 13 3 35 18 28 49 33 90 15 21 -10 27 -8 54 22 29 33
30 33 72 20 28 -8 64 -33 101 -68 34 -32 63 -52 69 -48 8 5 1 13 -19 22 -26
13 -51 48 -39 57 1 2 41 19 88 39 88 37 101 38 162 12z m-265 1 c2 -2 1 -10
-3 -19 -5 -15 -10 -14 -45 3 -21 11 -39 23 -39 26 0 6 81 -3 87 -10z m431 2
c-3 -7 -11 -13 -18 -13 -7 0 -15 6 -17 13 -3 7 4 12 17 12 13 0 20 -5 18 -12z
m153 2 c36 -20 19 -29 -26 -13 -25 8 -45 17 -45 19 0 8 52 4 71 -6z m154 -20
c3 -5 2 -10 -4 -10 -5 0 -13 5 -16 10 -3 6 -2 10 4 10 5 0 13 -4 16 -10z
m-199 -20 c9 0 12 -4 9 -10 -9 -14 -18 -13 -41 6 -17 14 -17 15 -1 10 10 -3
25 -6 33 -6z m307 -21 c-6 -29 -4 -31 18 -24 13 4 39 13 57 21 48 19 39 10
-29 -32 -62 -39 -81 -64 -94 -123 -5 -21 -31 -58 -75 -105 -37 -39 -79 -93
-93 -121 l-26 -50 -1 33 c0 53 25 99 96 172 56 58 66 75 70 112 8 72 13 85 40
117 33 39 45 39 37 0z m-126 15 c-3 -3 -12 -4 -19 -1 -8 3 -5 6 6 6 11 1 17
-2 13 -5z m63 -15 c-15 -27 -36 -34 -63 -21 -21 10 -21 11 13 26 50 22 63 21
50 -5z m2150 -19 c0 -5 -5 -10 -11 -10 -5 0 -7 5 -4 10 3 6 8 10 11 10 2 0 4
-4 4 -10z m-2220 -20 c13 -8 13 -10 -2 -10 -9 0 -20 5 -23 10 -8 13 5 13 25 0z
m-1345 -50 c-3 -5 -16 -10 -28 -10 -18 0 -19 2 -7 10 20 13 43 13 35 0z m-67
-30 c50 -23 53 -34 10 -47 -26 -7 -43 -5 -80 10 -52 21 -58 30 -30 46 25 15
52 13 100 -9z m1002 -15 c0 -9 -6 -12 -15 -9 -8 4 -15 10 -15 15 0 5 7 9 15 9
8 0 15 -7 15 -15z m438 -7 c-5 -15 -193 -98 -222 -98 -32 0 -9 14 104 63 114
50 124 53 118 35z m-483 -8 c3 -5 -1 -10 -9 -10 -9 0 -16 5 -16 10 0 6 4 10 9
10 6 0 13 -4 16 -10z m2611 -41 c-8 -19 -15 -26 -15 -17 -1 23 20 75 26 62 2
-7 -3 -27 -11 -45z m-3706 -9 c0 -12 -31 -21 -51 -15 -24 8 -24 22 -1 27 22 5
52 -2 52 -12z m455 10 c3 -5 1 -10 -4 -10 -6 0 -11 5 -11 10 0 6 2 10 4 10 3
0 8 -4 11 -10z m724 1 c15 -10 7 -31 -12 -31 -7 0 -19 5 -27 10 -13 9 -13 11
0 20 18 12 21 12 39 1z m276 -40 c-21 -19 -135 -73 -147 -68 -7 2 16 18 52 34
93 43 111 49 95 34z m-1555 -11 c0 -5 -5 -10 -11 -10 -5 0 -7 5 -4 10 3 6 8
10 11 10 2 0 4 -4 4 -10z m1179 -1 c17 -6 31 -15 31 -20 0 -13 -15 -11 -55 5
-58 24 -38 36 24 15z m183 -58 c54 -34 65 -49 44 -57 -9 -3 -36 8 -63 26 -43
28 -54 31 -105 28 -61 -4 -68 6 -15 21 57 16 92 12 139 -18z m-1264 3 c-9 -10
-24 -14 -33 -10 -23 9 -9 26 23 26 24 0 25 -1 10 -16z m207 -3 c0 -22 -47 -34
-81 -21 -28 11 -29 12 -9 26 25 19 90 15 90 -5z m139 -40 c17 -18 17 -19 -2
-25 -21 -7 -72 9 -72 22 0 28 50 30 74 3z m1046 -39 c0 -5 -9 -17 -20 -27 -13
-12 -20 -14 -20 -5 0 9 -12 10 -46 5 -32 -4 -44 -3 -40 4 14 21 126 41 126 23z
m-894 -46 c18 -14 18 -15 -9 -25 -36 -14 -39 -14 -63 3 -18 14 -18 15 6 25 34
14 43 13 66 -3z m44 -56 c0 -5 -7 -10 -16 -10 -8 0 -12 5 -9 10 3 6 10 10 16
10 5 0 9 -4 9 -10z m-1159 -70 c26 -22 62 -49 81 -60 36 -21 98 -91 98 -109 0
-19 -38 -12 -68 14 -16 14 -53 31 -81 38 -53 13 -58 27 -11 27 15 0 29 3 32 6
9 8 -90 107 -100 100 -6 -3 -15 1 -22 9 -27 32 24 15 71 -25z m121 -19 c10 5
19 8 19 7 4 -9 6 -48 2 -48 -14 0 -63 33 -63 42 0 9 3 9 12 0 7 -7 17 -8 30
-1z m1283 -11 c-3 -5 -10 -10 -16 -10 -5 0 -9 5 -9 10 0 6 7 10 16 10 8 0 12
-4 9 -10z m-2227 -44 c91 -46 110 -62 96 -76 -9 -9 -32 -1 -93 29 -44 23 -93
41 -108 41 -32 0 -180 -44 -241 -72 -24 -11 -61 -22 -83 -25 -22 -3 -42 -10
-45 -14 -7 -12 -24 -11 -24 1 0 6 5 10 12 10 6 0 19 6 27 14 9 8 36 21 61 30
25 8 92 33 150 55 131 50 161 51 248 7z m3779 12 c-3 -8 -6 -5 -6 6 -1 11 2
17 5 13 3 -3 4 -12 1 -19z m-1722 2 c-3 -5 -12 -10 -18 -10 -7 0 -6 4 3 10 19
12 23 12 15 0z m61 -18 c-4 -3 -14 2 -24 12 -16 18 -16 18 6 6 13 -6 21 -14
18 -18z m-702 -51 c104 -48 148 -80 78 -55 -20 7 -46 13 -57 14 -12 0 -25 4
-30 9 -6 5 -28 11 -50 13 -22 2 -43 8 -47 13 -5 6 -12 4 -18 -5 -7 -12 -10 -8
-10 16 0 57 4 57 134 -5z m2411 -1 c3 -5 1 -10 -4 -10 -6 0 -11 5 -11 10 0 6
2 10 4 10 3 0 8 -4 11 -10z m-3269 -21 c10 -12 40 -39 66 -60 36 -31 45 -35
41 -19 -9 34 17 22 32 -14 8 -19 22 -39 31 -44 11 -6 13 -12 6 -16 -6 -4 -9
-13 -5 -21 3 -8 0 -15 -6 -15 -6 0 -11 7 -11 16 0 8 -4 12 -10 9 -5 -3 2 -23
18 -47 21 -33 28 -38 31 -23 2 10 9 25 17 33 8 7 15 30 15 50 1 23 3 29 6 15
5 -28 23 -30 23 -4 0 11 5 23 10 26 6 3 10 -3 10 -14 0 -26 8 -27 26 -3 12 15
13 10 8 -37 -9 -74 11 -65 40 19 12 35 28 66 34 68 7 2 10 -2 7 -10 -3 -8 10
-20 30 -29 l35 -17 65 51 c36 27 68 47 71 44 8 -8 -37 -108 -46 -102 -4 3 -8
-5 -8 -18 0 -25 -23 -106 -35 -124 -5 -7 -19 -13 -33 -13 -15 0 -24 -6 -24
-15 0 -8 9 -15 20 -15 11 0 20 -4 20 -10 0 -5 -6 -7 -13 -4 -7 2 -31 0 -52 -5
l-40 -9 34 -7 c30 -7 32 -10 17 -21 -9 -6 -13 -14 -8 -15 5 -3 5 -18 0 -37 -8
-30 -12 -33 -34 -28 -13 4 -24 2 -24 -4 0 -5 -9 -10 -20 -10 -11 0 -20 4 -20
9 0 15 29 33 45 27 9 -3 15 0 15 9 0 18 -8 18 -40 0 -14 -8 -38 -14 -53 -15
-24 0 -27 3 -22 20 5 16 2 20 -15 20 -17 0 -20 -4 -15 -21 7 -20 5 -21 -24
-16 -18 4 -31 2 -31 -3 0 -6 -10 -10 -21 -10 -16 0 -20 5 -16 20 3 14 -3 27
-21 41 -25 19 -25 21 -9 31 17 9 17 12 3 33 -22 33 -6 38 40 15 47 -24 50 -25
33 -3 -8 9 -33 25 -56 35 -24 10 -43 25 -43 33 0 18 5 18 31 5 26 -15 25 5 -3
50 -21 32 -23 33 -26 13 -2 -15 -10 -23 -23 -23 -29 0 -34 25 -9 50 25 25 18
45 -11 29 -12 -6 -22 -9 -24 -7 -9 9 -65 134 -65 146 0 18 15 15 36 -9z m113
-13 c13 -6 22 -15 20 -20 -5 -12 -49 -15 -49 -4 0 4 -9 17 -21 29 l-21 21 24
-7 c12 -4 34 -12 47 -19z m371 -36 c-8 -5 -28 -9 -45 -9 -29 1 -29 1 -5 9 14
4 34 8 45 9 16 1 17 -1 5 -9z m-602 -25 c17 -14 37 -25 46 -25 9 0 16 -5 16
-11 0 -6 8 -8 19 -4 22 7 24 1 41 -93 6 -34 20 -83 30 -108 19 -44 19 -45 1
-39 -10 3 -29 1 -42 -4 -22 -9 -21 -10 13 -10 20 -1 39 -5 42 -10 6 -8 -94
-51 -120 -51 -19 0 -18 3 11 46 14 20 25 45 25 55 0 10 5 21 10 24 6 4 4 12
-5 21 -8 9 -15 24 -15 34 0 10 -5 22 -11 26 -8 4 -9 -1 -4 -16 17 -53 9 -110
-22 -153 l-29 -42 -70 0 c-78 1 -128 11 -119 25 3 6 29 10 56 10 57 0 91 14
83 34 -3 7 2 16 10 19 25 10 19 23 -34 73 -62 59 -67 83 -10 54 72 -37 79 -23
20 45 -22 25 -40 48 -40 51 0 10 82 -5 97 -18 14 -11 15 -11 6 7 -6 11 -23 31
-37 44 -48 45 -19 59 32 16z m3452 -26 c7 -11 9 -24 5 -27 -7 -7 -35 25 -35
40 0 16 19 8 30 -13z m-3886 -8 c51 -18 52 -23 5 -35 -21 -5 -28 -2 -32 14 -3
11 -13 20 -24 20 -10 0 -25 5 -33 10 -25 16 29 11 84 -9z m-20 -80 c3 -5 16
-7 29 -4 21 4 21 3 -3 -11 -27 -16 -70 -21 -70 -8 0 10 22 32 31 32 4 0 10 -4
13 -9z m-24 -61 c-20 -13 -33 -13 -25 0 3 6 14 10 23 10 15 0 15 -2 2 -10z
m61 -23 c-8 -8 -11 -7 -11 4 0 20 13 34 18 19 3 -7 -1 -17 -7 -23z m3430 -133
c46 -8 92 -17 102 -20 25 -8 21 -24 -8 -24 -35 0 -198 39 -209 50 -14 14 18
13 115 -6z m-2783 -16 c2 -12 -8 -23 -33 -35 -35 -17 -37 -17 -46 0 -11 19
-41 22 -70 6 -11 -6 -25 -8 -32 -6 -7 2 13 12 43 21 30 9 62 21 70 26 23 15
64 8 68 -12z m372 -27 l-1 -26 -19 24 c-21 25 -18 44 5 34 8 -3 15 -17 15 -32z
m-766 1 c5 -2 1 -9 -7 -14 -11 -6 -25 -3 -42 8 -14 9 -25 18 -25 21 0 5 60 -7
74 -15z m122 -41 c-25 -26 -32 -28 -52 -19 -13 6 -24 19 -24 30 0 15 8 18 52
18 l52 0 -28 -29z m454 19 c8 -5 11 -12 8 -16 -10 -9 -58 4 -58 16 0 13 30 13
50 0z m168 -27 c4 -27 20 -19 -238 -114 -107 -39 -239 -91 -293 -115 -96 -42
-99 -43 -118 -25 -20 18 -18 19 118 78 76 34 194 83 263 111 69 27 148 59 175
70 63 26 89 24 93 -5z m-68 -93 c-20 -13 -40 -13 -40 0 0 6 12 10 28 10 21 0
24 -2 12 -10z m2530 -10 c13 -8 13 -10 -2 -10 -9 0 -20 5 -23 10 -8 13 5 13
25 0z m-739 -55 l34 -14 -40 0 c-22 -1 -58 2 -80 6 l-40 8 45 6 c25 3 46 7 46
7 1 1 17 -5 35 -13z m180 -15 c-25 -22 -56 -26 -66 -10 -12 19 6 30 48 30 l42
-1 -24 -19z m-2591 -90 c-8 -6 -22 -10 -30 -10 -8 0 -4 6 10 13 27 15 44 12
20 -3z"/>
<path d="M4535 3690 c-3 -5 -1 -10 4 -10 6 0 11 5 11 10 0 6 -2 10 -4 10 -3 0
-8 -4 -11 -10z"/>
<path d="M4454 3615 c-10 -26 6 -38 27 -19 10 9 19 21 19 26 0 14 -40 9 -46
-7z"/>
<path d="M5900 2809 c0 -52 13 -119 24 -119 6 0 17 4 25 9 12 8 12 16 -3 54
-9 24 -23 52 -31 63 -14 18 -14 18 -15 -7z"/>
<path d="M2898 2293 c7 -3 16 -2 19 1 4 3 -2 6 -13 5 -11 0 -14 -3 -6 -6z"/>
<path d="M1665 1359 c-4 -11 -4 -23 0 -27 7 -7 25 17 25 36 0 20 -18 14 -25
-9z"/>
<path d="M1694 1290 c-12 -5 -25 -14 -30 -21 -5 -9 -2 -10 12 -5 10 4 31 10
47 13 15 3 27 9 27 14 0 11 -28 11 -56 -1z"/>
<path d="M2718 4753 c7 -3 16 -2 19 1 4 3 -2 6 -13 5 -11 0 -14 -3 -6 -6z"/>
<path d="M4029 3775 c-1 -3 -2 -10 -3 -17 0 -6 -7 -13 -15 -16 -9 -3 -11 0 -7
9 4 8 -9 -4 -28 -26 -43 -48 -47 -65 -8 -35 15 11 44 32 65 47 20 14 37 30 37
34 0 9 -39 13 -41 4z"/>
<path d="M3867 3680 c7 -26 22 -35 35 -22 8 8 7 16 -2 27 -18 22 -39 19 -33
-5z"/>
<path d="M3786 3525 c-3 -9 -6 -22 -5 -28 0 -7 5 -1 10 12 5 13 8 26 5 28 -2
2 -6 -3 -10 -12z"/>
<path d="M3996 3421 c-3 -4 6 -6 19 -3 14 2 25 6 25 8 0 8 -39 4 -44 -5z"/>
<path d="M741 3224 c0 -11 3 -14 6 -6 3 7 2 16 -1 19 -3 4 -6 -2 -5 -13z"/>
</g>
</svg>
