<?xml version="1.0" standalone="no"?>
<!DOCTYPE svg PUBLIC "-//W3C//DTD SVG 20010904//EN"
 "http://www.w3.org/TR/2001/REC-SVG-20010904/DTD/svg10.dtd">
<svg version="1.0" xmlns="http://www.w3.org/2000/svg"
 width="873.000000pt" height="545.000000pt" viewBox="0 0 873.000000 545.000000"
 preserveAspectRatio="xMidYMid meet">

<g transform="translate(0.000000,545.000000) scale(0.100000,-0.100000)"
fill="#000000" stroke="none">
<path d="M0 2725 l0 -2725 4365 0 4365 0 0 2725 0 2725 -1707 -1 c-1128 0
-1700 -4 -1683 -10 13 -5 114 -12 225 -15 110 -4 223 -12 252 -19 53 -13 111
-50 112 -72 1 -6 11 -19 23 -27 29 -21 17 -20 -77 4 -168 43 -334 36 -505 -20
-284 -94 -437 -168 -532 -258 -71 -67 -82 -70 -47 -13 32 52 13 50 -39 -6
-118 -127 -176 -301 -142 -425 15 -52 81 -132 144 -174 56 -37 66 -54 66 -116
0 -74 40 -350 55 -378 8 -16 31 -41 51 -56 34 -27 36 -30 30 -73 -3 -26 -15
-75 -26 -109 -11 -35 -20 -72 -20 -81 0 -23 40 -41 89 -41 34 0 40 -4 50 -30
11 -34 70 -67 83 -47 3 5 19 16 35 22 24 11 20 12 -39 7 l-68 -5 0 30 c0 17
-7 36 -15 43 -11 9 -12 17 -4 32 16 30 7 30 -49 1 -32 -17 -56 -23 -61 -17 -6
5 0 42 15 93 34 118 32 153 -10 188 -18 15 -38 37 -44 48 -14 29 -40 189 -53
340 -13 147 -5 181 49 209 15 8 36 24 47 36 21 24 63 43 111 53 l31 6 21 -101
c12 -56 28 -108 35 -115 19 -19 131 -45 185 -44 44 1 102 24 102 40 0 13 58
34 75 27 9 -3 15 0 15 9 0 8 7 15 15 15 14 0 14 -3 2 -27 -13 -26 -29 -87 -41
-158 -6 -37 7 -66 18 -40 3 9 6 30 6 46 0 51 21 117 46 144 37 40 76 34 132
-22 86 -86 108 -163 77 -267 -8 -27 -15 -64 -15 -82 0 -39 -52 -112 -94 -132
-15 -8 -30 -20 -32 -27 -3 -7 2 -47 11 -89 20 -98 12 -129 -63 -250 -30 -50
-72 -120 -91 -156 -33 -58 -40 -66 -76 -73 -59 -13 -88 4 -147 83 -29 38 -62
73 -73 76 -11 4 -28 13 -37 22 -10 8 -18 12 -18 9 0 -4 47 -54 104 -112 l104
-105 50 0 c52 0 90 21 175 97 22 19 41 33 43 30 2 -2 -13 -49 -34 -103 -21
-54 -45 -119 -52 -144 -9 -25 -24 -49 -36 -55 -41 -20 -131 -135 -181 -231
-60 -116 -125 -276 -143 -354 -7 -30 -17 -65 -21 -78 l-9 -22 -87 43 c-173 87
-246 115 -313 120 -62 6 -63 5 -35 -8 17 -8 43 -14 59 -15 56 0 359 -137 370
-166 3 -7 0 -42 -6 -76 -10 -58 -16 -68 -75 -130 -37 -38 -71 -83 -78 -105
-12 -34 -18 -39 -57 -47 -27 -5 -66 -4 -104 3 -34 6 -104 11 -155 11 -92 1
-129 11 -129 38 0 6 -4 13 -9 16 -5 3 -8 -1 -7 -10 0 -9 -7 -21 -16 -27 -14
-9 -21 -8 -34 5 -38 38 23 75 171 103 75 14 164 55 172 80 4 12 -37 13 -55 1
-8 -5 -14 6 -18 34 -6 36 -24 67 -24 41 0 -16 -18 -13 -48 8 -21 16 -47 20
-115 23 -80 2 -90 0 -99 -17 -6 -11 -24 -32 -40 -46 -15 -14 -28 -28 -28 -31
0 -3 -20 -27 -45 -54 -31 -34 -47 -46 -55 -38 -20 20 29 131 90 204 20 25 42
54 48 66 9 17 24 22 84 28 40 3 108 13 151 23 77 16 78 16 118 -6 22 -13 43
-21 46 -17 3 3 -15 15 -41 28 -43 21 -50 21 -109 9 -84 -18 -217 -26 -217 -14
0 5 15 24 34 42 33 32 36 33 93 27 32 -4 73 -10 91 -13 20 -3 32 -1 32 6 0 6
-13 11 -30 11 -16 0 -30 5 -30 10 0 6 -29 10 -68 10 l-68 0 -49 -50 c-27 -27
-52 -47 -56 -42 -4 4 -19 52 -34 107 -14 55 -71 258 -125 450 -54 193 -126
450 -160 572 -34 122 -68 227 -75 233 -9 8 -19 8 -32 1 -10 -5 -72 -17 -138
-26 -189 -26 -209 -27 -80 -1 66 13 143 28 170 34 l50 11 -60 -5 c-65 -6 -472
-67 -753 -114 -98 -16 -316 -52 -487 -80 -424 -69 -476 -79 -508 -92 -55 -22
-59 -63 -22 -216 14 -57 25 -105 25 -107 0 -2 -15 -7 -32 -10 -494 -83 -1068
-175 -1093 -175 -38 0 -74 -24 -81 -53 -3 -16 -3 -59 1 -97 l7 -69 -39 -6
c-21 -3 -51 -10 -68 -16 -161 -55 -229 -71 -170 -39 30 16 33 34 5 25 -18 -6
-19 -4 -10 20 5 14 10 51 10 81 l0 54 40 0 c40 0 40 0 40 39 0 21 -7 52 -15
67 -23 44 -20 149 5 174 11 11 29 20 39 20 14 0 32 26 70 101 28 56 51 109 51
119 0 25 51 155 100 258 41 83 48 112 30 112 -16 0 -12 20 11 51 17 24 24 27
35 18 11 -9 14 -7 14 10 0 11 4 21 8 21 4 0 16 15 27 33 10 17 30 44 44 58 39
39 87 109 111 159 11 25 38 72 59 105 30 48 44 61 67 63 35 5 54 19 54 42 0 9
19 30 42 45 23 15 55 42 72 60 32 33 141 97 186 108 14 4 43 23 65 42 22 20
51 38 65 42 23 5 101 45 125 63 6 4 24 10 40 14 17 4 46 18 65 30 19 13 46 27
60 31 14 4 49 21 79 36 30 16 59 29 65 29 7 0 27 11 46 25 19 14 44 25 57 25
13 0 34 6 46 14 12 8 58 24 102 36 44 12 95 28 113 36 54 24 94 40 147 59 102
37 171 62 200 74 58 24 147 52 213 67 37 9 71 19 77 24 5 5 98 31 205 60 107
28 227 60 265 71 39 10 108 26 155 34 47 9 103 20 125 24 22 5 -890 9 -2027
10 l-2068 1 0 -2725z m6735 2592 c10 -58 15 -63 37 -36 17 23 19 23 32 6 11
-14 19 -16 40 -7 53 20 213 -11 308 -61 20 -10 43 -19 50 -19 7 0 31 -10 53
-22 82 -45 141 -77 182 -98 23 -12 45 -30 48 -41 4 -12 36 -33 83 -55 42 -20
95 -53 117 -75 361 -354 445 -443 445 -473 0 -16 29 -72 67 -127 17 -26 36
-62 42 -81 6 -19 25 -48 41 -63 17 -16 30 -34 30 -39 0 -6 10 -27 22 -46 23
-37 47 -110 48 -147 0 -12 7 -26 16 -31 11 -6 18 -32 24 -81 6 -58 14 -80 37
-109 43 -53 55 -80 48 -103 -4 -12 -1 -27 8 -37 12 -13 17 -53 21 -172 7 -206
19 -308 41 -349 14 -26 15 -35 5 -41 -11 -7 -11 -14 -1 -38 7 -16 13 -62 14
-102 2 -59 -1 -73 -15 -81 -11 -6 -18 -22 -18 -39 0 -17 -4 -30 -10 -30 -15 0
-12 -19 8 -48 10 -15 23 -39 30 -54 11 -26 9 -29 -19 -44 -17 -8 -46 -16 -64
-17 -18 -1 -31 -5 -29 -8 2 -4 -18 -12 -44 -19 -26 -7 -56 -18 -67 -24 -50
-29 -157 -68 -165 -60 -14 16 -77 196 -100 284 -75 303 -134 397 -393 638 -41
38 -67 70 -67 83 0 31 -16 56 -101 157 l-79 93 0 72 c0 87 -22 154 -68 208
l-34 39 -88 0 -89 0 -41 87 c-22 48 -52 102 -67 121 -68 89 -207 96 -428 19
-71 -24 -165 -60 -207 -80 -43 -20 -80 -33 -82 -28 -21 34 -25 108 -11 237 8
77 15 187 15 247 0 61 5 115 11 125 8 13 7 33 -5 81 -9 34 -16 74 -16 87 0 48
-36 102 -136 206 -59 60 -63 68 -47 78 15 10 14 10 -8 6 -18 -4 -34 0 -50 14
l-24 20 58 -6 c49 -6 57 -4 57 10 0 18 26 22 32 4 3 -9 12 -9 34 -1 71 25 105
34 113 28 5 -3 12 4 16 15 8 24 35 27 35 3 0 -9 5 -30 10 -47 6 -17 14 -105
19 -196 l8 -165 2 115 c3 155 17 349 25 357 4 4 10 2 14 -4 5 -8 29 -9 87 -2
44 5 88 6 98 3 9 -3 17 0 17 6 0 28 19 -4 25 -43z m-661 -22 c3 -9 0 -15 -9
-15 -16 0 -27 14 -18 24 10 10 21 7 27 -9z m-54 -5 c0 -5 6 -10 14 -10 14 0
30 -29 21 -38 -6 -6 -55 38 -55 50 0 4 5 8 10 8 6 0 10 -4 10 -10z m301 -950
c-9 -91 -4 -171 13 -198 12 -19 -16 -44 -84 -77 -33 -16 -60 -35 -60 -42 0 -8
-4 -11 -10 -8 -14 9 -12 45 3 45 6 0 -1 9 -16 19 l-29 18 56 24 c54 22 72 39
41 39 -12 0 -9 7 9 27 16 17 27 44 31 73 14 118 37 263 43 278 12 29 14 -97 3
-198z m636 -76 c32 -9 18 -24 -22 -24 -26 0 -33 3 -29 15 7 16 17 18 51 9z
m-1059 -194 c35 -22 142 -60 167 -60 8 0 15 7 15 15 0 11 8 13 32 8 22 -4 29
-3 24 5 -4 7 -2 12 3 12 6 0 11 -13 11 -30 0 -22 -10 -37 -41 -62 -23 -18 -44
-33 -48 -33 -6 0 -111 -111 -200 -213 -30 -34 -59 -58 -64 -55 -6 4 -8 -1 -4
-11 5 -13 3 -17 -7 -13 -10 4 -16 -2 -18 -21 -2 -17 -11 7 -26 70 l-23 96 35
50 c50 69 75 130 82 201 4 34 12 61 18 61 6 0 26 -9 44 -20z m110 -2 c-3 -7
-13 -15 -24 -17 -16 -3 -17 -1 -5 13 16 19 34 21 29 4z m-2019 -286 c12 -23
99 -329 135 -477 15 -60 32 -125 37 -143 6 -19 9 -36 6 -38 -15 -15 -53 90
-116 321 -40 143 -76 264 -81 269 -6 6 -59 2 -142 -12 -93 -15 -134 -19 -139
-11 -3 6 -22 14 -40 18 -45 9 -44 33 1 43 43 10 277 46 307 47 12 1 27 -7 32
-17z m-516 -39 c-7 -2 -21 -2 -30 0 -10 3 -4 5 12 5 17 0 24 -2 18 -5z m-155
-23 c-38 -11 -134 -24 -127 -16 8 9 86 24 124 24 l30 0 -27 -8z m685 -165 c20
-77 64 -243 98 -370 33 -126 83 -309 111 -405 28 -96 53 -183 55 -193 4 -12
-3 -20 -26 -28 -20 -7 -31 -18 -31 -30 0 -22 -15 -25 -23 -5 -4 11 -82 -11
-359 -101 -194 -63 -359 -120 -365 -125 -7 -6 -13 -21 -13 -34 0 -15 -6 -24
-15 -24 -8 0 -15 9 -15 20 0 22 -18 28 -24 8 -17 -56 -16 -55 -34 -30 l-17 22
-75 -23 c-73 -23 -75 -24 -72 -54 l3 -30 -210 -72 c-116 -40 -227 -75 -246
-78 -31 -5 -37 -3 -42 17 -5 18 -11 21 -37 16 -63 -12 2 21 107 53 56 17 116
37 132 45 17 7 226 77 465 156 239 78 532 175 650 215 l215 72 -3 33 c-6 51
-258 970 -270 982 -9 9 -32 8 -93 -1 -86 -13 -104 -10 -73 14 10 8 17 15 14
15 -3 0 -129 -23 -280 -50 -151 -28 -322 -59 -380 -70 -190 -34 -814 -149
-846 -156 -29 -5 -32 -4 -38 27 -3 18 -5 34 -3 35 2 2 66 15 143 28 311 56
721 128 914 161 304 53 534 96 540 101 2 3 27 4 55 2 l50 -3 38 -140z m-974
121 c-7 -8 -311 -57 -328 -54 -9 2 45 14 119 27 74 12 142 24 150 26 25 5 64
5 59 1z m463 -20 c7 4 8 2 4 -4 -4 -7 -19 -12 -33 -12 -26 0 -26 0 -7 21 16
18 19 19 22 5 2 -9 8 -13 14 -10z m-839 -43 c-7 -2 -19 -2 -25 0 -7 3 -2 5 12
5 14 0 19 -2 13 -5z m3087 -45 c0 -19 -29 -83 -34 -76 -2 1 -1 32 2 67 4 58 6
63 18 46 8 -10 14 -27 14 -37z m-3137 35 c-7 -2 -21 -2 -30 0 -10 3 -4 5 12 5
17 0 24 -2 18 -5z m-153 -22 c-8 -5 -61 -16 -117 -25 -56 -8 -120 -22 -142
-30 -23 -7 -41 -10 -41 -5 0 11 60 27 185 49 119 22 137 23 115 11z m3359 -74
c-75 -71 -141 -162 -193 -264 -28 -57 -53 -82 -41 -42 18 60 78 169 117 214
39 45 177 165 188 165 3 -1 -29 -33 -71 -73z m-2805 -67 c-12 -12 -112 -26
-101 -14 9 10 99 32 106 27 3 -2 0 -8 -5 -13z m-289 -50 c-3 -5 -17 -10 -31
-10 -14 0 -22 4 -19 10 3 6 17 10 31 10 14 0 22 -4 19 -10z m-270 -50 c-3 -5
-17 -10 -31 -10 -14 0 -22 4 -19 10 3 6 17 10 31 10 14 0 22 -4 19 -10z m-80
-9 c6 -11 -33 -26 -43 -16 -4 3 0 10 8 15 19 12 27 12 35 1z m980 -10 c-14
-14 -93 -26 -80 -13 6 6 21 12 35 15 45 8 54 7 45 -2z m-879 -20 c-8 -12 -46
-21 -46 -11 0 5 8 11 18 13 29 8 33 7 28 -2z m-86 -21 c0 -5 -4 -10 -10 -10
-5 0 -10 5 -10 10 0 6 5 10 10 10 6 0 10 -4 10 -10z m176 -20 c62 0 37 -24
-51 -48 -106 -30 -165 -38 -165 -24 0 6 10 14 21 17 17 6 19 9 8 16 -11 6 -11
11 -1 21 10 10 15 8 28 -10 8 -12 22 -22 30 -22 17 0 18 12 2 28 -18 18 -3 25
22 10 18 -11 22 -11 31 5 6 11 17 16 26 13 8 -3 30 -6 49 -6z m498 -51 c-27
-11 -44 -11 -44 0 0 11 40 20 54 12 5 -2 1 -8 -10 -12z m-875 -71 c25 -77 62
-211 58 -214 -1 -1 -23 -5 -49 -9 -40 -6 -47 -4 -52 12 -3 10 -19 69 -35 130
l-29 113 21 15 c44 31 64 20 86 -47z m3551 48 c0 -2 -47 -43 -105 -91 -58 -48
-105 -91 -105 -95 0 -7 -107 -89 -149 -115 -19 -11 -8 7 37 63 35 43 171 150
266 211 51 32 56 34 56 27z m-3320 -36 c0 -5 -2 -10 -4 -10 -3 0 -8 5 -11 10
-3 6 -1 10 4 10 6 0 11 -4 11 -10z m1280 -20 c-8 -5 -26 -9 -40 -9 -23 0 -23
1 -5 9 11 5 29 9 40 9 17 1 17 -1 5 -9z m-1190 -10 c0 -5 -12 -10 -27 -10 -22
0 -25 2 -13 10 20 13 40 13 40 0z m-75 -20 c-3 -5 -10 -10 -16 -10 -5 0 -9 5
-9 10 0 6 7 10 16 10 8 0 12 -4 9 -10z m60 -30 c-3 -5 -13 -10 -21 -10 -8 0
-12 5 -9 10 3 6 13 10 21 10 8 0 12 -4 9 -10z m-55 -8 c0 -5 -7 -9 -15 -9 -8
0 -15 4 -15 9 0 4 7 8 15 8 8 0 15 -4 15 -8z m1346 -1 c-7 -11 -66 -20 -66
-10 0 8 24 16 53 18 10 0 16 -3 13 -8z m-411 -10 c-11 -10 -126 -33 -132 -27
-3 2 24 11 59 19 78 19 85 20 73 8z m-845 -21 c-8 -5 -24 -10 -35 -10 -17 0
-17 2 -5 10 8 5 24 10 35 10 17 0 17 -2 5 -10z m5396 -111 c17 -57 46 -151 64
-208 l31 -103 44 6 c37 6 45 4 54 -13 24 -44 14 -58 -59 -87 -42 -16 -74 -24
-79 -18 -4 5 -41 115 -80 244 -40 129 -74 241 -76 247 -4 13 43 44 59 40 5 -2
24 -50 42 -108z m-5351 71 c-28 -12 -57 -12 -50 0 3 6 21 10 38 9 27 0 29 -2
12 -9z m115 -19 c-19 -12 -171 -43 -177 -37 -2 2 19 11 49 19 74 21 89 25 118
26 19 0 21 -2 10 -8z m826 -26 c-26 -19 -42 -19 -26 0 7 8 20 15 29 15 13 -1
13 -3 -3 -15z m4182 -12 c28 -39 242 -438 242 -450 0 -12 -23 -23 -48 -23 -10
0 -29 20 -44 45 -30 48 -43 53 -87 30 -34 -17 -41 -32 -41 -91 0 -37 -4 -46
-22 -53 -32 -12 -48 4 -48 48 0 20 -10 141 -22 269 -19 203 -20 235 -8 242 27
18 58 10 78 -17z m-4238 -3 c0 -5 -6 -10 -14 -10 -8 0 -23 -3 -33 -6 -16 -5
-16 -4 1 10 22 18 46 21 46 6z m-825 -19 c-3 -5 -20 -12 -38 -16 -17 -4 -40
-9 -49 -11 -33 -9 -19 13 15 24 41 13 80 15 72 3z m-385 -21 c0 -11 -2 -12
-195 -50 -82 -16 -226 -45 -320 -66 -215 -46 -233 -49 -220 -36 12 14 107 36
435 102 140 29 257 54 259 56 9 8 41 4 41 -6z m5214 -22 c8 -18 47 -135 86
-260 60 -188 71 -230 60 -243 -30 -36 -56 -19 -166 111 -60 70 -109 123 -111
117 -2 -5 15 -69 37 -141 22 -72 40 -136 40 -141 0 -6 -12 -18 -26 -27 -22
-15 -27 -15 -39 -3 -7 8 -43 111 -80 229 -95 301 -92 290 -69 307 10 7 28 12
39 11 11 -2 68 -59 129 -131 60 -70 111 -126 113 -124 1 2 -17 66 -42 143 -50
156 -52 171 -27 177 36 10 43 6 56 -25z m-4034 12 c0 -5 -10 -10 -22 -9 -22 0
-22 1 -3 9 11 5 21 9 23 9 1 1 2 -3 2 -9z m1970 -59 c-84 -123 -123 -234 -165
-466 -16 -90 -56 -195 -81 -216 -23 -19 -17 48 16 213 57 282 174 528 251 528
17 0 14 -8 -21 -59z m-3120 -6 c13 -38 2 -68 -47 -125 -24 -29 -28 -31 -34
-14 -4 11 -8 42 -8 70 -1 27 -6 55 -13 62 -9 9 -1 16 32 31 24 11 47 18 51 15
4 -2 13 -20 19 -39z m300 35 c-8 -5 -28 -9 -45 -9 -29 1 -29 1 -5 9 14 4 34 8
45 9 16 1 17 -1 5 -9z m730 -5 c-42 -16 -68 -19 -54 -6 10 10 40 18 69 19 12
0 6 -5 -15 -13z m-719 -41 c-18 -8 -38 -13 -45 -11 -14 6 32 26 59 26 14 -1
10 -5 -14 -15z m689 -4 c0 -11 -109 -45 -117 -36 -3 3 0 8 8 11 105 38 109 39
109 25z m-591 -20 c-9 -5 -36 -12 -60 -14 l-44 -6 40 14 c48 17 89 21 64 6z
m4408 -12 c14 -17 33 -76 108 -318 58 -188 62 -206 47 -218 -20 -15 -61 -27
-68 -20 -6 7 -164 520 -164 535 0 6 12 16 28 21 36 14 38 14 49 0z m-4442 -43
c-16 -8 -41 -14 -55 -14 -24 1 -24 1 5 14 17 8 41 14 55 14 24 -1 24 -1 -5
-14z m4295 -23 c0 -9 -12 -68 -26 -131 -30 -134 -42 -103 110 -265 55 -59 96
-112 93 -119 -6 -16 -76 -39 -92 -29 -7 4 -45 44 -86 89 l-74 83 -12 -28 c-18
-40 -16 -85 7 -149 11 -32 20 -61 20 -65 0 -9 -80 -51 -86 -46 -4 4 -154 492
-161 524 -6 24 13 42 55 50 l31 6 26 -88 c41 -133 42 -133 70 16 9 47 18 95
21 108 3 15 19 30 47 42 52 24 57 24 57 2z m-4611 -132 c0 -10 -3 -8 -9 5 -12
27 -12 43 0 25 5 -8 9 -22 9 -30z m6308 34 c-3 -3 -12 -4 -19 -1 -8 3 -5 6 6
6 11 1 17 -2 13 -5z m-5250 -20 c-16 -9 -32 -13 -35 -9 -9 9 19 25 43 24 16 0
15 -2 -8 -15z m293 -54 c-20 -13 -33 -13 -25 0 3 6 14 10 23 10 15 0 15 -2 2
-10z m580 0 c0 -5 -7 -10 -15 -10 -8 0 -15 5 -15 10 0 6 7 10 15 10 8 0 15 -4
15 -10z m-90 -19 c0 -6 -4 -13 -10 -16 -5 -3 -10 1 -10 9 0 9 5 16 10 16 6 0
10 -4 10 -9z m-580 -11 c0 -5 -2 -10 -4 -10 -3 0 -8 5 -11 10 -3 6 -1 10 4 10
6 0 11 -4 11 -10z m530 -10 c0 -5 -4 -10 -10 -10 -5 0 -10 5 -10 10 0 6 5 10
10 10 6 0 10 -4 10 -10z m-655 -30 c-3 -5 -15 -10 -26 -10 -11 0 -17 5 -14 10
3 6 15 10 26 10 11 0 17 -4 14 -10z m899 -73 c-24 -48 -65 -87 -91 -87 -22 0
-209 -66 -228 -80 -17 -13 -122 -23 -129 -12 -6 10 32 28 144 67 152 53 181
66 178 83 -2 11 16 24 62 43 35 15 68 25 72 23 4 -3 1 -20 -8 -37z m-1214 -11
c0 -3 -4 -8 -10 -11 -5 -3 -10 -1 -10 4 0 6 5 11 10 11 6 0 10 -2 10 -4z
m1350 -126 c0 -5 -5 -10 -11 -10 -6 0 -9 -6 -6 -14 7 -17 -11 -36 -35 -36 -22
0 -22 3 -3 40 15 28 55 43 55 20z m-622 -49 c100 -58 120 -76 179 -159 25 -35
48 -61 51 -58 3 4 -4 20 -16 36 -31 41 -28 56 6 35 57 -37 83 -70 102 -134 22
-69 18 -81 -26 -81 -39 0 -107 -30 -159 -69 -61 -46 -110 -118 -136 -199 -10
-31 -18 -52 -18 -46 -1 6 -15 11 -32 12 -37 1 -80 27 -73 45 3 8 -7 19 -23 26
-70 32 -78 38 -78 53 0 9 -3 20 -7 23 -4 4 -4 13 -1 21 3 8 1 14 -5 14 -6 0
-12 -6 -14 -12 -3 -8 -26 7 -57 37 -36 34 -74 58 -122 77 -65 25 -69 25 -69 7
0 -10 -7 -19 -15 -19 -22 0 -18 25 10 70 l25 39 95 -6 c110 -7 122 3 46 42
-27 13 -52 29 -56 35 -10 16 -43 12 -54 -7 -7 -12 -13 -15 -20 -8 -13 13 30
109 55 123 18 10 42 6 148 -29 69 -22 66 -22 66 -9 0 12 -63 39 -115 49 -32 6
-39 11 -37 26 4 25 57 75 78 75 14 0 72 -27 217 -102 15 -7 18 -6 15 8 -3 18
-8 21 -71 48 -48 20 -57 43 -28 68 33 26 47 23 139 -31z m-558 19 c0 -5 -4
-10 -10 -10 -5 0 -10 5 -10 10 0 6 5 10 10 10 6 0 10 -4 10 -10z m-70 -30 c0
-5 -7 -10 -16 -10 -8 0 -12 5 -9 10 3 6 10 10 16 10 5 0 9 -4 9 -10z m890 -15
c0 -8 -4 -15 -10 -15 -5 0 -10 7 -10 15 0 8 5 15 10 15 6 0 10 -7 10 -15z
m-83 -31 c-3 -3 -12 -4 -19 -1 -8 3 -5 6 6 6 11 1 17 -2 13 -5z m1027 -39 c-6
-35 -6 -36 22 -29 16 3 57 19 92 34 34 16 62 27 62 25 0 -1 -49 -35 -109 -73
l-109 -71 -12 -53 c-21 -90 -54 -141 -124 -197 -52 -42 -72 -66 -101 -123 -19
-39 -35 -79 -35 -89 0 -10 -4 -21 -10 -24 -12 -8 -12 -13 1 82 13 95 31 125
121 205 79 71 93 93 103 163 12 93 17 107 52 146 44 48 56 49 47 4z m-2684
-89 c0 -14 -13 -82 -30 -151 -16 -69 -30 -153 -30 -186 0 -32 -3 -59 -6 -59
-3 0 -17 9 -31 20 -37 29 -97 27 -128 -5 -28 -27 -31 -45 -13 -63 19 -19 52
-14 63 11 6 12 16 21 23 19 7 -1 12 5 12 13 0 21 15 19 46 -8 23 -20 25 -26
14 -43 -9 -15 -10 -26 -2 -40 10 -18 11 -18 20 6 6 15 13 56 17 92 l7 67 92
-6 c87 -6 97 -9 233 -75 78 -37 144 -68 147 -68 2 0 51 -22 108 -49 225 -108
727 -334 793 -358 65 -23 89 -25 142 -8 18 6 32 -3 74 -45 33 -33 48 -55 42
-61 -24 -24 -666 -291 -1173 -489 -410 -159 -418 -162 -430 -155 -17 10 10 37
32 32 10 -3 21 -1 24 4 3 5 13 9 23 9 10 0 26 9 35 19 10 11 30 24 45 31 15 6
28 16 29 23 8 59 8 60 -27 69 -32 9 -33 11 -28 48 4 30 1 43 -14 56 -27 24
-24 44 7 44 22 0 24 2 14 15 -14 16 -6 35 16 35 8 0 14 5 14 10 0 6 -16 10
-35 10 -28 0 -38 5 -47 25 -6 14 -16 25 -21 25 -6 0 -8 2 -5 5 3 3 74 -29 159
-72 191 -96 216 -99 335 -38 201 103 356 190 379 213 29 29 32 61 8 91 -18 20
-526 269 -690 337 -98 41 -123 42 -197 8 l-57 -26 -46 36 c-30 23 -57 36 -76
36 -33 0 -98 -29 -137 -62 -15 -12 -3 -8 32 11 32 17 62 31 68 31 6 0 10 -35
10 -87 0 -92 -13 -143 -56 -223 -13 -25 -29 -64 -34 -87 -9 -35 -18 -47 -50
-63 -48 -24 -51 -40 -10 -40 l30 0 -1 -90 c-2 -89 8 -120 36 -120 20 0 39 -46
26 -62 -6 -7 -20 -24 -31 -38 l-20 -25 -6 23 c-6 21 -7 21 -19 5 -11 -14 -18
-16 -41 -8 -40 14 -71 83 -85 188 l-11 87 61 66 c34 35 61 70 61 77 0 7 -10 0
-23 -14 -12 -14 -48 -47 -79 -73 l-57 -48 -3 59 c-4 53 -5 55 -12 25 -8 -32
-9 -32 -55 -26 -25 3 -58 1 -73 -5 -25 -9 -29 -8 -43 19 -8 15 -16 43 -17 62
-3 32 -2 33 40 36 51 4 54 16 8 32 -44 14 -65 39 -73 84 -7 45 12 49 48 10 33
-36 94 -74 119 -74 15 0 4 16 -47 64 -63 61 -66 66 -55 91 15 32 15 68 1 82
-8 8 -8 17 1 32 6 12 8 30 5 40 -6 20 18 36 38 24 7 -3 4 3 -6 14 -16 19 -16
21 -2 27 9 3 24 6 32 6 9 0 31 10 50 21 l35 22 -42 38 c-23 21 -39 43 -35 49
9 15 26 12 48 -7 11 -10 17 -12 13 -5 -4 6 -3 12 2 12 6 0 12 -7 16 -15 6 -17
42 -20 51 -5 10 17 25 11 25 -10 0 -23 18 -27 26 -6 8 22 -24 75 -52 88 -21
10 -35 9 -74 -5 -78 -28 -105 -23 -150 26 -42 44 -50 63 -25 53 12 -4 14 0 9
19 -4 18 -2 25 8 25 17 0 54 37 45 46 -3 3 -20 -1 -38 -10 -41 -21 -58 -8 -70
56 -10 55 -11 168 -1 168 15 0 89 -44 152 -90 36 -26 74 -49 85 -51 28 -5 67
-85 61 -124 -3 -17 1 -41 9 -55 14 -25 14 -24 15 18 0 24 5 42 11 42 11 0 9
28 -7 80 l-7 25 27 -24 c26 -24 26 -24 26 -3 0 29 10 28 37 -5 l22 -28 1 38
c0 23 4 36 10 32 6 -3 10 -30 10 -58 0 -51 13 -88 25 -75 4 4 7 34 7 68 0 57
2 62 27 71 14 6 49 32 76 59 47 45 110 90 128 90 4 0 7 -11 7 -24z m990 1 c0
-25 -34 -46 -130 -77 -52 -18 -104 -37 -115 -44 -11 -7 -58 -25 -105 -39 -106
-31 -160 -54 -160 -67 0 -8 180 -100 196 -100 3 0 29 -11 57 -24 223 -105 292
-130 353 -131 54 0 74 -7 195 -68 118 -59 139 -73 172 -118 20 -27 37 -54 37
-59 0 -14 -46 -23 -83 -17 -18 3 -162 65 -322 137 -159 73 -407 184 -550 247
-143 63 -266 121 -274 128 -22 21 -7 31 92 64 64 22 110 31 152 30 51 -1 90
10 265 75 113 41 208 75 213 76 4 0 7 -6 7 -13z m-715 -27 c-5 -8 -11 -8 -17
-2 -6 6 -7 16 -3 22 5 8 11 8 17 2 6 -6 7 -16 3 -22z m1841 -56 c-5 -12 -2
-15 9 -10 9 3 44 -1 78 -8 94 -22 201 -31 193 -17 -5 8 12 11 58 11 35 0 71 3
80 6 36 14 11 -22 -73 -104 -49 -48 -96 -101 -104 -118 -9 -17 -22 -34 -30
-37 -24 -9 -83 19 -143 68 -79 65 -112 77 -182 70 -52 -5 -62 -3 -112 26 -48
28 -52 33 -35 40 91 37 233 88 249 88 13 1 16 -4 12 -15z m-236 -134 c43 -22
55 -46 18 -34 -34 10 -76 32 -83 44 -10 17 23 11 65 -10z m225 -49 c17 -10 50
-37 75 -59 l45 -41 -31 -1 c-20 0 -45 11 -69 30 -55 43 -108 49 -230 24 -53
-11 -12 17 62 42 83 29 109 29 148 5z m205 -140 c-5 -11 -22 -29 -37 -41 -24
-19 -28 -20 -31 -6 -4 18 -28 20 -87 6 -22 -5 -42 -7 -45 -4 -14 15 116 62
173 63 34 1 37 -1 27 -18z m-3070 -131 c0 -5 -5 -10 -11 -10 -5 0 -7 5 -4 10
3 6 8 10 11 10 2 0 4 -4 4 -10z m-554 -229 c158 -88 206 -123 188 -141 -8 -8
-36 3 -95 35 -46 25 -131 69 -188 97 l-104 51 -51 -13 c-28 -7 -103 -31 -166
-52 -201 -69 -278 -82 -220 -38 26 19 85 43 275 112 156 56 172 53 361 -51z
m1199 69 c3 -5 1 -10 -4 -10 -6 0 -11 5 -11 10 0 6 2 10 4 10 3 0 8 -4 11 -10z
m580 -107 c85 -43 153 -78 152 -79 -1 0 -81 2 -177 5 l-175 6 3 35 c6 80 14
110 28 110 9 0 84 -35 169 -77z m3105 37 c0 -5 -4 -10 -10 -10 -5 0 -10 5 -10
10 0 6 5 10 10 10 6 0 10 -4 10 -10z m-2102 -23 c2 -10 -3 -17 -12 -17 -10 0
-16 9 -16 21 0 24 23 21 28 -4z m-2308 -1 c0 -3 -4 -8 -10 -11 -5 -3 -10 -1
-10 4 0 6 5 11 10 11 6 0 10 -2 10 -4z m4430 -16 c0 -5 -4 -10 -10 -10 -5 0
-10 5 -10 10 0 6 5 10 10 10 6 0 10 -4 10 -10z m40 -75 c0 -8 -4 -15 -9 -15
-13 0 -22 16 -14 24 11 11 23 6 23 -9z m32 -54 c2 -17 1 -28 -4 -25 -8 5 -12
54 -4 54 2 0 6 -13 8 -29z m-5113 -5 c45 -16 52 -36 13 -36 -42 0 -92 20 -92
36 0 17 32 17 79 0z m161 -51 c0 -11 5 -12 23 -6 27 10 86 -7 100 -30 11 -17
2 -69 -12 -69 -5 0 -11 10 -15 23 -7 28 -44 47 -90 47 -21 0 -36 6 -40 15 -11
30 -53 8 -69 -38 -6 -16 -1 -17 58 -11 44 5 65 3 65 -4 0 -15 -61 -31 -142
-39 -78 -7 -87 4 -32 37 23 15 33 27 29 38 -3 8 2 23 11 33 22 24 114 27 114
4z m458 -85 c17 -11 32 -15 32 -10 0 17 17 11 50 -16 17 -15 48 -35 68 -46 33
-16 38 -17 48 -3 9 12 20 13 58 6 26 -5 56 -7 65 -4 15 4 20 -6 29 -66 7 -39
17 -82 24 -97 11 -23 13 -24 20 -7 6 13 7 10 3 -9 -4 -20 2 -36 25 -61 34 -39
38 -65 13 -74 -10 -3 -26 -13 -36 -22 -17 -14 -20 -14 -32 2 -11 15 -14 15
-25 2 -32 -38 -68 1 -125 136 -67 162 -75 179 -81 179 -3 0 -2 -20 1 -44 7
-46 -9 -116 -26 -116 -5 0 -9 -4 -9 -10 0 -5 9 -10 19 -10 24 0 51 -36 51 -66
0 -20 -37 -54 -58 -54 -5 0 -14 10 -20 23 -8 17 -11 18 -11 5 -1 -10 -8 -18
-16 -18 -31 0 -251 92 -275 115 l-24 25 65 -6 c52 -5 67 -3 78 10 7 9 21 16
31 16 10 0 23 7 30 15 12 15 12 15 -25 130 -30 92 -30 95 -4 95 13 0 39 -9 57
-20z m792 -45 c28 -14 50 -29 50 -34 0 -5 -18 0 -39 12 -38 21 -40 21 -59 3
-16 -14 -24 -15 -41 -6 -23 12 -28 36 -8 43 25 11 49 6 97 -18z m-1270 -6 c0
-6 -13 -24 -29 -40 -30 -30 -51 -37 -51 -18 0 6 13 24 29 40 30 30 51 37 51
18z m-143 -35 c-31 -26 -42 -25 -50 5 -4 16 1 19 37 19 l41 1 -28 -25z m1013
-46 c0 -32 -3 -39 -10 -28 -13 20 -13 70 0 70 6 0 10 -19 10 -42z m206 14 c16
-10 30 -57 14 -47 -6 4 -18 -1 -25 -11 -13 -17 -14 -15 -15 24 0 42 5 48 26
34z m284 -17 c0 -9 -9 -15 -21 -15 -18 0 -19 2 -9 15 7 8 16 15 21 15 5 0 9
-7 9 -15z m-700 -129 c-16 -17 -30 6 -29 47 l0 42 19 -40 c9 -22 14 -44 10
-49z m-445 23 c11 -17 -1 -21 -15 -4 -8 9 -8 15 -2 15 6 0 14 -5 17 -11z
m4171 -29 c172 -31 194 -40 194 -82 0 -22 1 -22 -38 -2 -37 18 -334 94 -369
94 -12 0 -23 5 -23 10 0 17 59 12 236 -20z m-4125 -27 c39 -23 36 -33 -11 -34
-22 -1 -46 -2 -52 -3 -7 -1 -14 8 -16 18 -3 14 0 17 12 13 10 -4 16 -1 16 8 0
20 15 19 51 -2z m930 -44 c46 -25 59 -37 59 -55 0 -32 -25 -46 -175 -98 -194
-67 -475 -178 -648 -258 -90 -41 -117 -43 -117 -9 0 34 69 67 541 264 176 74
244 107 244 118 0 17 25 69 33 69 2 0 31 -14 63 -31z m-816 -9 c23 -9 25 -13
15 -25 -7 -8 -18 -15 -25 -15 -7 0 -18 -7 -25 -15 -18 -22 -27 -19 -33 12 -3
18 0 31 11 40 21 15 24 15 57 3z m913 -108 c2 -7 -16 -17 -42 -24 -43 -11 -45
-13 -29 -30 9 -10 14 -19 12 -21 -2 -1 -33 2 -69 8 l-65 11 78 28 c43 16 80
33 83 38 7 11 27 5 32 -10z m3030 -29 c28 -9 52 -20 52 -23 0 -4 -24 -1 -52 7
-29 7 -88 16 -130 20 -47 3 -75 10 -71 16 8 13 134 1 201 -20z m-263 -13 c-3
-5 -13 -10 -21 -10 -8 0 -12 5 -9 10 3 6 13 10 21 10 8 0 12 -4 9 -10z m-2785
-31 c0 -6 -4 -7 -10 -4 -5 3 -10 11 -10 16 0 6 5 7 10 4 6 -3 10 -11 10 -16z
m3219 -9 c62 -19 125 -49 76 -36 -56 14 -165 48 -165 52 0 8 24 4 89 -16z
m-752 -66 c2 -6 -4 -21 -14 -33 l-18 -21 -205 26 c-113 14 -209 30 -215 35 -6
6 81 8 219 7 156 -2 231 -7 233 -14z"/>
<path d="M6087 3986 c-14 -13 -23 -27 -20 -30 11 -11 23 -6 23 9 0 9 7 15 17
13 10 -2 19 4 21 15 5 24 -10 21 -41 -7z"/>
<path d="M7685 2725 c9 -98 17 -117 48 -106 34 13 31 40 -14 116 l-40 70 6
-80z"/>
<path d="M3644 2021 c3 -5 20 -11 37 -13 29 -5 30 -4 14 9 -21 14 -59 18 -51
4z"/>
<path d="M3665 1960 c3 -5 11 -10 16 -10 6 0 7 5 4 10 -3 6 -11 10 -16 10 -6
0 -7 -4 -4 -10z"/>
<path d="M3580 1890 c0 -5 7 -10 15 -10 8 0 15 5 15 10 0 6 -7 10 -15 10 -8 0
-15 -4 -15 -10z"/>
<path d="M1705 1987 c17 -12 53 -43 81 -69 52 -49 83 -66 48 -27 -33 37 -134
119 -147 119 -7 0 2 -11 18 -23z"/>
<path d="M2260 1918 c-16 -22 -30 -46 -30 -52 0 -6 6 -2 12 9 6 11 24 35 41
53 17 17 26 32 19 32 -7 0 -25 -19 -42 -42z"/>
<path d="M2300 1793 c0 -25 15 -38 25 -22 4 6 0 18 -9 27 -15 15 -16 15 -16
-5z"/>
<path d="M2177 1753 c-11 -10 -8 -53 3 -53 6 0 10 14 10 30 0 31 -2 35 -13 23z"/>
<path d="M1892 1718 c3 -7 15 -15 28 -16 21 -3 22 -2 11 12 -16 19 -44 21 -39
4z"/>
<path d="M2285 1570 c-3 -5 -1 -10 4 -10 6 0 11 5 11 10 0 6 -2 10 -4 10 -3 0
-8 -4 -11 -10z"/>
<path d="M2260 1530 c0 -5 5 -10 10 -10 6 0 10 5 10 10 0 6 -4 10 -10 10 -5 0
-10 -4 -10 -10z"/>
<path d="M2080 1492 c0 -11 22 -32 32 -32 5 0 4 9 -2 20 -11 20 -30 28 -30 12z"/>
<path d="M2080 1420 c-11 -7 1 -9 40 -9 42 1 49 3 30 9 -35 11 -53 11 -70 0z"/>
<path d="M1989 1364 c18 -8 47 -17 65 -20 l31 -4 -35 13 c-19 8 -48 17 -65 20
-30 6 -30 6 4 -9z"/>
<path d="M2117 1051 c-4 -17 -3 -21 5 -13 5 5 8 16 6 23 -3 8 -7 3 -11 -10z"/>
<path d="M2057 829 c8 -8 16 -8 30 0 16 9 14 10 -11 11 -22 0 -27 -3 -19 -11z"/>
<path d="M1830 790 c-11 -7 -6 -10 22 -10 20 0 40 5 43 10 8 13 -45 13 -65 0z"/>
<path d="M1598 663 c7 -3 16 -2 19 1 4 3 -2 6 -13 5 -11 0 -14 -3 -6 -6z"/>
<path d="M5587 4332 c-24 -26 -40 -113 -30 -164 7 -35 14 -46 40 -58 22 -10
31 -20 27 -30 -26 -65 -26 -130 0 -130 25 0 104 96 112 135 14 77 -14 182 -62
230 -39 39 -63 44 -87 17z m93 -78 c0 -21 -17 -17 -34 8 -23 33 -20 41 9 22
14 -9 25 -23 25 -30z m40 -96 c0 -13 -4 -29 -9 -36 -11 -18 -24 13 -16 39 9
26 25 24 25 -3z"/>
<path d="M5062 4215 c-15 -12 -33 -53 -63 -148 -44 -141 -54 -161 -69 -137 -5
8 -13 11 -17 6 -12 -12 45 -56 72 -56 14 0 25 7 27 18 3 13 8 11 21 -13 l18
-30 -6 35 c-3 19 -8 49 -11 65 -5 31 32 115 55 123 17 6 41 -61 44 -123 2 -53
10 -69 20 -42 3 6 3 60 0 119 l-6 107 37 17 c40 20 45 33 18 57 -24 22 -110
23 -140 2z"/>
<path d="M5255 3930 c-10 -11 -38 -30 -61 -42 -46 -23 -80 -54 -110 -103 -14
-22 9 -7 83 53 55 45 107 89 113 97 19 23 -4 18 -25 -5z"/>
<path d="M5240 3015 c-30 -7 -127 -29 -215 -48 -236 -53 -618 -146 -624 -153
-9 -9 55 3 214 40 77 19 212 50 300 71 263 61 410 97 414 101 8 7 -33 2 -89
-11z"/>
<path d="M765 2790 c-3 -5 -1 -10 4 -10 6 0 11 5 11 10 0 6 -2 10 -4 10 -3 0
-8 -4 -11 -10z"/>
<path d="M4710 2430 c0 -5 7 -10 16 -10 8 0 12 5 9 10 -3 6 -10 10 -16 10 -5
0 -9 -4 -9 -10z"/>
<path d="M4585 2049 c-10 -15 3 -25 16 -12 7 7 7 13 1 17 -6 3 -14 1 -17 -5z"/>
</g>
</svg>
