<?xml version="1.0" standalone="no"?>
<!DOCTYPE svg PUBLIC "-//W3C//DTD SVG 20010904//EN"
 "http://www.w3.org/TR/2001/REC-SVG-20010904/DTD/svg10.dtd">
<svg version="1.0" xmlns="http://www.w3.org/2000/svg"
 width="553.000000pt" height="436.000000pt" viewBox="0 0 553.000000 436.000000"
 preserveAspectRatio="xMidYMid meet">

<g transform="translate(0.000000,436.000000) scale(0.100000,-0.100000)"
fill="#000000" stroke="none">
<path d="M0 2180 l0 -2180 2765 0 2765 0 0 2180 0 2180 -2765 0 -2765 0 0
-2180z m3614 1702 c8 -14 -6 -52 -17 -45 -7 4 -8 -12 -4 -48 6 -49 6 -52 -7
-29 -15 28 -29 133 -20 143 7 7 40 -8 48 -21z m-94 -67 c0 -23 -3 -27 -10 -15
-5 8 -10 29 -10 45 0 23 3 27 10 15 5 -8 10 -28 10 -45z m24 -75 l17 -35 -21
24 c-11 13 -20 30 -20 39 0 19 3 15 24 -28z m293 -26 c-3 -3 -12 -4 -19 -1 -8
3 -5 6 6 6 11 1 17 -2 13 -5z m-62 -31 c4 -16 10 -46 15 -68 23 -101 23 -100
-14 -153 -20 -27 -36 -54 -36 -60 0 -6 -9 -29 -21 -51 -29 -56 -19 -101 22
-101 16 0 29 5 29 12 0 6 11 -2 25 -18 l25 -29 0 27 c0 15 -4 30 -10 33 -20
12 -10 45 16 55 29 12 64 -2 64 -25 0 -8 5 -15 10 -15 6 0 10 6 10 14 0 7 6
19 14 25 25 21 30 -9 7 -40 l-22 -30 37 16 c20 8 38 15 40 15 2 0 4 -15 4 -34
0 -24 7 -39 22 -50 17 -12 21 -25 21 -58 -1 -47 15 -73 52 -82 31 -8 39 -46
36 -163 -2 -79 0 -92 12 -87 25 9 30 -15 9 -41 -14 -17 -22 -21 -25 -13 -3 7
-10 -2 -17 -19 -22 -59 -80 -39 -120 41 -8 16 -25 35 -37 44 -27 17 -29 39 -6
64 14 15 14 18 2 13 -9 -3 -22 2 -29 11 -12 14 -9 20 24 50 21 19 42 34 47 34
13 0 11 -24 -3 -38 -7 -7 -8 -12 -2 -12 12 0 34 43 34 65 0 20 -13 19 -43 -5
-14 -11 -28 -20 -32 -20 -3 0 -20 -13 -38 -30 -50 -47 -62 -39 -69 45 -3 35
-26 36 -67 4 -34 -27 -42 -13 -25 51 21 81 18 121 -12 166 -15 21 -31 42 -36
45 -12 7 -27 166 -28 281 l0 86 48 35 c26 20 50 36 54 36 4 1 10 -11 13 -26z
m446 -133 c-11 -23 -23 -63 -27 -88 -6 -40 -8 -43 -15 -23 -13 35 1 99 29 132
33 39 38 31 13 -21z m584 -158 c-8 -8 -25 10 -19 20 4 6 9 5 15 -3 4 -7 6 -15
4 -17z m-566 -75 c1 -5 -3 -5 -9 -2 -5 3 -10 16 -9 28 0 21 1 21 9 2 5 -11 9
-24 9 -28z m111 -7 c0 -9 -3 -12 -49 -50 -35 -29 -48 -24 -20 8 43 49 69 65
69 42z m-2560 -149 c0 -11 -4 -22 -9 -25 -12 -8 -34 21 -26 34 11 17 35 11 35
-9z m136 8 c9 -15 -10 -31 -29 -24 -8 4 -18 13 -21 21 -7 17 39 20 50 3z
m-1512 -29 c-15 -15 -136 -18 -141 -2 -4 9 15 12 73 12 52 0 75 -3 68 -10z
m806 -18 c0 -13 -8 -17 -38 -16 -51 1 -106 15 -93 24 6 3 38 7 71 8 51 1 60
-1 60 -16z m149 3 c13 -14 -22 -26 -65 -23 -39 2 -50 7 -52 22 -4 17 1 18 54
12 32 -4 60 -9 63 -11z m226 -8 c-116 -15 -197 -15 -202 1 -4 9 28 12 139 11
l143 -2 -80 -10z m605 -6 c0 -16 -20 -23 -33 -13 -7 6 -23 12 -37 15 -15 2 -5
5 23 6 26 0 47 -3 47 -8z m430 2 c22 -7 21 -8 -15 -13 -39 -5 -40 -6 -43 -47
l-3 -43 -94 0 -94 0 -3 38 -3 37 -55 3 c-30 1 -66 5 -80 9 -24 6 -23 7 10 13
48 10 349 11 380 3z m-746 -62 c3 -5 -3 -20 -14 -34 -25 -32 -25 -36 0 -30 14
4 20 0 20 -11 0 -9 -9 -25 -20 -36 -11 -11 -20 -24 -20 -30 0 -5 -4 -10 -10
-10 -11 0 -13 80 -4 129 6 30 35 44 48 22z m-794 -41 c24 -8 24 -8 -7 -9 -17
-1 -35 4 -38 9 -7 11 9 11 45 0z m1455 -25 c0 -5 -33 -11 -72 -13 -43 -2 -73
1 -73 7 0 5 10 12 23 14 38 8 122 2 122 -8z m-1473 -23 c72 -2 89 -13 69 -44
-11 -17 -11 -22 0 -29 10 -6 11 -15 4 -35 -13 -36 -29 -40 -54 -13 -17 18 -24
20 -33 11 -10 -10 -10 -17 0 -33 7 -11 10 -24 8 -28 -3 -5 15 -6 39 -3 41 4
45 3 39 -14 -4 -11 -10 -23 -14 -29 -4 -5 -10 -22 -14 -37 -3 -16 -11 -28 -16
-28 -5 0 -17 -15 -26 -32 -17 -33 -16 -33 3 -15 11 9 24 17 30 17 17 0 38 -31
27 -38 -6 -4 -20 -24 -32 -44 -27 -43 -77 -78 -103 -71 -11 3 -19 8 -19 12 -1
3 -12 20 -26 36 -32 37 -23 17 25 -54 24 -35 37 -48 39 -37 2 9 9 16 15 16 7
1 28 22 47 48 l35 47 3 -47 c3 -48 9 -56 27 -39 6 5 96 14 200 21 105 6 242
15 305 20 63 5 152 9 197 9 l81 1 4 -54 c1 -30 1 -53 -2 -51 -9 5 -45 -73 -69
-150 -13 -38 -27 -79 -32 -90 -5 -11 -8 -104 -7 -207 3 -200 6 -211 50 -171
13 12 18 31 18 75 0 32 4 58 9 58 5 0 9 43 10 95 2 113 4 120 49 163 37 35 50
37 66 7 6 -11 23 -39 38 -62 16 -23 28 -45 28 -48 0 -4 18 -37 40 -75 46 -78
49 -96 18 -106 l-21 -6 24 -19 c32 -25 47 -24 47 4 0 12 3 32 7 44 5 15 1 27
-13 41 -14 14 -20 34 -20 66 0 54 -10 88 -23 80 -5 -3 -8 -2 -7 3 1 4 -4 18
-11 31 -14 27 -16 53 -13 221 l2 123 108 -7 c59 -4 114 -11 122 -15 8 -4 60
-10 115 -13 74 -4 87 -3 50 3 -61 11 -172 27 -285 41 -116 15 -152 27 -80 28
48 0 101 -5 260 -23 19 -3 69 -7 110 -11 111 -9 140 -16 140 -31 0 -10 -14
-14 -47 -15 l-48 -1 47 -10 47 -10 -2 -357 -2 -356 -100 -12 c-55 -7 -165 -19
-245 -27 -80 -9 -154 -18 -165 -21 -11 -3 -85 -12 -165 -20 -80 -8 -176 -20
-215 -26 -38 -6 -91 -9 -118 -7 -26 2 -47 0 -47 -4 0 -5 -15 -8 -34 -8 -19 0
-46 -4 -61 -10 -14 -5 -75 -13 -135 -16 l-110 -7 -1 34 c-1 35 -3 33 -13 -12
-5 -23 -13 -27 -73 -38 -38 -6 -108 -16 -158 -22 -49 -5 -142 -16 -205 -24
-63 -8 -176 -21 -250 -29 -74 -9 -162 -20 -196 -26 -33 -5 -68 -10 -78 -10
-16 0 -17 29 -14 452 l3 452 75 13 c41 7 84 18 95 23 11 5 43 14 70 20 28 7
97 22 155 36 58 13 136 24 174 24 l69 0 -8 -82 c-12 -132 -3 -250 18 -229 6 6
31 11 56 11 27 0 51 6 63 17 17 15 20 15 48 -12 17 -16 30 -32 30 -37 0 -4 9
-17 20 -28 11 -11 20 -32 20 -47 0 -21 3 -24 12 -15 9 9 6 21 -12 54 -13 24
-29 47 -37 51 -17 10 -17 37 0 37 12 0 53 29 87 61 9 9 37 19 60 23 44 7 70
21 70 37 0 16 -32 10 -46 -8 -13 -17 -15 -17 -27 -1 -12 16 -15 16 -30 1 -18
-18 -47 -11 -47 13 0 9 -9 27 -20 41 -15 20 -17 29 -9 39 7 9 7 14 1 14 -5 0
-15 14 -22 31 -10 24 -15 28 -21 16 -11 -19 -86 -30 -143 -22 -41 7 -45 10
-48 39 -2 17 -8 30 -14 29 -62 -11 -117 -13 -104 -4 8 6 34 11 58 11 48 0 51
6 27 84 -17 56 -20 158 -5 186 5 10 26 28 45 40 46 28 65 66 66 132 1 29 3 46
6 37 3 -12 19 -16 65 -17z m73 18 c3 -5 1 -10 -4 -10 -6 0 -11 5 -11 10 0 6 2
10 4 10 3 0 8 -4 11 -10z m3305 -14 c0 -2 -33 -37 -72 -79 -54 -54 -85 -97
-116 -161 -24 -47 -45 -86 -46 -86 -8 0 13 69 37 121 25 55 88 128 157 181 37
29 40 30 40 24z m-3760 -21 c10 -12 10 -19 2 -27 -15 -15 -43 8 -35 28 7 18
17 18 33 -1z m164 -21 c37 -36 1 -103 -48 -90 -40 10 -51 68 -18 94 22 16 47
15 66 -4z m1690 -7 c-10 -32 -14 -34 -29 -14 -9 12 -14 14 -17 6 -5 -15 -28
-3 -28 14 0 8 16 13 40 14 38 2 40 0 34 -20z m-104 3 c8 12 10 11 10 -7 0 -16
-6 -23 -20 -23 -14 0 -20 7 -20 23 0 18 2 19 10 7 9 -13 11 -13 20 0z m-1725
-50 c4 -6 -5 -10 -19 -10 -16 0 -26 -6 -26 -15 0 -9 9 -15 25 -15 27 0 32 -9
13 -28 -9 -9 -8 -19 5 -44 9 -18 18 -61 20 -96 l3 -63 -35 3 c-29 2 -37 8 -39
26 -3 18 1 22 22 22 15 0 26 6 26 14 0 9 -8 12 -24 9 -22 -5 -24 -1 -30 54 -4
32 -9 79 -12 106 l-6 47 35 0 c20 0 39 -4 42 -10z m1287 -10 c13 -10 31 -25
40 -32 9 -7 19 -31 22 -53 4 -31 4 -34 -3 -15 -9 24 -9 24 -10 3 -1 -25 -31
-33 -31 -9 0 23 -19 29 -36 11 -36 -36 -85 5 -51 43 9 9 19 29 22 45 8 32 17
34 47 7z m-128 -49 c10 -9 16 -28 15 -55 0 -22 -3 -34 -6 -26 -3 8 -14 27 -24
42 -11 14 -19 41 -18 60 0 27 2 29 9 13 4 -12 15 -27 24 -34z m-510 -17 c5
-14 4 -15 -9 -4 -17 14 -19 20 -6 20 5 0 12 -7 15 -16z m-37 -34 c-2 -25 -30
-23 -35 3 -2 11 3 17 17 17 14 0 19 -6 18 -20z m-131 -14 c18 -18 18 -36 1
-36 -18 0 -49 34 -40 43 10 11 23 8 39 -7z m579 -6 c8 -13 -4 -50 -16 -50 -5
0 -9 14 -9 30 0 30 13 40 25 20z m-511 -36 c24 -9 20 -24 -16 -61 -31 -32 -71
-43 -83 -23 -4 6 11 28 32 50 41 42 44 43 67 34z m716 -14 c-12 -23 -60 -28
-60 -7 0 20 10 27 42 27 26 0 28 -2 18 -20z m-622 -2 c-6 -18 -28 -21 -28 -4
0 9 7 16 16 16 9 0 14 -5 12 -12z m-213 -8 c11 -17 -5 -32 -21 -19 -7 6 -11
15 -8 20 7 12 21 11 29 -1z m675 0 c0 -5 -5 -10 -11 -10 -5 0 -7 5 -4 10 3 6
8 10 11 10 2 0 4 -4 4 -10z m660 -15 c0 -26 -14 -33 -25 -15 -9 14 1 40 15 40
5 0 10 -11 10 -25z m100 21 c0 -3 -4 -8 -10 -11 -5 -3 -10 -1 -10 4 0 6 5 11
10 11 6 0 10 -2 10 -4z m45 -6 c3 -5 -1 -10 -9 -10 -9 0 -16 5 -16 10 0 6 4
10 9 10 6 0 13 -4 16 -10z m-1765 -25 c0 -8 -2 -15 -4 -15 -2 0 -6 7 -10 15
-3 8 -1 15 4 15 6 0 10 -7 10 -15z m3469 8 c0 -5 -45 -46 -99 -93 -100 -86
-117 -107 -79 -95 16 5 9 -5 -22 -37 -64 -65 -83 -94 -117 -178 -23 -57 -34
-104 -57 -231 -19 -106 -75 -213 -75 -144 0 73 72 364 93 373 4 2 7 9 7 15 0
6 19 49 42 96 50 101 110 169 211 237 40 27 74 52 75 57 2 4 8 7 13 7 5 0 9
-3 8 -7z m-2401 -23 c13 0 22 -6 22 -15 0 -20 -8 -19 -55 6 -26 14 -31 19 -15
15 14 -3 35 -6 48 -6z m-1098 -15 c0 -10 -11 -15 -35 -15 -33 0 -43 8 -28 23
13 14 63 7 63 -8z m498 -18 c3 -23 -1 -27 -20 -27 -39 0 -51 20 -26 42 27 23
42 19 46 -15z m83 23 c27 -15 24 -26 -13 -39 -38 -14 -55 -2 -39 28 13 24 23
26 52 11z m1059 -25 c0 -8 -4 -15 -10 -15 -5 0 -10 7 -10 15 0 8 5 15 10 15 6
0 10 -7 10 -15z m-1874 -10 c-25 -19 -36 -19 -36 0 0 10 10 15 28 15 26 -1 26
-1 8 -15z m1264 -6 c0 -5 -4 -9 -10 -9 -5 0 -10 7 -10 16 0 8 5 12 10 9 6 -3
10 -10 10 -16z m-1010 -19 c0 -5 -4 -10 -9 -10 -6 0 -13 5 -16 10 -3 6 1 10 9
10 9 0 16 -4 16 -10z m310 -20 c0 -5 -5 -10 -11 -10 -5 0 -7 5 -4 10 3 6 8 10
11 10 2 0 4 -4 4 -10z m45 0 c-3 -5 -10 -10 -16 -10 -5 0 -9 5 -9 10 0 6 7 10
16 10 8 0 12 -4 9 -10z m605 0 c0 -5 -19 -10 -42 -11 -80 -1 -333 -17 -470
-29 -136 -12 -198 -8 -152 10 11 5 104 12 205 16 101 4 195 10 209 15 38 11
250 11 250 -1z m280 -40 c0 -5 -7 -10 -15 -10 -8 0 -15 5 -15 10 0 6 7 10 15
10 8 0 15 -4 15 -10z m-35 -28 c-3 -3 -11 0 -18 7 -9 10 -8 11 6 5 10 -3 15
-9 12 -12z m-1490 -41 c-6 -4 -53 -19 -105 -31 -52 -13 -110 -30 -128 -37 -34
-15 -62 -12 -62 7 0 16 44 31 145 50 102 20 164 24 150 11z m530 -41 c-3 -5
-14 -10 -23 -10 -15 0 -15 2 -2 10 20 13 33 13 25 0z m-138 -82 c24 -23 30
-38 13 -38 -11 0 -50 40 -50 52 0 14 13 9 37 -14z m53 -118 c0 -11 -4 -20 -10
-20 -5 0 -14 9 -20 20 -9 17 -8 20 10 20 13 0 20 -7 20 -20z m852 -62 c-7 -7
-12 -8 -12 -2 0 6 3 14 7 17 3 4 9 5 12 2 2 -3 -1 -11 -7 -17z m28 -63 c0 -16
-6 -25 -15 -25 -9 0 -15 9 -15 25 0 16 6 25 15 25 9 0 15 -9 15 -25z m1076
-227 c16 -13 38 -34 49 -48 29 -36 78 -80 84 -75 2 3 -4 15 -15 27 -12 14 -14
18 -4 13 25 -14 60 -48 60 -59 0 -6 7 -23 14 -38 13 -25 13 -28 -2 -28 -9 0
-39 -8 -65 -18 -48 -19 -81 -48 -151 -135 -21 -27 -44 -51 -51 -53 -17 -7
-156 61 -189 91 -34 32 -38 31 -55 -5 -11 -26 -11 -33 1 -47 11 -14 11 -16 -1
-12 -29 10 -36 36 -23 86 7 26 20 55 28 64 19 21 18 35 -1 19 -13 -10 -15 -9
-15 8 0 12 22 40 53 67 28 26 42 42 30 36 -19 -10 -23 -9 -23 3 0 17 26 46 41
46 6 0 25 11 44 25 20 16 42 24 57 22 12 -2 17 -2 11 0 -20 7 -15 21 10 26 54
10 86 6 113 -15z m881 1 c-8 -30 15 -34 67 -10 25 11 46 16 46 10 0 -5 -10
-14 -22 -19 -13 -5 -45 -26 -73 -47 -37 -29 -52 -48 -60 -78 -14 -57 -29 -78
-96 -147 -60 -61 -85 -104 -110 -188 -7 -25 -14 -38 -16 -28 -7 29 27 181 45
201 9 11 45 48 78 83 58 59 62 67 68 123 5 44 14 68 34 90 31 36 47 40 39 10z
m-613 -245 c23 -9 20 -24 -4 -24 -11 0 -20 4 -20 9 0 5 -8 12 -17 14 -14 4
-13 5 4 6 12 0 28 -2 37 -5z m197 -66 c52 -41 53 -56 4 -44 -13 3 -31 14 -41
24 -14 13 -35 17 -92 17 l-74 0 49 22 c69 32 93 29 154 -19z m123 -81 c-8 -22
-46 -41 -54 -27 -5 8 -21 10 -51 5 -48 -8 -49 -4 -4 19 37 20 117 22 109 3z
m-874 -17 c0 -5 -2 -10 -4 -10 -3 0 -8 5 -11 10 -3 6 -1 10 4 10 6 0 11 -4 11
-10z m-380 -96 c0 -2 -9 -4 -21 -4 -11 0 -18 4 -14 10 5 8 35 3 35 -6z m-280
-34 c0 -5 -5 -10 -11 -10 -5 0 -7 5 -4 10 3 6 8 10 11 10 2 0 4 -4 4 -10z m90
6 c0 -2 -13 -6 -30 -8 -16 -3 -30 -1 -30 4 0 4 14 8 30 8 17 0 30 -2 30 -4z
m2434 -133 c3 -11 24 -52 46 -90 53 -88 59 -98 98 -156 19 -27 32 -51 29 -53
-5 -5 -114 117 -144 161 -28 42 -73 139 -73 159 0 8 -4 18 -10 21 -5 3 -10 16
-10 28 1 20 4 18 30 -13 16 -19 31 -45 34 -57z m-1717 35 c-3 -18 -3 -27 0
-20 2 6 11 12 19 12 8 0 23 6 34 12 15 10 22 10 32 0 6 -6 22 -12 35 -12 14 0
23 -6 23 -16 0 -12 6 -15 25 -10 24 6 35 -7 15 -19 -5 -3 -10 -11 -10 -17 0
-7 5 -7 14 1 11 9 15 8 20 -5 9 -22 -31 -59 -63 -59 -13 0 -26 -5 -28 -11 -2
-7 4 -11 13 -10 25 2 28 -21 4 -27 -13 -3 -31 4 -50 20 -16 13 -38 22 -47 20
-14 -4 -13 -5 5 -6 15 -1 22 -7 22 -21 0 -29 -36 -25 -66 8 -24 25 -25 26 -21
5 7 -30 -5 -36 -53 -28 l-40 7 22 18 23 19 -30 -2 c-36 -2 -50 31 -16 40 12 3
21 10 21 15 0 5 -13 1 -30 -9 -34 -20 -36 -28 -15 -50 9 -8 14 -20 12 -27 -2
-6 15 -16 37 -23 l41 -11 -50 -1 c-27 0 -72 6 -98 14 l-48 14 5 -32 c20 -122
36 -244 40 -312 l6 -80 -15 60 c-8 33 -19 94 -25 135 -28 206 -33 236 -41 251
-13 25 1 30 24 8 11 -10 25 -19 31 -19 5 0 2 6 -9 13 -25 19 -11 41 15 25 15
-10 22 -10 32 1 11 10 9 12 -7 9 -15 -2 -21 3 -23 22 -3 20 -2 22 11 12 10 -9
17 -10 22 -2 3 5 1 10 -4 10 -6 0 -11 7 -11 16 0 11 6 15 20 11 25 -6 70 14
70 31 0 8 10 13 23 12 38 -3 44 -1 50 20 3 11 13 20 22 20 14 0 16 -6 12 -32z
m1613 -66 c-47 -23 -98 -79 -110 -123 -6 -20 -7 -58 -3 -84 4 -35 3 -46 -5
-41 -7 4 -12 14 -12 22 0 8 -5 14 -11 14 -6 0 -8 -7 -5 -16 9 -23 20 -200 12
-193 -9 8 -36 168 -36 216 0 44 11 66 70 145 36 47 80 77 115 77 14 0 9 -5
-15 -17z m-2060 -11 c0 -13 -78 -63 -92 -59 -7 3 6 18 31 36 45 33 61 39 61
23z m664 -57 c-7 -3 -10 -14 -7 -24 6 -22 -20 -29 -32 -10 -9 15 14 40 34 39
9 0 11 -3 5 -5z m-761 -51 c-3 -21 -9 -54 -13 -73 l-8 -35 -1 41 c-1 51 9 104
20 104 4 0 5 -17 2 -37z m393 -44 c4 -7 13 -93 20 -193 17 -234 17 -231 0
-217 -15 13 -31 106 -46 261 -5 58 -13 117 -16 133 -5 23 -3 27 14 27 12 0 24
-5 28 -11z m-56 -42 c0 -10 -4 -15 -10 -12 -5 3 -10 18 -10 33 0 21 2 24 10
12 5 -8 10 -23 10 -33z m180 -8 c0 -32 -3 -40 -14 -36 -12 5 -16 -6 -19 -46
-2 -35 -4 -24 -5 36 -2 81 -1 87 18 87 17 0 20 -7 20 -41z m460 -14 c0 -9 -9
-15 -22 -15 -32 0 -134 -53 -184 -95 -34 -28 -46 -47 -64 -105 -12 -38 -25
-90 -28 -115 -9 -62 -27 -52 -25 13 2 55 30 142 60 190 50 78 150 139 231 141
22 1 32 -4 32 -14z m1380 -10 c9 -11 11 -32 5 -78 -11 -82 -11 -143 -1 -191
13 -57 -9 -38 -44 38 -28 61 -28 64 -15 127 28 130 30 134 55 104z m-2430 -15
c-20 -6 -21 -8 -6 -9 11 -1 28 -8 38 -18 16 -14 20 -15 36 -1 23 21 84 31 116
18 38 -14 32 -26 -21 -44 -87 -30 -283 -16 -283 20 0 17 12 23 62 33 58 12 92
12 58 1z m103 3 c-7 -2 -19 -2 -25 0 -7 3 -2 5 12 5 14 0 19 -2 13 -5z m-193
-79 c0 -2 -7 -4 -15 -4 -8 0 -15 4 -15 10 0 5 7 7 15 4 8 -4 15 -8 15 -10z
m452 -32 c3 -10 3 -32 1 -48 -4 -24 -13 -34 -49 -50 -24 -10 -44 -22 -44 -26
0 -5 -7 -8 -15 -8 -9 0 -19 -8 -22 -17 -4 -10 -14 -25 -22 -33 -13 -13 -14 -9
-8 34 4 27 7 70 7 97 l0 47 63 10 c34 5 67 10 73 11 7 0 14 -7 16 -17z m-448
-69 c3 -21 6 -61 6 -89 0 -27 4 -54 9 -60 5 -5 6 -34 3 -64 l-6 -55 -12 100
c-7 55 -15 124 -19 153 -9 60 9 74 19 15z m1919 23 c18 -7 55 -22 82 -31 83
-30 138 -55 132 -61 -3 -3 -18 1 -34 9 -15 8 -44 18 -63 22 -19 4 -54 16 -77
26 -23 11 -48 19 -56 19 -8 0 -20 7 -27 15 -16 20 0 20 43 1z m-1646 -48 c-2
-13 -4 -5 -4 17 -1 22 1 32 4 23 2 -10 2 -28 0 -40z m-304 -50 c6 -65 5 -104
-5 -113 -6 -6 -102 -16 -221 -22 -69 -3 -94 -1 -112 11 -13 9 -42 16 -63 16
-29 0 -43 6 -54 22 l-14 21 -130 -27 c-195 -41 -286 -57 -303 -53 -9 2 8 8 37
12 29 4 55 12 58 16 3 5 18 9 34 9 16 0 41 5 57 11 26 10 106 28 273 64 36 8
108 23 160 35 177 40 255 57 266 59 7 0 14 -24 17 -61z m2225 -4 c12 -4 22
-10 22 -15 0 -13 -23 -10 -44 6 -21 16 -15 18 22 9z m-1718 -120 c0 -16 -35
-19 -45 -5 -6 11 26 32 37 25 5 -3 8 -12 8 -20z m665 -18 c170 -33 703 -195
640 -195 -19 -1 -412 95 -450 109 -76 27 -298 70 -367 70 -39 0 -48 -3 -48
-17 0 -15 -2 -16 -10 -3 -8 13 -11 13 -19 1 -5 -8 -16 -11 -26 -8 -9 4 -14 3
-11 -2 3 -4 -26 -11 -64 -13 -38 -3 -76 -10 -84 -17 -7 -6 -20 -9 -28 -6 -8 3
-28 -1 -44 -10 -16 -8 -34 -15 -39 -15 -6 0 -28 -9 -50 -20 -22 -11 -47 -20
-57 -20 -9 0 -20 -4 -23 -10 -3 -5 -15 -10 -25 -10 -20 0 -80 -52 -80 -70 0
-5 -4 -10 -9 -10 -15 0 -25 21 -14 29 6 3 13 15 17 27 5 17 78 67 121 83 5 2
24 9 40 16 35 15 130 47 200 68 43 13 84 22 195 41 36 6 154 -3 235 -18z
m-755 0 c0 -19 -26 -27 -39 -12 -13 15 -4 26 21 26 10 0 18 -6 18 -14z m-363
-103 c-3 -10 -5 -2 -5 17 0 19 2 27 5 18 2 -10 2 -26 0 -35z m300 -165 c-3 -8
-6 -5 -6 6 -1 11 2 17 5 13 3 -3 4 -12 1 -19z"/>
<path d="M3840 3215 c-7 -9 -8 -15 -2 -15 5 0 12 7 16 15 3 8 4 15 2 15 -2 0
-9 -7 -16 -15z"/>
<path d="M3988 3063 c7 -3 16 -2 19 1 4 3 -2 6 -13 5 -11 0 -14 -3 -6 -6z"/>
<path d="M1020 2610 c0 -5 4 -10 9 -10 6 0 13 5 16 10 3 6 -1 10 -9 10 -9 0
-16 -4 -16 -10z"/>
<path d="M1490 2443 c0 -4 5 -15 10 -23 8 -13 10 -13 10 2 0 9 -4 20 -10 23
-5 3 -10 3 -10 -2z"/>
<path d="M1370 2420 c0 -11 5 -20 10 -20 6 0 10 9 10 20 0 11 -4 20 -10 20 -5
0 -10 -9 -10 -20z"/>
<path d="M2208 2433 c-25 -6 -22 -30 4 -36 12 -4 24 -4 27 -2 2 3 -1 5 -7 5
-20 0 -13 20 11 30 20 8 20 9 2 8 -11 0 -28 -2 -37 -5z"/>
<path d="M2335 2415 c0 -29 4 -30 31 -11 21 16 19 20 -11 30 -16 5 -20 1 -20
-19z"/>
<path d="M1185 2420 c-3 -6 1 -13 10 -16 19 -8 30 0 20 15 -8 14 -22 14 -30 1z"/>
<path d="M1330 2416 c0 -9 5 -16 10 -16 6 0 10 4 10 9 0 6 -4 13 -10 16 -5 3
-10 -1 -10 -9z"/>
<path d="M1410 2420 c0 -5 5 -10 10 -10 6 0 10 5 10 10 0 6 -4 10 -10 10 -5 0
-10 -4 -10 -10z"/>
<path d="M1495 2316 c-19 -14 -19 -15 -2 -22 22 -8 30 -1 25 21 -3 14 -5 14
-23 1z"/>
<path d="M1365 2290 c-3 -5 1 -10 9 -10 8 0 18 5 21 10 3 6 -1 10 -9 10 -8 0
-18 -4 -21 -10z"/>
<path d="M740 2240 c-18 -12 -2 -12 25 0 13 6 15 9 5 9 -8 0 -22 -4 -30 -9z"/>
<path d="M2517 2239 c7 -7 15 -10 18 -7 3 3 -2 9 -12 12 -14 6 -15 5 -6 -5z"/>
<path d="M457 2213 c-14 -13 -6 -24 15 -21 27 4 36 28 11 28 -11 0 -23 -3 -26
-7z"/>
<path d="M625 2200 c-3 -5 1 -10 9 -10 8 0 18 5 21 10 3 6 -1 10 -9 10 -8 0
-18 -4 -21 -10z"/>
<path d="M2579 2196 c13 -16 51 -41 51 -33 0 2 -15 14 -32 27 -21 15 -28 17
-19 6z"/>
<path d="M505 2160 c-8 -13 15 -13 35 0 12 8 11 10 -7 10 -12 0 -25 -4 -28
-10z"/>
<path d="M2520 2156 c0 -2 7 -7 16 -10 8 -3 12 -2 9 4 -6 10 -25 14 -25 6z"/>
<path d="M410 2125 c-19 -7 -28 -14 -20 -14 8 0 29 6 45 14 39 17 21 18 -25 0z"/>
<path d="M1569 2123 c-13 -16 -12 -17 4 -4 9 7 17 15 17 17 0 8 -8 3 -21 -13z"/>
<path d="M2470 2111 c0 -8 41 -23 47 -17 2 1 -8 8 -22 14 -14 6 -25 8 -25 3z"/>
<path d="M2530 2096 c0 -9 7 -16 16 -16 9 0 14 5 12 12 -6 18 -28 21 -28 4z"/>
<path d="M2590 2100 c8 -5 20 -10 25 -10 6 0 3 5 -5 10 -8 5 -19 10 -25 10 -5
0 -3 -5 5 -10z"/>
<path d="M310 2090 c0 -5 7 -7 15 -4 8 4 15 8 15 10 0 2 -7 4 -15 4 -8 0 -15
-4 -15 -10z"/>
<path d="M1020 2075 c0 -19 5 -25 23 -24 12 0 16 3 10 6 -7 2 -13 13 -13 24 0
10 -4 19 -10 19 -5 0 -10 -11 -10 -25z"/>
<path d="M1220 2090 c0 -5 5 -10 10 -10 6 0 10 5 10 10 0 6 -4 10 -10 10 -5 0
-10 -4 -10 -10z"/>
<path d="M1260 2085 c0 -8 5 -15 10 -15 6 0 10 7 10 15 0 8 -4 15 -10 15 -5 0
-10 -7 -10 -15z"/>
<path d="M1545 2060 c3 -5 8 -10 11 -10 2 0 4 5 4 10 0 6 -5 10 -11 10 -5 0
-7 -4 -4 -10z"/>
<path d="M2580 2056 c0 -2 7 -7 16 -10 8 -3 12 -2 9 4 -6 10 -25 14 -25 6z"/>
<path d="M1720 2040 c0 -5 5 -10 11 -10 5 0 7 5 4 10 -3 6 -8 10 -11 10 -2 0
-4 -4 -4 -10z"/>
<path d="M1400 2028 c0 -7 5 -20 10 -28 8 -12 10 -11 10 7 0 12 -4 25 -10 28
-5 3 -10 0 -10 -7z"/>
<path d="M1090 2010 c0 -19 3 -21 12 -12 9 9 9 15 0 24 -9 9 -12 7 -12 -12z"/>
<path d="M967 1966 c-24 -29 -37 -55 -37 -73 0 -24 5 -19 31 32 17 33 36 66
41 73 6 6 9 12 6 12 -2 0 -20 -20 -41 -44z"/>
<path d="M1240 1931 c0 -5 5 -13 10 -16 6 -3 10 -2 10 4 0 5 -4 13 -10 16 -5
3 -10 2 -10 -4z"/>
<path d="M1911 1914 c0 -11 3 -14 6 -6 3 7 2 16 -1 19 -3 4 -6 -2 -5 -13z"/>
<path d="M1267 1882 c-10 -10 -17 -22 -17 -27 0 -4 9 2 20 15 11 13 20 25 20
27 0 7 -8 2 -23 -15z"/>
<path d="M1583 1868 c-6 -7 -13 -22 -17 -32 -5 -15 -4 -17 8 -7 7 6 16 21 19
31 6 23 3 25 -10 8z"/>
<path d="M910 1844 c0 -8 5 -12 10 -9 6 3 10 10 10 16 0 5 -4 9 -10 9 -5 0
-10 -7 -10 -16z"/>
<path d="M1120 1816 c0 -2 7 -17 15 -32 16 -30 19 -25 9 14 -5 18 -24 33 -24
18z"/>
<path d="M1930 1791 c0 -6 4 -11 9 -11 5 0 12 -8 14 -17 4 -15 5 -15 6 -2 0 9
-6 22 -14 29 -10 9 -15 9 -15 1z"/>
<path d="M1432 1770 c0 -14 2 -19 5 -12 2 6 2 18 0 25 -3 6 -5 1 -5 -13z"/>
<path d="M1561 1764 c0 -11 3 -14 6 -6 3 7 2 16 -1 19 -3 4 -6 -2 -5 -13z"/>
<path d="M1726 1771 c-3 -5 4 -11 16 -14 29 -8 32 -4 8 11 -10 6 -21 8 -24 3z"/>
<path d="M1855 1760 c-3 -5 -1 -10 5 -10 6 0 8 -10 4 -24 -3 -13 -2 -26 3 -29
5 -3 10 12 10 34 2 37 -9 51 -22 29z"/>
<path d="M1235 1719 c-4 -22 -3 -45 2 -50 6 -6 9 3 9 23 0 18 4 41 8 51 5 10
4 17 -2 17 -6 0 -13 -18 -17 -41z"/>
<path d="M1125 1740 c-3 -5 -1 -10 4 -10 6 0 11 5 11 10 0 6 -2 10 -4 10 -3 0
-8 -4 -11 -10z"/>
<path d="M1960 1723 c0 -4 5 -15 10 -23 8 -13 10 -13 10 2 0 9 -4 20 -10 23
-5 3 -10 3 -10 -2z"/>
<path d="M1105 1709 c-4 -6 -5 -12 -2 -15 2 -3 7 2 10 11 7 17 1 20 -8 4z"/>
<path d="M1127 1673 c-4 -6 0 -24 8 -39 15 -30 18 -18 6 26 -4 15 -10 20 -14
13z"/>
<path d="M670 2729 c0 -11 5 -17 10 -14 6 3 10 13 10 21 0 8 -4 14 -10 14 -5
0 -10 -9 -10 -21z"/>
<path d="M2959 1813 c12 -18 24 -33 27 -33 9 0 -15 37 -33 51 -12 10 -11 5 6
-18z"/>
<path d="M2845 1765 c39 -32 51 -32 23 0 -12 14 -29 25 -37 25 -11 -1 -6 -9
14 -25z"/>
<path d="M2910 1769 c7 -11 14 -19 16 -16 7 7 -7 37 -17 37 -6 0 -5 -9 1 -21z"/>
<path d="M2969 1703 c12 -24 31 -39 31 -25 0 5 -10 17 -21 28 -22 19 -22 19
-10 -3z"/>
<path d="M2750 1696 c0 -9 5 -16 10 -16 6 0 10 4 10 9 0 6 -4 13 -10 16 -5 3
-10 -1 -10 -9z"/>
<path d="M2710 1590 c0 -5 9 -10 20 -10 11 0 20 5 20 10 0 6 -9 10 -20 10 -11
0 -20 -4 -20 -10z"/>
<path d="M2925 1170 c27 -12 35 -12 35 0 0 6 -12 10 -27 9 -25 0 -26 -1 -8 -9z"/>
<path d="M2778 1153 c7 -3 16 -2 19 1 4 3 -2 6 -13 5 -11 0 -14 -3 -6 -6z"/>
<path d="M2830 1139 c0 -5 5 -7 10 -4 6 3 10 8 10 11 0 2 -4 4 -10 4 -5 0 -10
-5 -10 -11z"/>
<path d="M2917 1123 c-3 -5 8 -8 25 -9 20 -1 25 2 16 7 -16 11 -35 11 -41 2z"/>
<path d="M2778 1113 c7 -3 16 -2 19 1 4 3 -2 6 -13 5 -11 0 -14 -3 -6 -6z"/>
<path d="M2628 1043 c6 -2 18 -2 25 0 6 3 1 5 -13 5 -14 0 -19 -2 -12 -5z"/>
<path d="M2135 880 c-3 -5 1 -10 9 -10 8 0 18 5 21 10 3 6 -1 10 -9 10 -8 0
-18 -4 -21 -10z"/>
<path d="M2365 880 c3 -5 8 -10 11 -10 2 0 4 5 4 10 0 6 -5 10 -11 10 -5 0 -7
-4 -4 -10z"/>
<path d="M2288 843 c6 -2 18 -2 25 0 6 3 1 5 -13 5 -14 0 -19 -2 -12 -5z"/>
</g>
</svg>
